<svg xmlns="http://www.w3.org/2000/svg" width="64" height="64"><linearGradient id="a" x1="32" x2="32" y1="12.664" y2="52.422" gradientUnits="userSpaceOnUse" spreadMethod="reflect"><stop offset="0" stop-color="#1a6dff"/><stop offset="1" stop-color="#c822ff"/></linearGradient><path fill="url(#a)" d="M24.982 51a5.028 5.028 0 0 1-3.524-1.429L6.888 35.364C6.315 34.806 6 34.061 6 33.268s.315-1.538.889-2.097l2.82-2.75a3.046 3.046 0 0 1 4.228.001l10.259 10.003c.395.385 1.058.38 1.446-.012l24.341-24.526a3.047 3.047 0 0 1 4.228-.068l2.867 2.705c.582.55.91 1.29.923 2.083a2.905 2.905 0 0 1-.854 2.109L28.565 49.514A5.03 5.03 0 0 1 24.982 51zm-13.16-21.436c-.26 0-.52.097-.717.29l-2.82 2.75c-.184.179-.285.414-.285.664s.102.485.285.664L22.854 48.14a3.057 3.057 0 0 0 4.291-.034l28.581-28.798a.918.918 0 0 0-.023-1.329l-2.867-2.705a1.034 1.034 0 0 0-1.435.022l-24.34 24.527a3.039 3.039 0 0 1-4.263.034L12.54 29.853a1.022 1.022 0 0 0-.718-.289z"/><linearGradient id="b" x1="32.013" x2="32.013" y1="16.83" y2="47.526" gradientUnits="userSpaceOnUse" spreadMethod="reflect"><stop offset="0" stop-color="#6dc7ff"/><stop offset="1" stop-color="#e6abff"/></linearGradient><path fill="url(#b)" d="M24.977 46.609c-.489 0-.98-.181-1.368-.544L10.318 33.603l1.367-1.459 13.292 12.461L52.293 17.29l1.414 1.414-27.316 27.315c-.391.392-.902.59-1.414.59z"/></svg>