<svg fill="none" height="24" width="32" xmlns="http://www.w3.org/2000/svg" xmlns:xlink="http://www.w3.org/1999/xlink"><filter id="g" color-interpolation-filters="sRGB" filterUnits="userSpaceOnUse" height="7" width="9" x="3" y="7"><feFlood flood-opacity="0" result="BackgroundImageFix"/><feColorMatrix in="SourceAlpha" values="0 0 0 0 0 0 0 0 0 0 0 0 0 0 0 0 0 0 255 0"/><feOffset dy="1"/><feGaussianBlur stdDeviation=".5"/><feColorMatrix values="0 0 0 0 0 0 0 0 0 0 0 0 0 0 0 0 0 0 0.1 0"/><feBlend in2="BackgroundImageFix" result="effect1_dropShadow"/><feBlend in="SourceGraphic" in2="effect1_dropShadow" result="shape"/></filter><linearGradient id="c" gradientTransform="matrix(31.99998 -23.99998 31.99998 23.99998 -16.014 12.004)" gradientUnits="userSpaceOnUse" x2="1"><stop offset="0" stop-color="#060b0e"/><stop offset="1" stop-color="#254764"/></linearGradient><linearGradient id="a"><stop offset="0" stop-color="#fff" stop-opacity="0"/><stop offset="1" stop-color="#fff"/></linearGradient><linearGradient id="d" gradientTransform="rotate(-110.052 12.697 4.253) scale(9.27096)" gradientUnits="userSpaceOnUse" x2="1" xlink:href="#a"/><linearGradient id="e" gradientTransform="rotate(-103.962 18.194 13.83) scale(15.1227)" gradientUnits="userSpaceOnUse" x2="1" xlink:href="#a"/><linearGradient id="f" gradientTransform="rotate(76.037 -.735 33.987) scale(24.2879)" gradientUnits="userSpaceOnUse" x2="1" xlink:href="#a"/><linearGradient id="h" gradientTransform="matrix(0 5 -7 0 7 0)" gradientUnits="userSpaceOnUse" x2="1"><stop offset="0" stop-color="#fad961"/><stop offset="1" stop-color="#f7955d"/></linearGradient><mask id="b" height="24" maskUnits="userSpaceOnUse" width="32" x="0" y="0"><path d="M28 0H4a4 4 0 0 0-4 4v16a4 4 0 0 0 4 4h24a4 4 0 0 0 4-4V4a4 4 0 0 0-4-4z" fill="#fff"/></mask><g mask="url(#b)"><path d="M28 0H4a4 4 0 0 0-4 4v16a4 4 0 0 0 4 4h24a4 4 0 0 0 4-4V4a4 4 0 0 0-4-4z" fill="url(#c)"/><path d="M31.5 63C48.897 63 63 48.897 63 31.5S48.897 0 31.5 0 0 14.103 0 31.5 14.103 63 31.5 63z" fill="url(#d)" opacity=".1" transform="translate(6 6)"/><path d="M16.5 33C25.613 33 33 25.613 33 16.5S25.613 0 16.5 0 0 7.387 0 16.5 7.387 33 16.5 33z" fill="url(#e)" opacity=".1" transform="translate(-10 12)"/><path d="M26.5 53C41.136 53 53 41.136 53 26.5S41.136 0 26.5 0 0 11.864 0 26.5 11.864 53 26.5 53z" fill="url(#f)" opacity=".1" transform="translate(16 -31)"/><g filter="url(#g)"><path d="M10 7H5a1 1 0 0 0-1 1v3a1 1 0 0 0 1 1h5a1 1 0 0 0 1-1V8a1 1 0 0 0-1-1z" fill="#000"/></g><path d="M6 0H1a1 1 0 0 0-1 1v3a1 1 0 0 0 1 1h5a1 1 0 0 0 1-1V1a1 1 0 0 0-1-1z" fill="url(#h)" transform="translate(4 7)"/><path d="M6 8H5v3h1zm2 0H7v3h1zm2 0H9v3h1z" fill="#7a3802" opacity=".3"/><path d="M9 15H4v1h5zm-2 2H4v1h3zm4 0H8v1h3zm4 0h-3v1h3zm0-2h-5v1h5zm6 0h-5v1h5zm6 0h-5v1h5z" fill="#fff" fill-opacity=".8"/></g></svg>