<svg width="32" height="24" fill="none" xmlns="http://www.w3.org/2000/svg"><path d="M27.871 0H4.129C1.849 0 0 1.869 0 4.174v15.652C0 22.131 1.849 24 4.129 24h23.742C30.151 24 32 22.131 32 19.826V4.174C32 1.869 30.151 0 27.871 0z" fill="#E664A5"/><path d="M8.5 6.387v11.258a.97.97 0 0 0 .968.968h6.742c5.096 0 7.29-2.839 7.29-6.613 0-3.774-2.194-6.613-7.29-6.613H9.5c-.548.032-1 .484-1 1z" fill="#fff"/><path d="M13.016 8.194v8.322h3.613c3.29 0 4.71-1.87 4.71-4.484 0-2.516-1.42-4.451-4.71-4.451h-3c-.322-.033-.613.258-.613.613z" fill="#C06"/><path d="M16.21 17.742h-5.84a.936.936 0 0 1-.935-.936V7.258c0-.516.419-.935.935-.935h5.839c5.548 0 6.387 3.58 6.387 5.71 0 3.677-2.258 5.709-6.387 5.709zM10.37 6.645a.612.612 0 0 0-.613.613v9.549c0 .354.29.612.613.612h5.839c3.903 0 6.064-1.935 6.064-5.419 0-4.677-3.806-5.387-6.064-5.387l-5.839.032z" fill="#000"/><path d="M14.306 10.903c.13 0 .259.032.355.065a.763.763 0 0 1 .29.193l.194.29c.033.13.065.259.065.42 0 .161-.033.29-.065.387-.032.13-.097.226-.161.323-.065.096-.161.16-.29.226-.097.064-.259.064-.388.064h-.87v-2l.87.032zm-.032 1.613c.065 0 .13 0 .194-.032s.097-.065.161-.097c.032-.064.097-.097.097-.193.032-.065.032-.162.032-.29 0-.098 0-.194-.032-.259-.032-.064-.065-.161-.097-.193-.032-.065-.097-.097-.161-.13-.065-.032-.162-.032-.258-.032h-.323v1.258l.387-.032zm2.71-1.613v.355h-1.065v.452h.968v.322h-.968v.484h1.065v.355h-1.516v-2l1.516.032zm1.484 0 .742 2h-.452l-.161-.451h-.742l-.161.451h-.452l.742-2h.484zm.032 1.226-.258-.742-.258.742h.516zm1.42-1.226v1.613h.967v.355h-1.42v-2c.033.032.452.032.452.032z" fill="#fff"/><path d="M11.371 12.806a.903.903 0 1 0 0-1.806.903.903 0 0 0 0 1.806zm.709 3.71a1.377 1.377 0 0 1-1.386-1.387v-1.097c0-.387.322-.71.71-.71.386 0 .709.323.709.71l-.032 2.484z" fill="#000"/></svg>