<svg xmlns="http://www.w3.org/2000/svg" viewBox="0 0 64 64" width="50" height="50"><linearGradient id="a" x1="20.581" x2="20.581" y1="32.247" y2="54.362" gradientUnits="userSpaceOnUse" spreadMethod="reflect"><stop offset="0" stop-color="#6dc7ff"/><stop offset="1" stop-color="#e6abff"/></linearGradient><path fill="url(#a)" d="m30.915 34.486-1.41-1.418L16.59 45.909c-1.607-.965-3.729-.768-5.115.612a4.132 4.132 0 0 0-1.229 2.951 4.17 4.17 0 0 0 4.178 4.158 4.183 4.183 0 0 0 2.961-1.219 4.118 4.118 0 0 0 .621-5.09l12.909-12.835zm-14.94 16.508a2.195 2.195 0 0 1-3.093.005 2.151 2.151 0 0 1 .004-3.059c.428-.426.99-.639 1.552-.639.559 0 1.117.211 1.542.634a2.152 2.152 0 0 1-.005 3.059z"/><linearGradient id="b" x1="32" x2="32" y1="5.497" y2="59.249" gradientUnits="userSpaceOnUse" spreadMethod="reflect"><stop offset="0" stop-color="#1a6dff"/><stop offset="1" stop-color="#c822ff"/></linearGradient><path fill="url(#b)" d="M14.415 57.849a8.404 8.404 0 0 1-5.949-2.444A8.296 8.296 0 0 1 6 49.482c0-2.245.88-4.355 2.477-5.943a8.465 8.465 0 0 1 6.916-2.403l16.441-16.348c-1.551-1.84-2.365-4.023-2.365-6.369 0-3.03 1.354-6.045 3.813-8.49 4.763-4.735 11.355-5.054 15.673-.761l.713.709-6.852 6.813a1.111 1.111 0 0 0-.33.789l-.003 2.979c0 .295.115.572.324.782.212.212.496.329.799.329h.001l2.997-.003c.297-.001.589-.121.801-.331l6.844-6.805.705.701C56.946 17.114 58 19.573 58 22.242c0 3.029-1.354 6.044-3.813 8.488-4.498 4.475-10.631 5.005-14.937 1.432L22.824 48.496c.384 2.509-.471 4.94-2.439 6.898a8.445 8.445 0 0 1-5.97 2.455zm.031-14.766c-1.696 0-3.343.664-4.56 1.874S8 47.773 8 49.482a6.31 6.31 0 0 0 1.876 4.505c2.506 2.49 6.587 2.483 9.099-.011 1.608-1.6 2.245-3.588 1.793-5.597l-.121-.539L39.22 29.373l.705.701c3.557 3.536 8.842 3.226 12.853-.762C54.855 27.246 56 24.735 56 22.242c0-1.809-.615-3.504-1.789-4.954l-5.397 5.366c-.591.587-1.375 1.127-2.207 1.128L43.608 24h-.003c-.837 0-1.623-.541-2.213-1.13-.588-.588-.911-1.476-.91-2.306l.003-3.034a3.156 3.156 0 0 1 .92-2.231l5.387-5.37c-3.521-2.805-8.364-2.288-12.101 1.425-2.078 2.067-3.223 4.575-3.223 7.069 0 2.124.851 4.091 2.458 5.69l.713.708-18.558 18.45-.51-.089a6.399 6.399 0 0 0-1.125-.099z"/><linearGradient id="c" x1="34.342" x2="34.342" y1="25.747" y2="34.529" gradientUnits="userSpaceOnUse" spreadMethod="reflect"><stop offset="0" stop-color="#6dc7ff"/><stop offset="1" stop-color="#e6abff"/></linearGradient><path fill="url(#c)" d="m32.417 32.992-1.41-1.418 5.26-5.229 1.41 1.418z"/></svg>