<svg xmlns="http://www.w3.org/2000/svg" viewBox="0 0 425.36 89.06"><defs><linearGradient id="a" x1="130.45" y1="-75.31" x2="263.41" y2="154.99" gradientUnits="userSpaceOnUse"><stop offset="0" stop-color="#1eb9ec"/><stop offset=".07" stop-color="#25b2e7"/><stop offset=".7" stop-color="#6677ba"/><stop offset="1" stop-color="#7f60a9"/></linearGradient></defs><g data-name="Layer 2"><path d="M176.32 55.18v6.29h-24.89a11.23 11.23 0 0 1-5-1.15 11 11 0 0 1-5.12-5.14 10.84 10.84 0 0 1-1.17-5V26.17h6.29v24.69a5 5 0 0 0 4.32 4.32zm21.22 6.3v-35.3h6.3v35.3zm51.26-35.29a17.64 17.64 0 0 1 17.64 17.64 17.39 17.39 0 0 1-4.18 11.37 14.89 14.89 0 0 1-1 1.11 17.47 17.47 0 0 1-12.45 5.18h-23.5v-35.3zm-17.19 29h17.19a11.36 11.36 0 0 0 0-22.72h-17.19zm57.65-19.49v5.86h25v6.29h-25V52a3.25 3.25 0 0 0 3.23 3.25h27.11v6.29h-27.11A9.53 9.53 0 0 1 283 52V35.71a9.53 9.53 0 0 1 9.52-9.54h27.08v6.29h-27.11a3.25 3.25 0 0 0-3.23 3.25zm69.94 4.6 15.32 21.12h-7.78l-12.19-16.83-8.92 8.13v8.71h-6.29v-35.3h6.29v18.06l5.18-4.74 4.68-4.28 9.86-9h9.33zm66.16 21.18h-7.07l-3.23-6.31-7.7-15.13-7.7 15.13-3.23 6.31h-7.07l3.22-6.31 14.78-29 14.79 29zm-320.31 9a8 8 0 1 0 8 8 8 8 0 0 0-8-7.95zM0 47.49V0h20.47v36.45zm83 20.58v20.99H16.57A16.62 16.62 0 0 1 0 72.49v-10l20.47-11v5.66a11 11 0 0 0 11 11zm-.16-52.55a18.45 18.45 0 0 1 .16 2.24v15.36a17.82 17.82 0 0 1-17.75 17.76H42.46a1.19 1.19 0 0 1-1.19-1.19V38zM41.27 23V1.19A1.19 1.19 0 0 1 42.46 0h22.79a17.64 17.64 0 0 1 11.21 4z" style="fill:url(#a)" data-name="Layer 1"/></g></svg>