<svg xmlns="http://www.w3.org/2000/svg" viewBox="0 0 64 64" width="50" height="50"><linearGradient id="a" x1="49" x2="49" y1="21.961" y2="29.662" gradientUnits="userSpaceOnUse" spreadMethod="reflect"><stop offset="0" stop-color="#6dc7ff"/><stop offset="1" stop-color="#e6abff"/></linearGradient><path fill="url(#a)" d="M49 22a4 4 0 1 0 0 8 4 4 0 1 0 0-8z"/><linearGradient id="b" x1="40" x2="40" y1="12" y2="19.8" gradientUnits="userSpaceOnUse" spreadMethod="reflect"><stop offset="0" stop-color="#6dc7ff"/><stop offset="1" stop-color="#e6abff"/></linearGradient><path fill="url(#b)" d="M40 12a4 4 0 1 0 0 8 4 4 0 1 0 0-8z"/><linearGradient id="c" x1="26" x2="26" y1="11.044" y2="18.942" gradientUnits="userSpaceOnUse" spreadMethod="reflect"><stop offset="0" stop-color="#6dc7ff"/><stop offset="1" stop-color="#e6abff"/></linearGradient><path fill="url(#c)" d="M26 11a4 4 0 1 0 0 8 4 4 0 1 0 0-8z"/><linearGradient id="d" x1="16" x2="16" y1="21.109" y2="28.956" gradientUnits="userSpaceOnUse" spreadMethod="reflect"><stop offset="0" stop-color="#6dc7ff"/><stop offset="1" stop-color="#e6abff"/></linearGradient><path fill="url(#d)" d="M16 21a4 4 0 1 0 0 8 4 4 0 1 0 0-8z"/><linearGradient id="e" x1="16" x2="16" y1="33.95" y2="41.851" gradientUnits="userSpaceOnUse" spreadMethod="reflect"><stop offset="0" stop-color="#6dc7ff"/><stop offset="1" stop-color="#e6abff"/></linearGradient><path fill="url(#e)" d="M16 34a4 4 0 1 0 0 8 4 4 0 1 0 0-8z"/><linearGradient id="f" x1="32" x2="32" y1="4.625" y2="59.37" gradientUnits="userSpaceOnUse" spreadMethod="reflect"><stop offset="0" stop-color="#1a6dff"/><stop offset="1" stop-color="#c822ff"/></linearGradient><path fill="url(#f)" d="M30 41c-3.309 0-6 2.691-6 6s2.691 6 6 6 6-2.691 6-6-2.691-6-6-6zm0 10c-2.206 0-4-1.794-4-4s1.794-4 4-4 4 1.794 4 4-1.794 4-4 4zm20.487-38.679c-5.486-5.155-12.664-7.74-20.208-7.268-13.541.842-24.384 11.685-25.225 25.226-.469 7.545 2.112 14.722 7.268 20.208A27.106 27.106 0 0 0 32 59c5.514 0 10-4.486 10-10v-2c0-4.411 3.589-8 8-8h2c3.859 0 7-3.141 7-7a27.11 27.11 0 0 0-8.513-19.679zM52 37h-2c-5.514 0-10 4.486-10 10v2c0 4.411-3.589 8-8 8-6.973 0-13.443-2.8-18.221-7.883-4.773-5.079-7.163-11.725-6.729-18.715C7.828 17.867 17.867 7.828 30.402 7.05c.541-.033 1.079-.05 1.616-.05 6.393 0 12.413 2.375 17.1 6.779C54.2 18.557 57 25.027 57 32c0 2.757-2.243 5-5 5z"/></svg>