<svg xmlns="http://www.w3.org/2000/svg" width="64" height="64"><defs><linearGradient id="a" gradientUnits="userSpaceOnUse" x1="32.25" y1="80.281" x2="32.25" y2="90.061" gradientTransform="scale(.3721)"><stop offset="0" style="stop-color:#d9f7ee;stop-opacity:1"/><stop offset="1" style="stop-color:#2df19b;stop-opacity:1"/></linearGradient><linearGradient id="b" gradientUnits="userSpaceOnUse" x1="116.353" y1="31.336" x2="116.353" y2="53.898" gradientTransform="scale(.3721)"><stop offset="0" style="stop-color:#d9f7ee;stop-opacity:1"/><stop offset="1" style="stop-color:#2df19b;stop-opacity:1"/></linearGradient><linearGradient id="c" gradientUnits="userSpaceOnUse" x1="123.55" y1="88.287" x2="123.55" y2="110.593" gradientTransform="scale(.3721)"><stop offset="0" style="stop-color:#d9f7ee;stop-opacity:1"/><stop offset="1" style="stop-color:#2df19b;stop-opacity:1"/></linearGradient><linearGradient id="d" gradientUnits="userSpaceOnUse" x1="119.411" y1="58.182" x2="119.411" y2="78.873" gradientTransform="scale(.3721)"><stop offset="0" style="stop-color:#d9f7ee;stop-opacity:1"/><stop offset="1" style="stop-color:#2df19b;stop-opacity:1"/></linearGradient><linearGradient id="e" gradientUnits="userSpaceOnUse" x1="86" y1="14.695" x2="86" y2="156.692"><stop offset="0" style="stop-color:#7de3c3;stop-opacity:1"/><stop offset="1" style="stop-color:#0ba360;stop-opacity:1"/></linearGradient><linearGradient id="f" gradientUnits="userSpaceOnUse" x1="86" y1="14.695" x2="86" y2="156.692" gradientTransform="scale(.3721)"><stop offset="0" style="stop-color:#7de3c3;stop-opacity:1"/><stop offset="1" style="stop-color:#0ba360;stop-opacity:1"/></linearGradient></defs><path style="stroke:none;fill-rule:nonzero;fill:url(#a)" d="M13 30a1.999 1.999 0 1 0 0 4zm0 0"/><path style="stroke:none;fill-rule:nonzero;fill:url(#b)" d="M41 12.66V20h4.586zm0 0"/><path style="stroke:none;fill-rule:nonzero;fill:url(#c)" d="M41 34v8h9.941l-4.367-8zm0 0"/><path style="stroke:none;fill-rule:nonzero;fill:url(#d)" d="M41 24v6h6.863l-3.383-6zm0 0"/><path style="stroke:none;fill-rule:nonzero;fill:url(#e)" d="M17 56h30v2H17zm0 0"/><path style="stroke:none;fill-rule:nonzero;fill:url(#f)" d="M56.879 44.52 51.133 34H53a.997.997 0 0 0 .863-.496.997.997 0 0 0 .008-.996L49.071 24H51c.363 0 .7-.195.875-.516a1.006 1.006 0 0 0-.027-1.015l-10-16c-.364-.582-1.328-.582-1.696 0l-10 16a1.005 1.005 0 0 0-.027 1.015c.176.32.512.516.875.516h1.93l-4.801 8.508a.997.997 0 0 0 .008.996c.18.309.508.496.863.496h1.867l-5.746 10.52A1 1 0 0 0 26 46h5v6h-8V38h3.406l1.09-2H13c-2.207 0-4-1.793-4-4s1.793-4 4-4h7v-2h-4.184c-.62-.672-.918-1.54-.78-2.457.214-1.45 1.562-2.543 3.14-2.543h5.82L24 19a1.99 1.99 0 0 1-1.453-.625 1.985 1.985 0 0 1-.543-1.484C22.059 15.848 23.03 15 24.172 15h8.293l1.25-2h-9.543c-2.227 0-4.055 1.66-4.168 3.785-.04.79.144 1.55.527 2.215h-2.355c-2.563 0-4.762 1.828-5.121 4.25a5.01 5.01 0 0 0 .37 2.75H13c-3.309 0-6 2.691-6 6s2.691 6 6 6v1c0 2.207 1.848 4 4.117 4H21v9H8v2h48v-2H46v-6h10a1 1 0 0 0 .879-1.48zM17.117 41C15.95 41 15 40.102 15 39v-1h6v3zM41 8.887 49.195 22h-16.39zM35.223 24h11.55l4.512 8H30.711zM33 46h3v6h-3zm11 6h-6v-6h6zm-16.313-8 5.461-10h15.704l5.46 10zm0 0"/></svg>