<svg xmlns="http://www.w3.org/2000/svg" viewBox="0 0 64 64" width="50" height="50"><linearGradient id="a" x1="32" x2="32" y1="9.125" y2="54.913" gradientUnits="userSpaceOnUse" spreadMethod="reflect"><stop offset="0" stop-color="#1a6dff"/><stop offset="1" stop-color="#c822ff"/></linearGradient><path fill="url(#a)" d="M55 18h-7v2h7a1 1 0 0 1 1 1v.667c0 .645-.213 1.284-.6 1.8L46 36a5.025 5.025 0 0 1-4 2H26.721c-1.289 0-2.395-.835-2.811-2H35v-2H23.646l-.143-2H31v-2h-7.64l-1.23-17.217A3.008 3.008 0 0 0 19.141 10H9c-1.654 0-3 1.346-3 3s1.346 3 3 3h6c1.654 0 3-1.346 3-3v-1h1.141c.521 0 .957.407.995.926l1.603 22.435a5.011 5.011 0 0 0 4.982 4.64H42a7.033 7.033 0 0 0 5.6-2.801L57 24.667c.645-.859 1-1.925 1-3V21c0-1.654-1.346-3-3-3zm-39-5a1 1 0 0 1-1 1H9a1 1 0 0 1 0-2h7v1z"/><linearGradient id="b" x1="35" x2="35" y1="9.125" y2="54.913" gradientUnits="userSpaceOnUse" spreadMethod="reflect"><stop offset="0" stop-color="#1a6dff"/><stop offset="1" stop-color="#c822ff"/></linearGradient><path fill="url(#b)" d="M44 44a5.009 5.009 0 0 0-4.899 4h-8.202A5.009 5.009 0 0 0 26 44c-2.757 0-5 2.243-5 5s2.243 5 5 5a5.009 5.009 0 0 0 4.899-4h8.202A5.009 5.009 0 0 0 44 54c2.757 0 5-2.243 5-5s-2.243-5-5-5zm-18 8c-1.654 0-3-1.346-3-3s1.346-3 3-3 3 1.346 3 3-1.346 3-3 3zm18 0c-1.654 0-3-1.346-3-3s1.346-3 3-3 3 1.346 3 3-1.346 3-3 3z"/><linearGradient id="c" x1="36.703" x2="36.703" y1="12.75" y2="27.284" gradientUnits="userSpaceOnUse" spreadMethod="reflect"><stop offset="0" stop-color="#6dc7ff"/><stop offset="1" stop-color="#e6abff"/></linearGradient><path fill="url(#c)" d="M39.875 16H36v-2.043c0-.753-.64-1.21-1.296-.807l-4.805 3.088c-.617.379-.678 1.25-.056 1.621 1.397.832 3.455 2.133 4.907 2.998.657.391 1.25-.069 1.25-.816V18h4a2 2 0 0 1 2 2v7h2v-6.875A4.125 4.125 0 0 0 39.875 16z"/></svg>