<svg xmlns="http://www.w3.org/2000/svg" viewBox="0 0 64 64" width="50" height="50"><linearGradient id="a" x1="26" x2="26" y1="9.936" y2="52.98" gradientUnits="userSpaceOnUse"><stop offset="0" stop-color="#6dc7ff"/><stop offset="1" stop-color="#e6abff"/></linearGradient><path fill="url(#a)" d="M20 53h12v2H20z"/><linearGradient id="b" x1="19.5" x2="19.5" y1="9.936" y2="52.98" gradientUnits="userSpaceOnUse"><stop offset="0" stop-color="#6dc7ff"/><stop offset="1" stop-color="#e6abff"/></linearGradient><path fill="url(#b)" d="M7 29h25v2H7z"/><linearGradient id="c" x1="19.5" x2="19.5" y1="9.936" y2="52.98" gradientUnits="userSpaceOnUse"><stop offset="0" stop-color="#6dc7ff"/><stop offset="1" stop-color="#e6abff"/></linearGradient><path fill="url(#c)" d="M7 25h25v2H7z"/><linearGradient id="d" x1="20.5" x2="20.5" y1="9.936" y2="52.98" gradientUnits="userSpaceOnUse"><stop offset="0" stop-color="#6dc7ff"/><stop offset="1" stop-color="#e6abff"/></linearGradient><path fill="url(#d)" d="M9 21h23v2H9z"/><linearGradient id="e" x1="21.5" x2="21.5" y1="9.936" y2="52.98" gradientUnits="userSpaceOnUse"><stop offset="0" stop-color="#6dc7ff"/><stop offset="1" stop-color="#e6abff"/></linearGradient><path fill="url(#e)" d="M11 17h21v2H11z"/><linearGradient id="f" x1="23.5" x2="23.5" y1="9.936" y2="52.98" gradientUnits="userSpaceOnUse"><stop offset="0" stop-color="#6dc7ff"/><stop offset="1" stop-color="#e6abff"/></linearGradient><path fill="url(#f)" d="M15 13h17v2H15z"/><linearGradient id="g" x1="26" x2="26" y1="9.936" y2="52.98" gradientUnits="userSpaceOnUse"><stop offset="0" stop-color="#6dc7ff"/><stop offset="1" stop-color="#e6abff"/></linearGradient><path fill="url(#g)" d="M20 9h12v2H20z"/><linearGradient id="h" x1="20" x2="20" y1="9.936" y2="52.98" gradientUnits="userSpaceOnUse"><stop offset="0" stop-color="#6dc7ff"/><stop offset="1" stop-color="#e6abff"/></linearGradient><path fill="url(#h)" d="M8 37h24v2H8z"/><linearGradient id="i" x1="19.5" x2="19.5" y1="9.936" y2="52.98" gradientUnits="userSpaceOnUse"><stop offset="0" stop-color="#6dc7ff"/><stop offset="1" stop-color="#e6abff"/></linearGradient><path fill="url(#i)" d="M7 33h25v2H7z"/><linearGradient id="j" x1="21.5" x2="21.5" y1="9.936" y2="52.98" gradientUnits="userSpaceOnUse"><stop offset="0" stop-color="#6dc7ff"/><stop offset="1" stop-color="#e6abff"/></linearGradient><path fill="url(#j)" d="M11 45h21v2H11z"/><linearGradient id="k" x1="20.5" x2="20.5" y1="9.936" y2="52.98" gradientUnits="userSpaceOnUse"><stop offset="0" stop-color="#6dc7ff"/><stop offset="1" stop-color="#e6abff"/></linearGradient><path fill="url(#k)" d="M9 41h23v2H9z"/><linearGradient id="l" x1="23.5" x2="23.5" y1="9.936" y2="52.98" gradientUnits="userSpaceOnUse"><stop offset="0" stop-color="#6dc7ff"/><stop offset="1" stop-color="#e6abff"/></linearGradient><path fill="url(#l)" d="M15 49h17v2H15z"/><linearGradient id="m" x1="32" x2="32" y1="5.723" y2="58.199" gradientUnits="userSpaceOnUse"><stop offset="0" stop-color="#1a6dff"/><stop offset="1" stop-color="#c822ff"/></linearGradient><path fill="url(#m)" d="M32 58C17.664 58 6 46.337 6 32S17.664 6 32 6s26 11.663 26 26-11.664 26-26 26zm0-50C18.767 8 8 18.767 8 32s10.767 24 24 24 24-10.767 24-24S45.233 8 32 8z"/></svg>