<svg xmlns="http://www.w3.org/2000/svg" viewBox="0 0 64 64" width="50" height="50"><linearGradient id="a" x1="8" x2="8" y1="20.375" y2="44.003" gradientUnits="userSpaceOnUse" spreadMethod="reflect"><stop offset="0" stop-color="#6dc7ff"/><stop offset="1" stop-color="#e6abff"/></linearGradient><path fill="url(#a)" d="M10 36a1 1 0 0 1-1 1H7a1 1 0 0 1-1-1v-8a1 1 0 0 1 1-1h2a1 1 0 0 1 1 1v8z"/><linearGradient id="b" x1="8" x2="8" y1="9.25" y2="52.526" gradientUnits="userSpaceOnUse" spreadMethod="reflect"><stop offset="0" stop-color="#1a6dff"/><stop offset="1" stop-color="#c822ff"/></linearGradient><path fill="url(#b)" d="M9 38H7c-1.103 0-2-.897-2-2v-8c0-1.103.897-2 2-2h2c1.103 0 2 .897 2 2v8c0 1.103-.897 2-2 2zM7 28v8h2v-8H7z"/><linearGradient id="c" x1="16" x2="16" y1="9.25" y2="52.526" gradientUnits="userSpaceOnUse" spreadMethod="reflect"><stop offset="0" stop-color="#1a6dff"/><stop offset="1" stop-color="#c822ff"/></linearGradient><path fill="url(#c)" d="M17 44h-2c-1.103 0-2-.897-2-2V22c0-1.103.897-2 2-2h2c1.103 0 2 .897 2 2v20c0 1.103-.897 2-2 2zm-2-22v20h2V22h-2z"/><linearGradient id="d" x1="24" x2="24" y1="9.25" y2="52.526" gradientUnits="userSpaceOnUse" spreadMethod="reflect"><stop offset="0" stop-color="#1a6dff"/><stop offset="1" stop-color="#c822ff"/></linearGradient><path fill="url(#d)" d="M25 52h-2c-1.103 0-2-.897-2-2V14c0-1.103.897-2 2-2h2c1.103 0 2 .897 2 2v36c0 1.103-.897 2-2 2zm-2-38v36h2V14h-2z"/><linearGradient id="e" x1="32" x2="32" y1="20.375" y2="44.003" gradientUnits="userSpaceOnUse" spreadMethod="reflect"><stop offset="0" stop-color="#6dc7ff"/><stop offset="1" stop-color="#e6abff"/></linearGradient><path fill="url(#e)" d="M34 42a1 1 0 0 1-1 1h-2a1 1 0 0 1-1-1V22a1 1 0 0 1 1-1h2a1 1 0 0 1 1 1v20z"/><linearGradient id="f" x1="32" x2="32" y1="9.25" y2="52.526" gradientUnits="userSpaceOnUse" spreadMethod="reflect"><stop offset="0" stop-color="#1a6dff"/><stop offset="1" stop-color="#c822ff"/></linearGradient><path fill="url(#f)" d="M33 44h-2c-1.103 0-2-.897-2-2V22c0-1.103.897-2 2-2h2c1.103 0 2 .897 2 2v20c0 1.103-.897 2-2 2zm-2-22v20h2V22h-2z"/><linearGradient id="g" x1="40" x2="40" y1="9.25" y2="52.526" gradientUnits="userSpaceOnUse" spreadMethod="reflect"><stop offset="0" stop-color="#1a6dff"/><stop offset="1" stop-color="#c822ff"/></linearGradient><path fill="url(#g)" d="M41 52h-2c-1.103 0-2-.897-2-2V14c0-1.103.897-2 2-2h2c1.103 0 2 .897 2 2v36c0 1.103-.897 2-2 2zm-2-38v36h2V14h-2z"/><linearGradient id="h" x1="48" x2="48" y1="9.25" y2="52.526" gradientUnits="userSpaceOnUse" spreadMethod="reflect"><stop offset="0" stop-color="#1a6dff"/><stop offset="1" stop-color="#c822ff"/></linearGradient><path fill="url(#h)" d="M49 44h-2c-1.103 0-2-.897-2-2V22c0-1.103.897-2 2-2h2c1.103 0 2 .897 2 2v20c0 1.103-.897 2-2 2zm-2-22v20h2V22h-2z"/><linearGradient id="i" x1="56" x2="56" y1="20.375" y2="44.003" gradientUnits="userSpaceOnUse" spreadMethod="reflect"><stop offset="0" stop-color="#6dc7ff"/><stop offset="1" stop-color="#e6abff"/></linearGradient><path fill="url(#i)" d="M58 36a1 1 0 0 1-1 1h-2a1 1 0 0 1-1-1v-8a1 1 0 0 1 1-1h2a1 1 0 0 1 1 1v8z"/><linearGradient id="j" x1="56" x2="56" y1="9.25" y2="52.526" gradientUnits="userSpaceOnUse" spreadMethod="reflect"><stop offset="0" stop-color="#1a6dff"/><stop offset="1" stop-color="#c822ff"/></linearGradient><path fill="url(#j)" d="M57 38h-2c-1.103 0-2-.897-2-2v-8c0-1.103.897-2 2-2h2c1.103 0 2 .897 2 2v8c0 1.103-.897 2-2 2zm-2-10v8h2v-8h-2z"/></svg>