<svg xmlns="http://www.w3.org/2000/svg" viewBox="0 0 64 64" width="50" height="50"><linearGradient id="a" x1="32" x2="32" y1="5" y2="58.981" gradientUnits="userSpaceOnUse" spreadMethod="reflect"><stop offset="0" stop-color="#1a6dff"/><stop offset="1" stop-color="#c822ff"/></linearGradient><path fill="url(#a)" d="M32 58a5.006 5.006 0 0 1-4.577-2.988 5.007 5.007 0 0 1-5.373 1.009 4.974 4.974 0 0 1-2.706-2.705 5.023 5.023 0 0 1-.382-1.807 5.015 5.015 0 0 1-5.347-1.124 5.008 5.008 0 0 1-1.125-5.347 5.022 5.022 0 0 1-1.806-.382 4.974 4.974 0 0 1-2.705-2.706 4.964 4.964 0 0 1-.001-3.827 5.004 5.004 0 0 1 1.007-1.547C7.229 35.8 6 34.041 6 32s1.229-3.8 2.985-4.576a4.993 4.993 0 0 1-1.007-1.547 4.964 4.964 0 0 1 .001-3.827 4.974 4.974 0 0 1 2.705-2.706 5.018 5.018 0 0 1 1.806-.382 5.008 5.008 0 0 1 1.125-5.347 5.013 5.013 0 0 1 5.347-1.125 5.022 5.022 0 0 1 .382-1.806 4.974 4.974 0 0 1 2.706-2.705 4.969 4.969 0 0 1 3.827-.001 5.004 5.004 0 0 1 1.547 1.007C28.2 7.229 29.959 6 32 6s3.8 1.229 4.576 2.985a4.993 4.993 0 0 1 1.547-1.007 4.969 4.969 0 0 1 3.827.001 4.974 4.974 0 0 1 2.706 2.705c.241.583.368 1.193.382 1.806a5.012 5.012 0 0 1 5.347 1.125 5.008 5.008 0 0 1 1.125 5.347 5.022 5.022 0 0 1 1.806.382 4.974 4.974 0 0 1 2.705 2.706 4.964 4.964 0 0 1 .001 3.827 5.004 5.004 0 0 1-1.007 1.547C56.771 28.2 58 29.959 58 32s-1.229 3.8-2.985 4.576c.424.442.765.964 1.007 1.547a4.964 4.964 0 0 1-.001 3.827 4.974 4.974 0 0 1-2.705 2.706 5.018 5.018 0 0 1-1.806.382 5.008 5.008 0 0 1-1.125 5.347 5.006 5.006 0 0 1-5.347 1.124 5.028 5.028 0 0 1-.382 1.807 4.974 4.974 0 0 1-2.706 2.705 5.006 5.006 0 0 1-5.373-1.009A5.006 5.006 0 0 1 32 58zm-4.924-6.273 1.924.382V53c0 1.654 1.346 3 3 3s3-1.346 3-3v-.891l1.924-.383.341.823a3.002 3.002 0 0 0 5.543 0 2.977 2.977 0 0 0 0-2.296l-.341-.823 1.631-1.09.63.63a3.007 3.007 0 0 0 4.243 0 3.003 3.003 0 0 0 0-4.243l-.63-.63 1.09-1.631.823.341c.74.307 1.556.307 2.296 0a2.98 2.98 0 0 0 1.623-1.623 3.004 3.004 0 0 0-1.623-3.92l-.823-.341.382-1.923H53c1.654 0 3-1.346 3-3s-1.346-3-3-3h-.891l-.383-1.924.823-.341a3.004 3.004 0 0 0 1.623-3.92 2.98 2.98 0 0 0-1.623-1.623 2.977 2.977 0 0 0-2.296 0l-.823.341-1.09-1.631.63-.63a3.003 3.003 0 0 0 0-4.243 3.003 3.003 0 0 0-4.243 0l-.63.63-1.631-1.09.341-.823a2.977 2.977 0 0 0 0-2.296 3.003 3.003 0 0 0-5.543 0l-.341.823L35 11.891V11c0-1.654-1.346-3-3-3s-3 1.346-3 3v.891l-1.924.383-.341-.823a3.003 3.003 0 0 0-3.92-1.623 2.98 2.98 0 0 0-1.623 1.623 2.977 2.977 0 0 0 0 2.296l.341.823-1.631 1.09-.63-.63a3.003 3.003 0 0 0-4.243 0 3.003 3.003 0 0 0 0 4.243l.63.63-1.09 1.631-.823-.341a2.977 2.977 0 0 0-2.296 0 2.98 2.98 0 0 0-1.623 1.623 3.004 3.004 0 0 0 1.623 3.92l.823.341L11.891 29H11c-1.654 0-3 1.346-3 3s1.346 3 3 3h.891l.383 1.924-.823.341a3.004 3.004 0 0 0-1.623 3.92 2.98 2.98 0 0 0 1.623 1.623c.74.307 1.556.307 2.296 0l.823-.341 1.09 1.631-.63.63a3.003 3.003 0 0 0 0 4.243 3.007 3.007 0 0 0 4.243 0l.63-.63 1.631 1.09-.341.823a2.977 2.977 0 0 0 0 2.296 2.98 2.98 0 0 0 1.623 1.623 3.006 3.006 0 0 0 3.92-1.623l.34-.823z"/><linearGradient id="b" x1="32" x2="32" y1="21.833" y2="44.09" gradientUnits="userSpaceOnUse" spreadMethod="reflect"><stop offset="0" stop-color="#6dc7ff"/><stop offset="1" stop-color="#e6abff"/></linearGradient><path fill="url(#b)" d="M28.437 40.702a3.989 3.989 0 0 1-2.831-1.171l-4.867-4.867a2 2 0 1 1 2.828-2.828l3.453 3.453a2 2 0 0 0 2.828 0L40.432 24.71a2 2 0 1 1 2.828 2.828L31.268 39.531a3.989 3.989 0 0 1-2.831 1.171z"/></svg>