<svg xmlns="http://www.w3.org/2000/svg" viewBox="0 0 64 64" width="50" height="50"><linearGradient id="a" x1="37" x2="37" y1="37.063" y2="41.251" gradientUnits="userSpaceOnUse" spreadMethod="reflect"><stop offset="0" stop-color="#6dc7ff"/><stop offset="1" stop-color="#e6abff"/></linearGradient><path fill="url(#a)" d="M37 37a2 2 0 1 0 0 4 2 2 0 1 0 0-4z"/><linearGradient id="b" x1="25" x2="25" y1="37.063" y2="41.251" gradientUnits="userSpaceOnUse" spreadMethod="reflect"><stop offset="0" stop-color="#6dc7ff"/><stop offset="1" stop-color="#e6abff"/></linearGradient><path fill="url(#b)" d="M25 37a2 2 0 1 0 0 4 2 2 0 1 0 0-4z"/><linearGradient id="c" x1="31" x2="31" y1="42.625" y2="48.375" gradientUnits="userSpaceOnUse" spreadMethod="reflect"><stop offset="0" stop-color="#6dc7ff"/><stop offset="1" stop-color="#e6abff"/></linearGradient><path fill="url(#c)" d="M34 43h-6a1 1 0 0 0-1 1h.001H27c0 2 1.791 4 4 4s4-1.791 4-4a1 1 0 0 0-1-1z"/><linearGradient id="d" x1="32" x2="32" y1="5" y2="58.757" gradientUnits="userSpaceOnUse" spreadMethod="reflect"><stop offset="0" stop-color="#1a6dff"/><stop offset="1" stop-color="#c822ff"/></linearGradient><path fill="url(#d)" d="M54 33c0-1.654-1.346-3-3-3h-1c0-8.378-5.458-15.494-13-18.014V11c0-1.654-1.346-3-3-3-.395 0-.77.081-1.116.22A2.995 2.995 0 0 0 30 6c-1.654 0-3 1.346-3 3v2.433A18.969 18.969 0 0 0 15.517 19H8v3c0 2.815 1.675 5.242 4.078 6.352A19.22 19.22 0 0 0 12 30v1.101A5.009 5.009 0 0 0 8 36c0 2.757 2.243 5 5 5h1.266a17.001 17.001 0 0 0 12.788 13.527C27.314 56.482 28.974 58 31 58h6c1.859 0 3.411-1.28 3.858-3H44c3.859 0 7-3.141 7-7v-6c1.654 0 3-1.346 3-3 1.103 0 2-.897 2-2v-2c0-1.103-.897-2-2-2zM34 10a1 1 0 0 1 1 1v.432a19.117 19.117 0 0 0-2-.325V11a1 1 0 0 1 1-1zm-5-1a1 1 0 0 1 2 0v2c-.673 0-1.339.043-2 .113V9zm2 4c9.374 0 17 7.626 17 17h-2v5h-1a1 1 0 0 1-1-1v-4c0-1.654-1.346-3-3-3h-7v-1c0-3.859-3.141-7-7-7h-8.957A16.97 16.97 0 0 1 31 13zm-21 9v-1h17c2.757 0 5 2.243 5 5v1H15c-2.757 0-5-2.243-5-5zm3 17c-1.654 0-3-1.346-3-3s1.346-3 3-3h1v5c0 .335.01.669.029 1H13zm1-8v-1c0-.359.037-.714.059-1.071.309.042.621.071.941.071h3.184A2.966 2.966 0 0 0 18 30v4a1 1 0 0 1-1 1h-1v-4h-2zm2 7v-1h1c1.654 0 3-1.346 3-3v-4a1 1 0 0 1 1-1h20a1 1 0 0 1 1 1v4c0 1.654 1.346 3 3 3h1v1c0 5.098-2.626 9.864-6.893 12.615A3.956 3.956 0 0 0 37 50h-6a3.999 3.999 0 0 0-3.71 2.525C20.698 50.85 16 44.89 16 38zm21 18h-6c-1.103 0-2-.897-2-2s.897-2 2-2h6c1.103 0 2 .897 2 2s-.897 2-2 2zm12-8c0 2.757-2.243 5-5 5h-3.142a3.972 3.972 0 0 0-.36-.901A17.078 17.078 0 0 0 47.51 42H49v6zm3-9a1 1 0 0 1-1 1h-3v-8h3a1 1 0 0 1 1 1v6z"/><linearGradient id="e" x1="37" x2="37" y1="5" y2="58.757" gradientUnits="userSpaceOnUse" spreadMethod="reflect"><stop offset="0" stop-color="#1a6dff"/><stop offset="1" stop-color="#c822ff"/></linearGradient><path fill="url(#e)" d="M34 33h6v2h-6z"/><linearGradient id="f" x1="25" x2="25" y1="5" y2="58.757" gradientUnits="userSpaceOnUse" spreadMethod="reflect"><stop offset="0" stop-color="#1a6dff"/><stop offset="1" stop-color="#c822ff"/></linearGradient><path fill="url(#f)" d="M22 33h6v2h-6z"/></svg>