<svg width="141" height="141" fill="none" xmlns="http://www.w3.org/2000/svg"><path d="M70.5 141c38.936 0 70.5-31.564 70.5-70.5S109.436 0 70.5 0 0 31.564 0 70.5 31.564 141 70.5 141z" fill="#F2F2F2"/><circle cx="70.5" cy="70.5" r="70.5" fill="url(#a)"/><mask id="b" style="mask-type:alpha" maskUnits="userSpaceOnUse" x="0" y="0" width="141" height="141"><circle cx="70.5" cy="70.5" r="70.5" fill="#C4C4C4"/></mask><g mask="url(#b)"><path d="M110.061 55.366V52.59s-.114-2.105-1.92-3.38c0 0-5.488-3.519-5.691-16.793 0 0-.409-18.448-21.884-18.448H70.561" stroke="#2C343F" stroke-width="3.17" stroke-linecap="round" stroke-linejoin="round"/><path d="M35.538 55.366V52.59s.115-2.105 1.921-3.38c0 0 5.487-3.519 5.692-16.793 0 0 .408-18.448 21.883-18.448H75.04" stroke="#2C343F" stroke-width="3.17" stroke-linecap="round" stroke-linejoin="round"/><path d="M96.18 53.588H56.245v47.148H96.18V53.588z" fill="#140600"/><path d="M97.058 96.166c-10.756-1.216-16.053-4.394-16.959-4.985H60.947c-.906.59-6.203 3.77-16.96 4.985 0 0-20.498.766-19.927 37.93 0 0 15.427 6.959 46.46 6.901 31.033.058 46.459-6.901 46.459-6.901.579-37.164-19.921-37.93-19.921-37.93z" fill="#F6C6AD"/><path d="M43.988 96.166s-20.5.766-19.925 37.93c0 0 15.427 6.959 46.46 6.901 31.033.058 46.459-6.901 46.459-6.901.576-37.164-19.927-37.93-19.927-37.93s-19.96-1.418-26.532 7.081c0 0-6.339-10.454-26.535-7.081z" fill="#fff"/><path d="M80.301 80.847H60.745v14.224H80.3V80.847z" fill="#F6C6AD"/><path d="M60.745 84.903c.216.254.433.506.666.746a21.544 21.544 0 0 0 1.931 1.794l.06.05a25.786 25.786 0 0 0 1.724 1.15c.52.307 1.05.61 1.592.875.174.069.688.28.842.334.528.178 1.054.357 1.592.497.537.14 1.106.28 1.667.396-.14-.028 1.479.242 1.09.209 1.317.16 2.643.233 3.969.22.561-.011 1.138-.02 1.705-.066.182-.014 1.03-.14 1.115-.14a17.05 17.05 0 0 0 1.604-.44v-9.682H60.744v4.012c.057.088.072.118 0 .045z" fill="#D9D9D9" style="mix-blend-mode:multiply"/><path d="M92.772 55.137c0 16.84-9.963 30.498-22.25 30.498-12.285 0-22.247-13.654-22.247-30.498s9.96-27.402 22.248-27.402c12.287 0 22.25 10.558 22.25 27.402z" fill="#F6C6AD"/><path d="M58.663 41.378c0-.041.016-.079.022-.117 3.143-3.692 7.48-5.747 12.27-5.747 9.599 0 17.381 8.246 17.381 21.407 0 8.77-3.459 16.428-8.606 20.564 0 0-29.09-3.466-21.067-36.107z" fill="#fff" style="mix-blend-mode:soft-light" opacity=".5"/><path d="M67.058 78.927c-7.578-4.77-11.714-12.888-12.762-21.61-.982-8.199 1.1-17.261 6.303-23.75a22.682 22.682 0 0 1 6.672-5.573c-10.746 1.697-18.996 11.809-18.996 27.143 0 16.84 9.963 30.498 22.248 30.498 3.568 0 6.942-1.153 9.931-3.2-4.655.156-9.32-.94-13.396-3.508z" fill="#ECECEC" style="mix-blend-mode:multiply"/><path d="M60.01 91.733c-2.076 1.13-7.222 3.44-16.022 4.433 0 0-20.499.766-19.927 37.93 0 0 15.426 6.959 46.459 6.901 31.033.058 46.459-6.901 46.459-6.901.576-37.164-19.927-37.93-19.927-37.93-8.801-.994-13.949-3.304-16.024-4.433 0 0 10.93 24.357-10.51 46.277.005 0-20.72-21.356-10.507-46.277z" fill="#0C3853"/><path d="M53.474 109.407a63.765 63.765 0 0 0 .27 1.277l.166-.073c-.15-.394-.296-.798-.436-1.204z" fill="#00B0C2"/><path d="M97.058 96.166c-8.802-.994-13.949-3.304-16.024-4.433 0 0 10.93 24.357-10.511 46.277 0 0-20.724-21.356-10.512-46.277-2.077 1.13-7.223 3.44-16.024 4.433 0 0-3.393 8.871 3.777 16.757 0 0 3.105-1.672 4.771-1.193l-5.939 4.36S48 132.994 66.393 140.997h9.318s15.95-7.764 18.727-28.313c0 0-1.485-1.675-6.064-3.105a14.392 14.392 0 0 1 6.064-.479s6.04-3.171 2.62-12.934z" fill="#0099AF"/><path d="M97.058 96.166c-8.802-.994-13.949-3.304-16.024-4.433 0 0 10.93 24.357-10.511 46.277 0 0-.202-.209-.553-.604-2.645.818-5.446-.675-7.592-2.105-2.502-1.661-4.955-3.584-6.976-5.819-2.02-2.236-4.21-5.027-4.65-8.117-.602-4.196.962-7.68 4.604-9.937a4.888 4.888 0 0 1 2.133-.702 37.295 37.295 0 0 1 2.526-18.998c-2.077 1.132-7.223 3.44-16.023 4.434 0 0-.048.127-.12.359 2.367-.22 4.68-.672 6.933.635 4.46 2.596 3.716 8.14.908 11.648-1.168 1.452-2.846 2.51-4.631 3.326.217.266.443.53.683.794 0 0 3.106-1.671 4.772-1.193l-5.94 4.36s1.404 16.905 19.797 24.908h9.318s15.95-7.765 18.727-28.314c0 0-1.484-1.675-6.063-3.105a14.425 14.425 0 0 1 6.063-.479s6.039-3.172 2.62-12.935z" fill="#ECECEC" style="mix-blend-mode:multiply"/><path d="M97.058 96.166a61.103 61.103 0 0 1-6.566-1.093 12.45 12.45 0 0 1 .794 3.67c.14 2.911-.81 6.158-3.03 8.173a13.391 13.391 0 0 1-4.522 2.681c-.009.14-.02.273-.03.411 8.347 8.841-1.716 26.729-12.642 27.443-.179.187-.355.375-.54.561l-.061-.066V141h5.255s15.95-7.764 18.728-28.313c0 0-1.485-1.676-6.064-3.106a14.408 14.408 0 0 1 6.064-.478s6.034-3.174 2.614-12.937z" fill="#ECECEC" style="mix-blend-mode:multiply"/><path d="M70.838 103.247h-.631v34.286h.632v-34.286z" fill="#C6C6C5"/><path d="M60.01 91.733s-8.906 3.21-4.602 14.261c0 0 1.005-11.714 15.24 1.315 0 0 .947-9.855-4.49-11.947.002 0-6.147-.927-6.147-3.63z" fill="#DDD"/><path d="M81.239 91.733s8.015 3.043 3.557 12.948c0 0-4.42-10.274-14.148 2.628 0 0-1.383-10.842 4.441-11.947 0 0 6.15-.927 6.15-3.63z" fill="#DDD"/><path d="M101.616 91.178s-.429-28.664-1.868-45.388v-.494c.14-5.29-2.09-11.682-4.49-15.407-1.757-2.72-3.781-5.296-6.175-7.486-8.358-7.624-27.42-8.078-32.82 3.742-5.084 3.588-25.302 21.576-1.36 67.889l5.858-2.34.334-8.937s-23.077-24.244-1.9-46.576l.07-.05a.38.38 0 0 1-.07.05c3.713-1.903 8.593-2.34 12.688-1.723 11.35 1.72 13.814 14.173 18.704 22.567.827 1.42 1.717 3.028 2.617 3.965.795 6.933 1.198 15.751.873 26.97 0 0 .351 13.444-9.602 24.557-.017-.003 22.03 7.324 17.141-21.339z" fill="#422918"/><path d="M59.249 36.13a12.49 12.49 0 0 1 1.164-.64c.399-.201.809-.373 1.223-.541.414-.168.842-.311 1.263-.462.42-.15.858-.25 1.29-.377.433-.128.878-.2 1.32-.29.442-.092.892-.131 1.34-.199.448-.067.902-.071 1.357-.112.226-.012.455-.028.682-.03l.683.023c.458.002.915.03 1.37.083l1.367.173c.45.092.895.21 1.344.317.45.102.893.239 1.322.41.43.164.88.293 1.297.49.416.196.823.4 1.245.618.413.206.81.444 1.188.712l1.158.766.053.035.072.077c.39.421.752.822 1.113 1.245.36.422.722.835 1.052 1.277.33.442.685.863 1.005 1.316l.964 1.349c.307.463.605.933.9 1.403.297.47.562.964.822 1.46.26.498.55.97.743 1.512.194.542.436 1.053.636 1.582l.576 1.44.627 1.486.636 1.484c.214.494.432.983.658 1.475l.676 1.467a44.386 44.386 0 0 0 1.483 2.867l.421.689.47.663c-.2-.18-.41-.362-.603-.56l-.561-.606a27.32 27.32 0 0 1-1.015-1.292 39.126 39.126 0 0 1-.933-1.353c-.305-.456-.6-.916-.876-1.386a67.228 67.228 0 0 1-1.623-2.848l-.754-1.452-.369-.731-.182-.368-.09-.187-.047-.092-.022-.047-.011-.022v-.011l-.027-.062c-.23-.464-.44-.934-.657-1.403-.19-.474-.505-.911-.756-1.366a15.431 15.431 0 0 0-.842-1.331l-.881-1.315-.935-1.277c-.311-.43-.66-.834-.982-1.25-.323-.417-.678-.82-1.012-1.233a32.62 32.62 0 0 0-1.033-1.194l.125.114-1.033-.702a7.538 7.538 0 0 0-1.06-.66c-.368-.192-.73-.398-1.097-.599-.366-.2-.766-.327-1.148-.495a7.96 7.96 0 0 0-1.175-.428l-1.205-.355-1.236-.256a10.997 10.997 0 0 0-1.253-.175l-.633-.072c-.21-.018-.421-.012-.636-.026-.42-.009-.851-.065-1.278-.035-.427.03-.858.014-1.285.046l-1.287.117c-.421.063-.858.113-1.286.186-.428.073-.857.149-1.281.253-.424.104-.85.199-1.273.316-.422.116-.85.245-1.268.39z" fill="#1F140D"/><path d="M55.373 28.96S30.909 47.03 57.46 93.007l3.284-1.312S33.797 56.686 55.373 28.96zm3.876-2.055a17.39 17.39 0 0 1 1.978-1.263 26.502 26.502 0 0 1 2.421-1.208c.477-.216.998-.421 1.544-.637a18.79 18.79 0 0 1 1.768-.584 56.52 56.52 0 0 1 1.964-.523c.343-.089.702-.14 1.058-.207.357-.066.725-.14 1.1-.174a22.664 22.664 0 0 1 4.772-.14l1.263.122 1.271.232c.43.077.856.178 1.275.304l.637.181.32.091.311.12 1.253.481c.421.166.81.39 1.216.59l.603.308c.2.107.385.237.577.357l1.146.73c1.436 1.094 2.807 2.281 3.907 3.656.28.34.561.672.842 1.01l.728 1.066c.235.356.49.701.702 1.06.212.357.406.729.605 1.09l.588 1.073.487 1.09c.309.723.654 1.41.873 2.125l.701 2.049c.187.67.345 1.326.508 1.95.163.622.338 1.212.421 1.796.083.583.195 1.122.281 1.634.086.513.187.983.231 1.439.045.456.086.858.124 1.229.079.741.114 1.326.149 1.722.035.396.042.609.042.609l-.204-.578c-.123-.378-.322-.93-.541-1.634-.114-.352-.236-.74-.372-1.164-.136-.424-.312-.868-.484-1.35-.355-.96-.713-2.052-1.209-3.199-.238-.576-.474-1.178-.74-1.793l-.886-1.866c-.28-.649-.654-1.263-1.005-1.916l-.533-.982c-.2-.313-.406-.629-.612-.949-.206-.32-.41-.641-.617-.965-.208-.325-.46-.616-.687-.928l-.701-.929-.775-.874c-1.02-1.192-2.224-2.21-3.473-3.15l-.982-.64c-.166-.102-.322-.22-.494-.312l-.517-.268-.516-.271a4.967 4.967 0 0 0-.518-.261c-.358-.149-.714-.298-1.068-.449-1.444-.522-2.917-.949-4.4-1.134a24.444 24.444 0 0 0-4.326-.229 31.06 31.06 0 0 0-3.939.361c-1.987.314-3.95.768-5.873 1.358-.701.228-1.263.399-1.627.537l-.567.207z" fill="#C6C6C5" style="mix-blend-mode:multiply"/><path d="M58.227 30.997a15.432 15.432 0 0 1 1.838-1.263 25.385 25.385 0 0 1 2.27-1.223 24.715 24.715 0 0 1 3.136-1.226 21.47 21.47 0 0 1 3.94-.861 18.171 18.171 0 0 1 4.577-.027c1.656.18 3.274.614 4.797 1.289l.591.25c.192.095.378.201.562.304.374.206.759.405 1.122.631.702.501 1.444.953 2.073 1.544.323.28.655.561.964.856l.877.932.436.466c.14.158.26.33.39.496l.763 1c.25.328.482.671.693 1.027l.644 1.041.16.258.14.266.281.531.532 1.057c.175.344.332.697.471 1.057.14.353.281.701.421 1.048.14.347.281.686.399 1.031l.325 1.025.31.995c.1.327.21.647.28.972l.432 1.861.195.876c.05.289.094.57.14.842l.24 1.56c.166.971.214 1.837.281 2.544.067.708.084 1.263.112 1.64.028.376.03.58.03.58l-.184-.555c-.112-.36-.293-.889-.491-1.563a41.196 41.196 0 0 0-.766-2.41l-.501-1.47a58.04 58.04 0 0 0-.26-.795c-.102-.265-.206-.539-.314-.815-.21-.556-.426-1.134-.65-1.733-.222-.598-.51-1.19-.77-1.81l-.403-.942c-.133-.319-.308-.62-.462-.936a76.667 76.667 0 0 0-.476-.952 9.012 9.012 0 0 0-.508-.953 53.707 53.707 0 0 0-.561-.943l-.28-.477-.141-.24-.145-.224-.634-.914a9.637 9.637 0 0 0-.65-.908c-.235-.289-.472-.578-.703-.87-.119-.14-.233-.294-.356-.432l-.389-.403-.776-.81c-.27-.256-.561-.485-.842-.732-.537-.522-1.173-.902-1.764-1.344-.31-.194-.634-.367-.947-.562-.159-.09-.314-.19-.474-.28l-.496-.226c-.334-.14-.65-.32-.993-.438l-1.022-.36c-.337-.121-.689-.187-1.03-.281l-.513-.14-.518-.092c-.347-.053-.686-.14-1.032-.167-.345-.027-.689-.072-1.028-.108-.34-.037-.678-.027-1.013-.042a11.857 11.857 0 0 0-.998 0 24.21 24.21 0 0 0-3.723.353 31.054 31.054 0 0 0-3.142.68c-.93.252-1.742.5-2.403.727-.66.227-1.181.42-1.53.561l-.534.227z" fill="#C6C6C5" style="mix-blend-mode:multiply"/><path d="M111.365 56.28a1.918 1.918 0 0 1-1.923 1.906 1.915 1.915 0 0 1-1.919-1.91 1.916 1.916 0 0 1 1.186-1.766c.233-.095.482-.144.733-.143a1.918 1.918 0 0 1 1.923 1.908v.006z" fill="#8E2015"/><path d="M94.162 50.788a4.895 4.895 0 0 1 4.911-4.882 4.893 4.893 0 0 1 4.912 4.882v10.985a4.897 4.897 0 0 1-4.912 4.882 4.895 4.895 0 0 1-4.911-4.882V50.788z" fill="#464F5B"/><path d="M100.077 51.05c2.123 2.623 2.41 5.67 1.806 8.89-.511 2.76-2.574 5.544-5.452 5.946a4.911 4.911 0 0 0 7.548-4.113V50.788a4.912 4.912 0 0 0-9.516-1.671c2.074-.256 4.243.229 5.614 1.934z" fill="#C6C6C5" style="mix-blend-mode:multiply"/><path d="M95.899 50.788a.512.512 0 0 1 1.022 0v12.41a.508.508 0 0 1-.707.47.509.509 0 0 1-.315-.47v-12.41z" fill="#fff" style="mix-blend-mode:soft-light" opacity=".5"/><path d="M103.317 48.8v14.962a7.756 7.756 0 0 0 5.717-7.481 7.754 7.754 0 0 0-5.717-7.481z" fill="#D32A26"/><path d="M106.713 59.14c-2.501-1.603-3.141-3.867-3.396-6.596v11.212a7.81 7.81 0 0 0 4.873-3.98 5.182 5.182 0 0 1-1.477-.637z" fill="#D9D9D9" style="mix-blend-mode:multiply"/><path d="M105.753 60.349S108.575 86 81.585 85.27" stroke="#2C343F" stroke-width="3.62" stroke-linecap="round" stroke-linejoin="round"/><path d="M82.558 85.371a2.245 2.245 0 0 1-2.246 2.239h-3.024a2.245 2.245 0 0 1-2.245-2.239 2.245 2.245 0 0 1 2.245-2.245h3.02a2.246 2.246 0 0 1 2.245 2.245h.005z" fill="#232A33"/><path d="M34.236 56.28a1.917 1.917 0 0 0 1.921 1.906 1.917 1.917 0 0 0 1.925-1.905 1.916 1.916 0 0 0-1.92-1.909 1.916 1.916 0 0 0-1.922 1.909h-.004z" fill="#8E2015"/><path d="M51.44 50.788a4.895 4.895 0 0 0-4.912-4.882 4.895 4.895 0 0 0-4.912 4.882v10.985a4.893 4.893 0 0 0 4.912 4.882 4.895 4.895 0 0 0 4.911-4.882V50.788z" fill="#464F5B"/><path d="M45.52 51.05c-2.122 2.623-2.41 5.67-1.805 8.89.52 2.76 2.577 5.544 5.454 5.946a4.911 4.911 0 0 1-7.549-4.113V50.788a4.912 4.912 0 0 1 9.513-1.671c-2.071-.256-4.232.229-5.613 1.934z" fill="#C6C6C5" style="mix-blend-mode:multiply"/><path d="M49.7 50.788a.51.51 0 0 0-.706-.47.508.508 0 0 0-.317.47v12.41a.509.509 0 0 0 .513.508.507.507 0 0 0 .51-.508v-12.41z" fill="#fff" style="mix-blend-mode:soft-light" opacity=".5"/><path d="M42.284 48.8v14.962a7.754 7.754 0 0 1 0-14.962z" fill="#D32A26"/><path d="M38.888 59.14c2.5-1.603 3.14-3.867 3.396-6.596v11.212a7.812 7.812 0 0 1-4.874-3.98 5.18 5.18 0 0 0 1.478-.637z" fill="#D9D9D9" style="mix-blend-mode:multiply"/><path d="M78.148 57.594c1.74-2.28 4.519-2.694 6.757-1.658.456.207.622.538.456.954-.165.415-.538.58-1.037.373-.538-.208-.995-.456-1.534-.664-1.2-.42-2.363-.207-3.481.332-.4.196-.788.418-1.16.663zm-18.073-.746c-.456 0-.87.165-1.285.332-.083 0-.124 0-.124.083-.083.04-.165.04-.25.083a.226.226 0 0 0-.206.123c-.25.042-.42.208-.622.29-.58.126-1.037-.165-1.037-.746.039-.131.094-.256.166-.373a.34.34 0 0 0 .208-.206c1.865-.83 3.689-.83 5.473.248.456.248.787.622 1.16.953.042.456-.208-.083-.248.083a1.081 1.081 0 0 0-.373-.207.23.23 0 0 0-.208-.124.594.594 0 0 0-.414-.124.192.192 0 0 0-.208-.125.95.95 0 0 0-.331-.083c-.04-.124-.125-.124-.208-.082a2.346 2.346 0 0 0-.745-.125.798.798 0 0 0-.748 0zm-3.441-4.394c.331-.29.747-.414 1.16-.539 1.535-.497 3.11-.747 4.685-.414.56.11 1.103.29 1.617.539.248.123.42.787.248 1.035-.166.208-.372.166-.58.043a8.253 8.253 0 0 0-2.947-.995 8.98 8.98 0 0 0-3.483.206c-.202.042-.492 0-.7.125zm27.028-1.036c.04 0 .123.04.165.04.083.166.29.126.415.25-.041.166-.208.041-.291.124-.083 0-.206-.042-.29-.042-.083-.123-.166-.123-.29-.04-.621-.166-1.285-.126-1.907-.083-.042-.043-.042-.043-.082 0a2.225 2.225 0 0 0-.54.04c-.082-.04-.124-.04-.165.042-.25.041-.456.083-.702.125a.28.28 0 0 0-.33.124c-.07.01-.14.024-.207.042a.174.174 0 0 0-.25.123 3.21 3.21 0 0 0-1.078.499c-.248.123-.496.289-.701-.042-.166-.291-.04-.87.248-.995.83-.414 1.742-.58 2.654-.663a.372.372 0 0 0 .207-.042c1.063.051 2.117.218 3.144.498z" fill="#353435"/><path d="M71.231 76.43a10.97 10.97 0 0 1-3.27-.445c-1.064-.322-1.964-.788-2.63-1.45a.863.863 0 0 1-.068-.074c-.063-.07-.038-.132.055-.181a.244.244 0 0 1 .26.01c.647.405 1.422.632 2.245.798 1.44.274 2.908.363 4.37.267.684-.042 1.365-.12 2.04-.236.88-.14 1.712-.388 2.404-.807a.271.271 0 0 1 .295-.028c.098.057.106.122.014.219a5.219 5.219 0 0 1-1.585 1.085 8.85 8.85 0 0 1-2.002.634c-.7.14-1.413.21-2.127.208zm.782-14.631s-.024 3.18.622 4.979c.207.566-1-1.363-.622-4.98zm-1.831 7.528s1.191.828 2.478 0c0 0-1.264 1.426-2.478 0zm2.478 0s.432-1.19 1.137-.742c.704.448-.513.456-1.137.742zm-2.478 0s-.432-1.19-1.137-.742c-.704.448.512.456 1.137.742z" fill="#000"/></g><rect x="90.701" y="58.88" width="39.267" height="22.983" rx="11.491" fill="#fff"/><circle cx="99.132" cy="70.892" r="3.58" fill="#DCDCDC"/><circle cx="110.335" cy="70.892" fill="#DCDCDC" r="3.58"/><circle cx="121.537" cy="70.892" fill="#DCDCDC" r="3.58"/><path d="m89.43 88.908 4.447-7.045h10.856L89.43 88.908z" fill="#fff"/><defs><radialGradient id="a" cx="0" cy="0" r="1" gradientUnits="userSpaceOnUse" gradientTransform="matrix(-1.37076 -99.54866 84.68397 -1.16608 67.824 141)"><stop stop-color="#7461A6"/><stop offset="1" stop-color="#5CB3E4"/></radialGradient></defs></svg>