<?xml version="1.0" encoding="utf-8"?>
<!-- Generator: Adobe Illustrator 25.3.1, SVG Export Plug-In . SVG Version: 6.00 Build 0)  -->
<svg version="1.1" id="Layer_1" xmlns="http://www.w3.org/2000/svg" xmlns:xlink="http://www.w3.org/1999/xlink" x="0px" y="0px"
	 viewBox="0 0 200 200" style="enable-background:new 0 0 200 200;" xml:space="preserve">
<style type="text/css">
	.st0{fill:url(#SVGID_1_);}
</style>
<linearGradient id="SVGID_1_" gradientUnits="userSpaceOnUse" x1="34.4405" y1="101.0486" x2="165.5593" y2="101.0486">
	<stop  offset="0" style="stop-color:#5AB6E7"/>
	<stop  offset="1" style="stop-color:#8560CD"/>
</linearGradient>
<path class="st0" d="M97.3,47.7c0-2.2,0-4.5,0-6.7l0-0.3c0-0.4,0-0.9,0-1.3c0-1,0-2,0-3.1c0-0.2,0-0.5,0-0.7c0,0,0-0.1,0-0.1
	c0-1.2,0.7-2.2,1.9-2.6c0.2-0.1,0.5-0.1,0.8-0.1c0.3,0,0.6,0.1,0.9,0.2h0c0,0,0,0,0,0c0.5,0.2,0.9,0.5,1.2,0.9
	c0.3,0.4,0.5,1,0.6,1.6c0,0.2,0,0.5,0,0.7c0,2.2,0,4.5,0,6.7l0,0.3c0,0.4,0,0.9,0,1.3c0,1,0,2,0,3.1c0,0.2,0,0.5,0,0.7
	c0,0,0,0.1,0,0.1c0,1.2-0.7,2.2-1.9,2.6c-0.2,0.1-0.5,0.1-0.8,0.1c-0.3,0-0.6-0.1-0.9-0.2h0c0,0,0,0,0,0c-0.5-0.2-0.9-0.5-1.2-0.9
	c-0.3-0.4-0.5-1-0.6-1.6C97.3,48.2,97.3,48,97.3,47.7z M65.8,65.4c1-0.5,1.4-1.3,1.4-2.6c0-0.5-0.4-1.2-1.1-2
	c-2.5-2.5-5-5.1-7.6-7.6l-0.2-0.2c-0.4-0.4-0.9-0.9-1.3-1.2c-0.5-0.3-1-0.5-1.5-0.5c-1.2,0-2.3,0.9-2.6,2.1c-0.2,1,0,1.8,0.8,2.5
	c2.2,2.2,4.4,4.4,6.5,6.6l2.4,2.4c0.1,0.1,0.2,0.2,0.4,0.3c0.5,0.4,1,0.5,1.5,0.5C65,65.8,65.4,65.7,65.8,65.4z M49.9,95.9
	c-2.1,0-4.2,0-6.3,0c-2.1,0-4.3,0-6.4,0c-0.8,0-1.5,0.3-2,0.8c-0.5,0.5-0.7,1.2-0.7,2c0,1.5,1.1,2.5,2.8,2.5c0.8,0,1.6,0,2.3,0
	c0,0,9.5,0,10.1,0c1.7,0,2.8-1,2.9-2.5c0-0.7-0.2-1.4-0.7-1.9C51.4,96.2,50.7,95.9,49.9,95.9z M112.5,163l-24.6,0l-0.5,0.1l-0.1,0.5
	c0,0.1,0,0.2,0,0.3c0,1.5,0.6,2.9,1.6,3.9c1,1,2.5,1.5,4.2,1.5l6.7,0l7,0c3.4,0,5.9-2.2,5.9-5.3c0-0.1,0-0.3,0-0.5L112.5,163z
	 M145.4,51.5c-0.3-0.1-0.6-0.2-0.9-0.2c-0.7,0-1.4,0.3-2,0.9c-2.9,2.9-5.8,5.8-8.8,8.7c-0.7,0.7-1,1.3-0.9,1.7
	c0,1.5,0.5,2.3,1.5,2.8c0.4,0.2,0.8,0.3,1.2,0.3c0.6,0,1.2-0.3,1.8-0.8c3-3,6.1-6,9.1-9.1c0.7-0.7,0.9-1.4,0.8-2.2
	C147,52.6,146.4,51.9,145.4,51.5z M164.8,96.6c-0.5-0.5-1.1-0.8-2-0.8c-2.1,0-4.2,0-6.4,0c-2.1,0-4.3,0-6.4,0
	c-1.6,0-2.7,1.2-2.7,2.7c0,1.5,1.2,2.6,2.8,2.6c0.8,0,1.6,0,2.5,0h7.7c0.8,0,1.6,0,2.4,0c1.6,0,2.7-1,2.8-2.5
	C165.6,97.8,165.3,97.1,164.8,96.6z M135.5,96c0.7,9.7-2.2,18.2-8.8,26.1l-1.4,1.6c-2.6,3-5.2,6.1-7.3,9.7c-1.8,3.1-2.6,5.9-2.4,8.9
	c0,0.9,0,2,0,3.3c-0.1,2.5-1.4,3.8-4,3.8c-1.6,0-3.1,0-4.7,0l-14.1,0c-1.5,0-3.1,0-4.6,0c-1.3,0-2.4-0.4-3-1.1
	c-0.6-0.6-0.8-1.5-0.7-2.6c0.5-6.7-1.7-12.8-6.8-18.6l-1.2-1.4c-2.5-2.8-5.1-5.8-7-9c-3.8-6.5-5.5-13.4-4.9-20.5
	c1-12.7,7.1-22.4,18.3-28.9c4.6-2.7,9.7-4.1,15.2-4.3c0.6,0,1.1,0,1.7,0c11.9,0,21.7,4.9,29,14.7C132.7,82.9,135,89,135.5,96z
	 M128.2,92.3c-3-13.6-14.3-22.7-28.1-22.7c-1.6,0-3.2,0.1-4.7,0.4c-8.4,1.3-15.8,6.3-20.2,13.6c-4.5,7.5-5.3,16.5-2.3,24.9
	c1.7,4.7,4.8,8.3,7.7,11.8c4.7,5.5,9.9,11.7,10.3,20c0.1,1.2,0.8,2.5,2.8,2.5c1,0,1.9,0,2.7,0h1l2-18l-8.2-5.1
	c-0.9-0.5-1.4-1.5-1.4-2.5s0.5-1.9,1.4-2.5l5.8-3.6l-5.8-3.6c-0.9-0.5-1.4-1.5-1.4-2.5c0-1,0.5-1.9,1.4-2.5l9.7-6.1
	c0.5-0.3,1-0.4,1.5-0.4c1,0,1.9,0.5,2.5,1.4c0.8,1.4,0.4,3.1-0.9,4l-5.8,3.6l5.8,3.6c0.9,0.5,1.4,1.4,1.4,2.5c0,1-0.5,1.9-1.4,2.5
	l-5.8,3.6l5.8,3.6c0.2,0.2,0.3,0.2,0.4,0.3c0.1,0.1,0.1,0.1,0.2,0.2c0.1,0.1,0.1,0.1,0.2,0.2c0.1,0.1,0.1,0.2,0.2,0.2l0.1,0.3
	c0,0.1,0.1,0.1,0.1,0.2c0,0.1,0.1,0.2,0.1,0.3l0.1,0.3l0,0.3l0,0.5l-2.1,19.2h1.3c3.5,0,4.2-0.6,4.6-4c0-0.2,0-0.3,0.1-0.5
	c0.7-3.8,2.4-7.4,5.3-11.5c1.7-2.3,3.5-4.6,5.3-6.7c0.9-1.1,1.8-2.2,2.7-3.3C128.3,109.5,130.2,101.3,128.2,92.3z M115,153.3
	l-29.5,0l-0.5,0.1l-0.1,0.5c0,0.1,0,0.2,0,0.3c0,1.5,0.6,2.9,1.6,3.9c1,1,2.5,1.5,4.2,1.5l9.1,0l9.5,0c3.4,0,5.9-2.2,5.9-5.3
	c0-0.1,0-0.3,0-0.5L115,153.3z"/>
</svg>
