<svg width="141" height="141" viewBox="0 0 141 141" fill="none" xmlns="http://www.w3.org/2000/svg">
<path d="M70.5 141C109.436 141 141 109.436 141 70.5C141 31.5639 109.436 0 70.5 0C31.5639 0 0 31.5639 0 70.5C0 109.436 31.5639 141 70.5 141Z" fill="#F2F2F2"/>
<circle cx="70.5" cy="70.5" r="70.5" fill="url(#paint0_radial_1_16)"/>
<mask id="mask0_1_16" style="mask-type:alpha" maskUnits="userSpaceOnUse" x="0" y="0" width="141" height="141">
<circle cx="70.5" cy="70.5" r="70.5" fill="#C4C4C4"/>
</mask>
<g mask="url(#mask0_1_16)">
<path d="M110.061 55.3658V52.59C110.061 52.59 109.947 50.485 108.141 49.2108C108.141 49.2108 102.653 45.6913 102.45 32.4174C102.45 32.4174 102.041 13.9695 80.5663 13.9695H70.5607" stroke="#2C343F" stroke-width="3.17" stroke-linecap="round" stroke-linejoin="round"/>
<path d="M35.5382 55.3658V52.59C35.5382 52.59 35.6533 50.485 37.4593 49.2108C37.4593 49.2108 42.9463 45.6913 43.1512 32.4174C43.1512 32.4174 43.5595 13.9695 65.0344 13.9695H75.0386" stroke="#2C343F" stroke-width="3.17" stroke-linecap="round" stroke-linejoin="round"/>
<path d="M96.1795 53.5878H56.2455V100.736H96.1795V53.5878Z" fill="#140600"/>
<path d="M97.058 96.1656C86.3016 94.9503 81.0055 91.7718 80.099 91.181H60.9466C60.0414 91.7718 54.7439 94.9503 43.9876 96.1656C43.9876 96.1656 23.4894 96.9318 24.0605 134.096C24.0605 134.096 39.4872 141.055 70.52 140.997C101.553 141.055 116.979 134.096 116.979 134.096C117.558 96.9318 97.058 96.1656 97.058 96.1656Z" fill="#F6C6AD"/>
<path d="M43.9876 96.1656C43.9876 96.1656 23.488 96.9318 24.0633 134.096C24.0633 134.096 39.4899 141.055 70.5228 140.997C101.556 141.055 116.982 134.096 116.982 134.096C117.558 96.9318 97.0552 96.1656 97.0552 96.1656C97.0552 96.1656 77.0945 94.7483 70.5228 103.247C70.5228 103.247 64.184 92.7935 43.9876 96.1656Z" fill="white"/>
<path d="M80.301 80.847H60.7445V95.071H80.301V80.847Z" fill="#F6C6AD"/>
<g style="mix-blend-mode:multiply">
<path d="M60.7445 84.9027C60.9606 85.1567 61.1781 85.4093 61.4111 85.6492C62.0175 86.2859 62.6624 86.8848 63.342 87.4427L63.4024 87.4932C63.6227 87.6532 63.8444 87.8103 64.0718 87.9647C64.4184 88.1976 64.7664 88.4292 65.1256 88.6425C65.6463 88.9498 66.1753 89.2529 66.7184 89.5182C66.8924 89.5869 67.406 89.7988 67.5604 89.8521C68.088 90.0304 68.6143 90.2086 69.1517 90.3489C69.6892 90.4892 70.2576 90.6296 70.8189 90.7446C70.6785 90.7166 72.298 90.9874 71.9092 90.9537C73.2259 91.1135 74.5516 91.1871 75.8778 91.1741C76.4391 91.1628 77.0159 91.1544 77.5828 91.1081C77.7653 91.0941 78.6129 90.9678 78.6985 90.9678C79.2401 90.8499 79.7748 90.6983 80.3024 90.5285V80.8457H60.7445V84.8578C60.8006 84.9462 60.8161 84.9756 60.7445 84.9027Z" fill="#D9D9D9"/>
</g>
<path d="M92.7723 55.137C92.7723 71.9767 82.8088 85.6351 70.5228 85.6351C58.2368 85.6351 48.2747 71.9809 48.2747 55.137C48.2747 38.293 58.2354 27.7345 70.5228 27.7345C82.8102 27.7345 92.7723 38.293 92.7723 55.137Z" fill="#F6C6AD"/>
<g style="mix-blend-mode:soft-light" opacity="0.5">
<path d="M58.6634 41.3776C58.6634 41.3369 58.6788 41.299 58.6845 41.2611C61.8279 37.569 66.1655 35.5145 70.955 35.5145C80.5537 35.5145 88.3364 43.7604 88.3364 56.9207C88.3364 65.6914 84.8773 73.3492 79.7299 77.4848C79.7299 77.4848 50.6393 74.0186 58.6634 41.3776Z" fill="white"/>
</g>
<g style="mix-blend-mode:multiply">
<path d="M67.058 78.9273C59.4801 74.1561 55.3445 66.0393 54.2963 57.3163C53.314 49.1182 55.3965 40.0556 60.5985 33.5667C62.4427 31.2963 64.7085 29.404 67.2713 27.9941C56.5247 29.6907 48.2747 39.803 48.2747 55.137C48.2747 71.9767 58.2382 85.6352 70.5228 85.6352C74.0914 85.6352 77.4649 84.4816 80.454 82.4342C75.7992 82.5914 71.1332 81.4954 67.058 78.9273Z" fill="#ECECEC"/>
</g>
<path d="M60.0106 91.7325C57.9337 92.8636 52.7877 95.1721 43.9876 96.1656C43.9876 96.1656 23.4894 96.9318 24.0605 134.096C24.0605 134.096 39.4872 141.055 70.52 140.997C101.553 141.055 116.979 134.096 116.979 134.096C117.555 96.9318 97.0524 96.1656 97.0524 96.1656C88.2508 95.1721 83.1035 92.8622 81.028 91.7325C81.028 91.7325 91.9584 116.09 70.5172 138.01C70.5228 138.01 49.7987 116.654 60.0106 91.7325Z" fill="#0C3853"/>
<path d="M53.4739 109.407C53.4824 109.455 53.4908 109.501 53.5006 109.548C53.5778 109.926 53.6592 110.307 53.7434 110.684L53.9104 110.611C53.7602 110.217 53.6143 109.813 53.4739 109.407Z" fill="#00B0C2"/>
<path d="M97.058 96.1657C88.2564 95.1722 83.1091 92.8623 81.0336 91.7327C81.0336 91.7327 91.964 116.09 70.5228 138.01C70.5228 138.01 49.7987 116.654 60.0106 91.7327C57.9337 92.8637 52.7877 95.1722 43.9875 96.1657C43.9875 96.1657 40.5943 105.037 47.7639 112.923C47.7639 112.923 50.8694 111.251 52.5351 111.73L46.5963 116.09C46.5963 116.09 47.9996 132.994 66.3928 140.997H75.7108C75.7108 140.997 91.6608 133.233 94.438 112.684C94.438 112.684 92.9533 111.009 88.3743 109.579C90.3384 108.989 92.4057 108.826 94.438 109.1C94.438 109.1 100.478 105.929 97.058 96.1657Z" fill="#0099AF"/>
<g style="mix-blend-mode:multiply">
<path d="M97.0581 96.1657C88.2565 95.1721 83.1091 92.8623 81.0336 91.7326C81.0336 91.7326 91.964 116.09 70.5228 138.01C70.5228 138.01 70.3208 137.801 69.9699 137.406C67.3247 138.224 64.5237 136.731 62.378 135.301C59.8759 133.64 57.4229 131.717 55.4022 129.482C53.3814 127.246 51.1922 124.455 50.7516 121.365C50.1496 117.169 51.7143 113.685 55.3559 111.428C56.0026 111.032 56.733 110.791 57.4889 110.726C56.6616 104.282 57.5324 97.7329 60.0148 91.7284C57.9379 92.8595 52.792 95.1679 43.9918 96.1615C43.9918 96.1615 43.9441 96.2892 43.8726 96.5207C46.2385 96.3018 48.5526 95.8485 50.8049 97.1564C55.2646 99.7525 54.5209 105.296 51.7129 108.804C50.5453 110.256 48.8669 111.314 47.0819 112.13C47.2994 112.396 47.5254 112.66 47.7653 112.924C47.7653 112.924 50.8709 111.253 52.5366 111.731L46.5978 116.091C46.5978 116.091 48.0011 132.996 66.3943 140.999H75.7123C75.7123 140.999 91.6623 133.234 94.4395 112.685C94.4395 112.685 92.9548 111.01 88.3758 109.58C90.3399 108.991 92.4072 108.828 94.4395 109.101C94.4395 109.101 100.478 105.929 97.0581 96.1657Z" fill="#ECECEC"/>
</g>
<g style="mix-blend-mode:multiply">
<path d="M97.058 96.1657C94.851 95.9209 92.6591 95.5559 90.4919 95.0725C90.9406 96.2486 91.2084 97.4858 91.2861 98.7422C91.4265 101.654 90.4764 104.901 88.2564 106.916C86.9405 108.1 85.4033 109.011 83.7335 109.597C83.7251 109.737 83.7139 109.87 83.704 110.008C92.0509 118.849 81.9878 136.737 71.0616 137.451C70.8834 137.638 70.7066 137.826 70.5227 138.012L70.461 137.946V141H75.7164C75.7164 141 91.6664 133.236 94.4436 112.687C94.4436 112.687 92.9589 111.011 88.3799 109.581C90.344 108.992 92.4113 108.829 94.4436 109.103C94.4436 109.103 100.478 105.929 97.058 96.1657Z" fill="#ECECEC"/>
</g>
<path d="M70.8385 103.247H70.207V137.533H70.8385V103.247Z" fill="#C6C6C5"/>
<path d="M60.0106 91.7325C60.0106 91.7325 51.1038 94.9433 55.4077 105.994C55.4077 105.994 56.4125 94.2796 70.6477 107.309C70.6477 107.309 71.5949 97.4538 66.1571 95.3615C66.1599 95.3615 60.0106 94.4353 60.0106 91.7325Z" fill="#DDDDDD"/>
<path d="M81.2385 91.7325C81.2385 91.7325 89.2542 94.7763 84.7959 104.681C84.7959 104.681 80.3754 94.4073 70.6477 107.309C70.6477 107.309 69.2654 96.4673 75.0892 95.3615C75.0892 95.3615 81.2385 94.4353 81.2385 91.7325Z" fill="#DDDDDD"/>
<path d="M101.616 91.1783C101.616 91.1783 101.187 62.5142 99.7481 45.7896C99.7481 45.7896 99.7481 45.6114 99.7481 45.2956C99.8885 40.0051 97.6586 33.6144 95.2575 29.8887C93.5006 27.169 91.477 24.5926 89.083 22.4034C80.7248 14.7792 61.6637 14.3245 56.2623 26.1446C51.1795 29.7329 30.9606 47.7205 54.9039 94.034L60.7613 91.6947L61.0953 82.757C61.0953 82.757 38.0179 58.5134 59.1952 36.1811L59.2654 36.1306C59.244 36.15 59.2205 36.167 59.1952 36.1811C62.9084 34.2782 67.7877 33.8404 71.8826 34.4578C83.2326 36.1783 85.6968 48.6313 90.5873 57.0245C91.4139 58.4446 92.3036 60.0528 93.2045 60.9902C93.9988 67.9226 94.4015 76.741 94.0774 87.9591C94.0774 87.9591 94.4282 101.404 84.4745 112.517C84.4577 112.514 106.505 119.841 101.616 91.1783Z" fill="#422918"/>
<path d="M59.2486 36.1306C59.6252 35.8963 60.014 35.6822 60.4133 35.4893C60.8119 35.2886 61.2217 35.1174 61.6356 34.949C62.0496 34.7806 62.4776 34.6375 62.8986 34.4873C63.3196 34.3372 63.7574 34.2375 64.1897 34.1098C64.6219 33.9821 65.0667 33.9106 65.5088 33.8193C65.9508 33.7281 66.4013 33.6888 66.8489 33.6215C67.2966 33.5541 67.7513 33.5499 68.2059 33.5092C68.4319 33.4966 68.6606 33.4811 68.8879 33.4797L69.5714 33.5022C70.0291 33.5039 70.4864 33.5315 70.941 33.585L72.3078 33.7576C72.7583 33.8502 73.2031 33.9681 73.6522 34.0747C74.1027 34.177 74.5447 34.314 74.9741 34.4845C75.4049 34.6487 75.854 34.7778 76.2708 34.9743C76.6875 35.1707 77.0945 35.3756 77.5155 35.5931C77.9294 35.7994 78.3268 36.0372 78.7041 36.3046L79.8618 37.0708L79.9152 37.1059L79.9867 37.1831C80.3769 37.6041 80.7389 38.0054 81.0996 38.4278C81.4602 38.8502 81.8223 39.2628 82.152 39.7048C82.4818 40.1469 82.8369 40.5679 83.1568 41.0211L84.1209 42.3697C84.4282 42.8328 84.7257 43.3029 85.0218 43.773C85.3179 44.2431 85.5831 44.7371 85.8428 45.2339C86.1024 45.7306 86.3929 46.2036 86.5865 46.7452C86.7802 47.2869 87.0215 47.7977 87.2222 48.3268L87.7976 49.7666L88.4248 51.2527L89.0605 52.7374C89.2753 53.2313 89.4928 53.7197 89.7187 54.2123L90.3951 55.6787C90.6252 56.1643 90.8638 56.6484 91.1108 57.1241C91.3578 57.5999 91.6118 58.077 91.8784 58.5457L92.2994 59.2347L92.7695 59.8985C92.5688 59.7175 92.3597 59.5364 92.1661 59.3372L91.6048 58.7323C91.2567 58.3113 90.9129 57.8819 90.5902 57.4399C90.2674 56.9978 89.9615 56.5432 89.657 56.0871C89.3524 55.631 89.0577 55.1707 88.7813 54.7006C88.22 53.7604 87.6713 52.8174 87.1577 51.8533L86.4041 50.4009L86.035 49.6697L85.8526 49.3021L85.7628 49.1154L85.7165 49.0228L85.694 48.9765L85.6828 48.9541V48.9428L85.6561 48.8811C85.426 48.4166 85.2169 47.9465 84.9994 47.4778C84.8085 47.0035 84.4942 46.567 84.243 46.1123C83.9852 45.6544 83.7042 45.2099 83.401 44.7806L82.5197 43.4657L81.5851 42.1887C81.2736 41.7593 80.9255 41.3551 80.6028 40.9383C80.28 40.5216 79.925 40.1188 79.591 39.7062C79.257 39.2937 78.8978 38.8923 78.5582 38.512L78.6831 38.6257L77.6502 37.924C77.3154 37.6752 76.9606 37.4546 76.5893 37.2645C76.2217 37.0722 75.8596 36.8659 75.4933 36.6653C75.1271 36.4646 74.7271 36.3383 74.3454 36.1699C73.9653 35.9966 73.5721 35.8535 73.1695 35.7419L71.9654 35.3868L70.7291 35.1314C70.3151 35.0489 69.8967 34.9904 69.4759 34.956L68.843 34.8845C68.6325 34.8662 68.422 34.8718 68.2073 34.8578C67.7863 34.8494 67.3555 34.7932 66.9289 34.8227C66.5023 34.8522 66.0715 34.8367 65.6435 34.869L64.3567 34.9855C63.9357 35.0486 63.4992 35.0992 63.0712 35.1721C62.6432 35.2451 62.2138 35.3209 61.79 35.4247C61.3662 35.5286 60.9396 35.624 60.5172 35.7405C60.0948 35.8569 59.6668 35.986 59.2486 36.1306Z" fill="#1F140D"/>
<g style="mix-blend-mode:multiply">
<path d="M55.3726 28.9596C55.3726 28.9596 30.9087 47.0314 57.4607 93.0067L60.7445 91.6946C60.7445 91.6946 33.7981 56.6862 55.3726 28.9596Z" fill="#C6C6C5"/>
</g>
<g style="mix-blend-mode:multiply">
<g style="mix-blend-mode:multiply">
<path d="M59.2486 26.9052C59.8789 26.4401 60.54 26.0181 61.2273 25.6422C62.0131 25.1985 62.821 24.7952 63.648 24.4339C64.1251 24.2178 64.6457 24.0129 65.1916 23.7968C65.7375 23.5807 66.3325 23.3913 66.9598 23.2131C67.5871 23.0348 68.2396 22.858 68.9244 22.6896C69.2668 22.6012 69.6261 22.5493 69.9825 22.4833C70.339 22.4174 70.7066 22.343 71.0827 22.3093C72.6638 22.0947 74.263 22.0477 75.854 22.169L77.1169 22.2911L78.3883 22.5226C78.8186 22.5997 79.244 22.7013 79.6626 22.8271L80.2997 23.0082L80.6196 23.0994L80.9312 23.2187L82.1843 23.7C82.6053 23.8656 82.994 24.0901 83.3996 24.2894L84.003 24.5981C84.2023 24.7048 84.3875 24.8353 84.5798 24.9546L85.7263 25.6843C87.1618 26.7789 88.5329 27.9661 89.6331 29.3413C89.9137 29.6809 90.1944 30.0135 90.4751 30.3503L91.2034 31.4168C91.4377 31.7732 91.6931 32.1185 91.905 32.4763C92.1169 32.8342 92.3106 33.206 92.5099 33.5667L93.0978 34.6402C93.2625 35.0069 93.4248 35.3699 93.5848 35.7292C93.8935 36.4533 94.2387 37.1409 94.4577 37.8552L95.1593 39.904C95.3459 40.5748 95.5045 41.2302 95.6673 41.8532C95.8301 42.4763 96.0055 43.0657 96.0883 43.6495C96.1711 44.2332 96.2834 44.7721 96.369 45.2843C96.4546 45.7965 96.5556 46.2666 96.6005 46.7227C96.6454 47.1788 96.6861 47.5815 96.724 47.952C96.8026 48.693 96.8377 49.2781 96.8728 49.6739C96.9078 50.0696 96.9149 50.2829 96.9149 50.2829L96.7114 49.7048C96.5879 49.3273 96.3886 48.7744 96.1697 48.0713C96.056 47.7191 95.9339 47.3304 95.7978 46.9066C95.6617 46.4828 95.4863 46.0393 95.3137 45.5566C94.9586 44.5967 94.6008 43.5049 94.1054 42.3584C93.8669 41.7817 93.6311 41.1796 93.3659 40.565L92.479 38.6986C92.1983 38.0503 91.825 37.4356 91.4742 36.7831C91.2988 36.4589 91.1206 36.1333 90.941 35.8008C90.7403 35.4878 90.5354 35.1721 90.3291 34.8521C90.1228 34.5322 89.9193 34.2108 89.7117 33.8866C89.504 33.5625 89.2528 33.2706 89.0254 32.959L88.3238 32.0301L87.5492 31.1558C86.529 29.9644 85.3249 28.9456 84.076 28.0054L83.0936 27.3669C82.9281 27.2644 82.7723 27.1451 82.5997 27.0539L82.0833 26.7859L81.5668 26.515C81.3995 26.418 81.2266 26.3309 81.049 26.254C80.6907 26.1053 80.3347 25.9556 79.9811 25.805C78.5371 25.2829 77.0636 24.8563 75.5817 24.6711C74.1492 24.467 72.7014 24.3904 71.2553 24.4424C69.936 24.4788 68.6203 24.5992 67.3162 24.803C65.329 25.1168 63.3665 25.5707 61.4434 26.1614C60.7417 26.3887 60.1804 26.5599 59.8155 26.6975L59.2486 26.9052Z" fill="#C6C6C5"/>
</g>
</g>
<g style="mix-blend-mode:multiply">
<g style="mix-blend-mode:multiply">
<path d="M58.227 30.9973C58.8085 30.5325 59.4229 30.1104 60.0653 29.7343C60.8005 29.2882 61.5579 28.8798 62.3345 28.5106C63.3509 28.0314 64.3988 27.6221 65.4709 27.2855C66.7544 26.8753 68.0738 26.5868 69.4114 26.4239C70.9296 26.2222 72.4672 26.2132 73.9876 26.3972C75.6437 26.5768 77.2621 27.0114 78.7855 27.6855L79.3763 27.9353C79.5685 28.0307 79.7538 28.1374 79.9376 28.2398C80.3123 28.4461 80.6968 28.6454 81.0603 28.8713C81.7619 29.3723 82.5043 29.8241 83.133 30.4149C83.4557 30.6956 83.7883 30.9763 84.097 31.2709L84.9741 32.2027L85.4105 32.6686C85.5509 32.8272 85.6701 32.9998 85.8007 33.1654L86.5626 34.1646C86.8132 34.4934 87.0447 34.8364 87.2559 35.1918L87.9 36.2331L88.06 36.4913L88.2003 36.7565L88.481 37.2883L89.0128 38.345C89.1876 38.6892 89.345 39.0418 89.4843 39.4017C89.6247 39.7554 89.765 40.1034 89.9053 40.45C90.0457 40.7966 90.186 41.1362 90.3039 41.4814L90.6294 42.5059C90.7333 42.8427 90.8371 43.1738 90.9382 43.5008C91.0392 43.8278 91.1487 44.1477 91.2188 44.4733C91.3676 45.116 91.5121 45.7363 91.6511 46.3341C91.7184 46.6325 91.7834 46.9244 91.8461 47.2098C91.8952 47.4988 91.9401 47.7809 91.9864 48.0517C92.0706 48.6009 92.1506 49.1211 92.2264 49.6122C92.392 50.5833 92.4397 51.4492 92.5071 52.1564C92.5744 52.8637 92.5913 53.4194 92.6193 53.7955C92.6474 54.1716 92.6488 54.3751 92.6488 54.3751L92.465 53.8208C92.3527 53.4601 92.1717 52.9325 91.9738 52.2575C91.776 51.5825 91.5374 50.7685 91.2076 49.848L90.7066 48.3773C90.6243 48.1191 90.5378 47.8543 90.447 47.583C90.3446 47.3178 90.2407 47.0442 90.1327 46.7677C89.9231 46.212 89.7065 45.6343 89.4829 45.0346C89.2612 44.4368 88.9735 43.8446 88.7125 43.2244L88.3098 42.2827C88.1765 41.9642 88.0024 41.6625 87.8481 41.3467C87.6937 41.031 87.5337 40.7138 87.3724 40.3953C87.2223 40.0678 87.0526 39.7496 86.8644 39.4424C86.6819 39.1295 86.4967 38.8165 86.303 38.4994L86.0224 38.0223L85.882 37.7823L85.7375 37.5578C85.527 37.2561 85.3165 36.9515 85.1032 36.6442C84.9039 36.3292 84.6865 36.0261 84.4521 35.7363C84.2177 35.4472 83.9806 35.1581 83.7504 34.8662C83.6311 34.7259 83.5175 34.5715 83.394 34.434L83.0053 34.0313L82.2292 33.2201C81.9584 32.9647 81.6679 32.736 81.3872 32.489C80.8498 31.967 80.2141 31.5867 79.6233 31.1446C79.3131 30.951 78.989 30.7784 78.676 30.5833C78.5175 30.4921 78.3617 30.3939 78.2017 30.3027L77.7064 30.0767C77.3724 29.9364 77.0552 29.7568 76.7128 29.6389L75.6912 29.2782C75.3544 29.1576 75.0022 29.0916 74.6612 28.9976L74.1476 28.8573L73.6297 28.766C73.2831 28.7127 72.9435 28.6257 72.5983 28.599C72.2531 28.5724 71.9093 28.5275 71.5697 28.491C71.2301 28.4545 70.8919 28.4643 70.5565 28.4489C70.2211 28.4335 69.8885 28.4363 69.5587 28.4489C68.3105 28.4705 67.0658 28.5888 65.8357 28.8025C64.7774 28.9745 63.7286 29.2012 62.6937 29.4817C61.7633 29.7343 60.9522 29.9813 60.2913 30.2086C59.6303 30.436 59.1097 30.6296 58.7617 30.77L58.227 30.9973Z" fill="#C6C6C5"/>
</g>
</g>
<path d="M111.365 56.2807C111.362 56.788 111.157 57.2734 110.797 57.6305C110.437 57.9877 109.95 58.1875 109.442 58.1864V58.1864C109.191 58.187 108.942 58.138 108.709 58.0422C108.476 57.9465 108.265 57.8058 108.087 57.6283C107.908 57.4509 107.767 57.24 107.67 57.0078C107.573 56.7756 107.523 56.5266 107.523 56.2751V56.2751C107.523 56.0237 107.574 55.775 107.67 55.543C107.767 55.3111 107.909 55.1005 108.087 54.9233C108.265 54.746 108.477 54.6057 108.709 54.5101C108.942 54.4146 109.191 54.3659 109.442 54.3666V54.3666C109.694 54.3657 109.943 54.4143 110.176 54.5097C110.409 54.6051 110.62 54.7454 110.799 54.9227C110.977 55.0999 111.119 55.3105 111.216 55.5426C111.314 55.7746 111.364 56.0235 111.365 56.2751V56.2807Z" fill="#8E2015"/>
<path d="M94.1615 50.7882C94.1632 50.145 94.2915 49.5085 94.5393 48.915C94.7871 48.3215 95.1494 47.7826 95.6056 47.3292C96.0617 46.8758 96.6027 46.5168 97.1977 46.2726C97.7927 46.0284 98.4299 45.9038 99.0731 45.906V45.906C99.7162 45.9038 100.353 46.0284 100.948 46.2726C101.543 46.5168 102.084 46.8758 102.541 47.3292C102.997 47.7826 103.359 48.3215 103.607 48.915C103.855 49.5085 103.983 50.145 103.985 50.7882V61.7733C103.983 62.4164 103.855 63.0529 103.607 63.6464C103.359 64.2399 102.997 64.7788 102.541 65.2322C102.084 65.6856 101.543 66.0446 100.948 66.2888C100.353 66.533 99.7162 66.6576 99.0731 66.6554V66.6554C98.4299 66.6576 97.7927 66.533 97.1977 66.2888C96.6027 66.0446 96.0617 65.6856 95.6056 65.2322C95.1494 64.7788 94.7871 64.2399 94.5393 63.6464C94.2915 63.0529 94.1632 62.4164 94.1615 61.7733V50.7882Z" fill="#464F5B"/>
<g style="mix-blend-mode:multiply">
<path d="M100.077 51.0506C102.2 53.6734 102.487 56.7199 101.883 59.9405C101.372 62.6995 99.3089 65.4836 96.4307 65.8864C97.171 66.3575 98.0241 66.6217 98.9011 66.6514C99.7781 66.6812 100.647 66.4754 101.418 66.0555C102.188 65.6357 102.832 65.017 103.283 64.2639C103.733 63.5108 103.974 62.6508 103.979 61.7733V50.7882C103.97 49.6395 103.559 48.5303 102.817 47.6535C102.075 46.7767 101.049 46.1877 99.9173 45.989C98.7859 45.7903 97.6207 45.9944 96.6242 46.5658C95.6278 47.1373 94.8631 48.04 94.4633 49.1168C96.5374 48.8614 98.7055 49.3455 100.077 51.0506Z" fill="#C6C6C5"/>
</g>
<g style="mix-blend-mode:soft-light" opacity="0.5">
<path d="M95.8989 50.7882C95.8991 50.7213 95.9125 50.6551 95.9382 50.5933C95.964 50.5316 96.0017 50.4755 96.0491 50.4284C96.0965 50.3812 96.1528 50.3438 96.2147 50.3184C96.2766 50.293 96.3428 50.28 96.4097 50.2802C96.4766 50.28 96.5429 50.293 96.6048 50.3184C96.6666 50.3438 96.7229 50.3812 96.7703 50.4284C96.8178 50.4755 96.8554 50.5316 96.8812 50.5933C96.907 50.6551 96.9203 50.7213 96.9205 50.7882V63.1976C96.9205 63.2646 96.9073 63.3309 96.8816 63.3927C96.8559 63.4545 96.8182 63.5106 96.7707 63.5579C96.7233 63.6051 96.6669 63.6424 96.605 63.6678C96.543 63.6931 96.4767 63.706 96.4097 63.7056C96.3428 63.706 96.2764 63.6931 96.2145 63.6678C96.1525 63.6424 96.0962 63.6051 96.0487 63.5579C96.0012 63.5106 95.9636 63.4545 95.9379 63.3927C95.9122 63.3309 95.8989 63.2646 95.8989 63.1976V50.7882Z" fill="white"/>
</g>
<path d="M103.317 48.7997V63.7618C104.958 63.3149 106.408 62.3403 107.441 60.9884C108.474 59.6364 109.034 57.9822 109.034 56.2807C109.034 54.5793 108.474 52.925 107.441 51.5731C106.408 50.2212 104.958 49.2466 103.317 48.7997V48.7997Z" fill="#D32A26"/>
<g style="mix-blend-mode:multiply">
<path d="M106.713 59.1393C104.212 57.5367 103.572 55.2731 103.317 52.5437V63.7562C104.361 63.4669 105.333 62.9638 106.172 62.2786C107.011 61.5935 107.698 60.7414 108.19 59.7764C107.668 59.6423 107.169 59.4273 106.713 59.1393V59.1393Z" fill="#D9D9D9"/>
</g>
<path d="M105.753 60.3489C105.753 60.3489 108.575 86 81.5851 85.2703" stroke="#2C343F" stroke-width="3.62" stroke-linecap="round" stroke-linejoin="round"/>
<path d="M82.5575 85.3714C82.5557 85.9657 82.3183 86.535 81.8974 86.9545C81.4765 87.3741 80.9065 87.6097 80.3122 87.6097H77.2881C76.6938 87.6097 76.1238 87.3741 75.7029 86.9545C75.282 86.535 75.0446 85.9657 75.0428 85.3714C75.0428 84.7759 75.2793 84.2048 75.7004 83.7837C76.1215 83.3627 76.6926 83.1261 77.2881 83.1261H80.308C80.9035 83.1261 81.4746 83.3627 81.8957 83.7837C82.3167 84.2048 82.5533 84.7759 82.5533 85.3714H82.5575Z" fill="#232A33"/>
<path d="M34.2359 56.2807C34.2389 56.7879 34.4427 57.2732 34.8028 57.6304C35.1629 57.9876 35.6498 58.1875 36.157 58.1864V58.1864C36.665 58.1886 37.153 57.9892 37.514 57.6319C37.875 57.2746 38.0794 56.7886 38.0824 56.2807V56.2807C38.0805 55.7729 37.8771 55.2867 37.5169 54.9288C37.1566 54.5709 36.669 54.3707 36.1612 54.3722C35.6535 54.3707 35.1659 54.5709 34.8056 54.9288C34.4454 55.2867 34.242 55.7729 34.2401 56.2807H34.2359Z" fill="#8E2015"/>
<path d="M51.4392 50.7882C51.4375 50.145 51.3091 49.5085 51.0613 48.915C50.8136 48.3215 50.4512 47.7826 49.9951 47.3292C49.539 46.8758 48.9979 46.5168 48.403 46.2726C47.808 46.0284 47.1707 45.9038 46.5276 45.906C45.8844 45.9038 45.2471 46.0284 44.6522 46.2726C44.0572 46.5168 43.5162 46.8758 43.06 47.3292C42.6039 47.7826 42.2416 48.3215 41.9938 48.915C41.746 49.5085 41.6176 50.145 41.616 50.7882V61.7733C41.6176 62.4164 41.746 63.0529 41.9938 63.6464C42.2416 64.2399 42.6039 64.7788 43.06 65.2322C43.5162 65.6856 44.0572 66.0446 44.6522 66.2888C45.2471 66.533 45.8844 66.6576 46.5276 66.6554V66.6554C47.1707 66.6576 47.808 66.533 48.403 66.2888C48.9979 66.0446 49.539 65.6856 49.9951 65.2322C50.4512 64.7788 50.8136 64.2399 51.0613 63.6464C51.3091 63.0529 51.4375 62.4164 51.4392 61.7733V50.7882Z" fill="#464F5B"/>
<g style="mix-blend-mode:multiply">
<path d="M45.52 51.0505C43.3982 53.6733 43.1105 56.7199 43.7153 59.9405C44.2346 62.6994 46.2918 65.4836 49.1686 65.8863C48.4283 66.3575 47.5752 66.6216 46.6982 66.6514C45.8212 66.6811 44.9522 66.4754 44.1816 66.0555C43.411 65.6356 42.767 65.017 42.3166 64.2639C41.8661 63.5108 41.6256 62.6507 41.6202 61.7732V50.7881C41.6309 49.6408 42.0429 48.5334 42.7848 47.6581C43.5267 46.7828 44.5516 46.1949 45.6817 45.9963C46.8117 45.7978 47.9757 46.0012 48.9715 46.5712C49.9673 47.1411 50.7321 48.0418 51.1332 49.1168C49.0619 48.8614 46.9008 49.3455 45.52 51.0505Z" fill="#C6C6C5"/>
</g>
<g style="mix-blend-mode:soft-light" opacity="0.5">
<path d="M49.7005 50.7882C49.7003 50.7213 49.6869 50.6551 49.6611 50.5933C49.6354 50.5316 49.5977 50.4755 49.5503 50.4284C49.5028 50.3812 49.4466 50.3438 49.3847 50.3184C49.3228 50.293 49.2565 50.28 49.1896 50.2802C49.1226 50.2798 49.0562 50.2926 48.9942 50.318C48.9321 50.3433 48.8757 50.3807 48.8281 50.4279C48.7805 50.4751 48.7427 50.5312 48.7169 50.593C48.691 50.6548 48.6776 50.7211 48.6774 50.7882V63.1976C48.6776 63.2647 48.691 63.331 48.7169 63.3928C48.7427 63.4546 48.7805 63.5107 48.8281 63.5579C48.8757 63.6051 48.9321 63.6425 48.9942 63.6678C49.0562 63.6932 49.1226 63.706 49.1896 63.7056V63.7056C49.2566 63.706 49.3229 63.6932 49.3849 63.6678C49.4469 63.6424 49.5032 63.6051 49.5507 63.5579C49.5981 63.5106 49.6358 63.4545 49.6615 63.3927C49.6872 63.3309 49.7005 63.2646 49.7005 63.1976V50.7882Z" fill="white"/>
</g>
<path d="M42.2839 48.7997V63.7618C40.6422 63.3149 39.193 62.3403 38.1599 60.9884C37.1268 59.6364 36.5671 57.9822 36.5671 56.2807C36.5671 54.5793 37.1268 52.925 38.1599 51.5731C39.193 50.2212 40.6422 49.2466 42.2839 48.7997V48.7997Z" fill="#D32A26"/>
<g style="mix-blend-mode:multiply">
<path d="M38.8879 59.1393C41.3886 57.5367 42.0271 55.2731 42.2839 52.5437V63.7562C41.24 63.4669 40.2677 62.9638 39.4287 62.2786C38.5897 61.5935 37.9023 60.7414 37.4102 59.7764C37.933 59.6423 38.4316 59.4273 38.8879 59.1393V59.1393Z" fill="#D9D9D9"/>
</g>
<path d="M78.1484 57.5943C79.8885 55.3139 82.667 54.8999 84.9053 55.9356C85.3614 56.1432 85.527 56.4744 85.3614 56.8898C85.1958 57.3052 84.8225 57.4694 84.3244 57.2631C83.7855 57.0554 83.3294 56.807 82.7905 56.5993C81.5893 56.1783 80.4274 56.3916 79.3089 56.9305C78.9085 57.1271 78.5209 57.3488 78.1484 57.5943Z" fill="#353435"/>
<path d="M60.0751 56.8477C59.619 56.8477 59.2051 57.0133 58.7897 57.1803C58.7069 57.1803 58.6662 57.1803 58.6662 57.2631C58.5834 57.3038 58.5006 57.3038 58.4164 57.3459C58.3739 57.345 58.332 57.3561 58.2955 57.3779C58.259 57.3998 58.2294 57.4315 58.2101 57.4694C57.9603 57.5115 57.7891 57.6771 57.5884 57.7599C57.0075 57.8848 56.5514 57.5943 56.5514 57.0133C56.5896 56.882 56.6453 56.7565 56.717 56.64C56.7647 56.6232 56.8082 56.596 56.8441 56.5603C56.88 56.5246 56.9075 56.4814 56.9247 56.4337C58.7897 55.6044 60.614 55.6044 62.3976 56.6821C62.8537 56.9305 63.1849 57.3038 63.5581 57.635C63.6002 58.0911 63.3504 57.5522 63.3097 57.7178C63.2002 57.6249 63.0733 57.5548 62.9365 57.5115C62.917 57.4733 62.8872 57.4414 62.8505 57.4193C62.8138 57.3972 62.7716 57.3859 62.7288 57.3866C62.6112 57.2949 62.4634 57.2508 62.3148 57.2631C62.2998 57.2216 62.2709 57.1865 62.2331 57.1638C62.1953 57.1411 62.1508 57.132 62.1071 57.1382C62.0026 57.0908 61.8904 57.0628 61.7759 57.0554C61.7352 56.9305 61.651 56.9305 61.5682 56.9726C61.3282 56.891 61.0766 56.8488 60.8231 56.8477C60.7079 56.7866 60.5795 56.7547 60.4491 56.7547C60.3187 56.7547 60.1903 56.7866 60.0751 56.8477V56.8477Z" fill="#353435"/>
<path d="M56.6342 52.4539C56.9654 52.1634 57.3808 52.0399 57.7948 51.915C59.3286 51.4182 60.9045 51.1684 62.479 51.501C63.0388 51.6104 63.5822 51.7915 64.0956 52.0399C64.344 52.1634 64.5166 52.8272 64.344 53.0755C64.1784 53.2832 63.9721 53.2411 63.7644 53.1176C62.8541 52.6022 61.854 52.2646 60.8175 52.1227C59.6542 51.9631 58.4708 52.0332 57.3345 52.329C57.1324 52.3711 56.8419 52.329 56.6342 52.4539Z" fill="#353435"/>
<path d="M83.6619 51.4182C83.7026 51.4182 83.7854 51.4589 83.8275 51.4589C83.9103 51.6245 84.1166 51.5838 84.2415 51.7073C84.2008 51.8743 84.0338 51.7494 83.951 51.8322C83.8682 51.8322 83.7447 51.7901 83.6619 51.7901C83.5778 51.6666 83.495 51.6666 83.3715 51.7494C82.7498 51.5838 82.086 51.6245 81.4644 51.6666C81.4223 51.6245 81.4223 51.6245 81.3816 51.6666C81.201 51.6582 81.02 51.6719 80.8427 51.7073C80.7599 51.6666 80.7178 51.6666 80.6771 51.7494C80.4273 51.7901 80.221 51.8322 79.9755 51.8743C79.9145 51.8538 79.8483 51.8549 79.788 51.8774C79.7277 51.8998 79.677 51.9424 79.6443 51.9978C79.5747 52.0076 79.5058 52.0217 79.438 52.0399C79.4139 52.0277 79.3872 52.0212 79.3602 52.0211C79.3331 52.0209 79.3064 52.0271 79.2822 52.0391C79.2579 52.0511 79.2368 52.0686 79.2205 52.0901C79.2042 52.1117 79.1931 52.1368 79.1882 52.1634C78.8011 52.261 78.4356 52.43 78.1105 52.6616C77.8621 52.785 77.6137 52.9506 77.4088 52.6195C77.2432 52.329 77.3681 51.7494 77.6572 51.6245C78.4866 51.2105 79.3987 51.0449 80.3108 50.9621C80.3827 50.9685 80.4549 50.9539 80.5185 50.92C81.5813 50.9715 82.6353 51.1385 83.6619 51.4182V51.4182Z" fill="#353435"/>
<path d="M71.2315 76.4295C70.1254 76.4469 69.023 76.2969 67.9618 75.9846C66.8966 75.6633 65.9971 75.1974 65.3319 74.535C65.3076 74.5116 65.2846 74.4867 65.2632 74.4606C65.2 74.3905 65.2253 74.3287 65.3179 74.2796C65.3577 74.2566 65.4032 74.2454 65.4491 74.2471C65.4951 74.2489 65.5396 74.2635 65.5775 74.2894C66.2245 74.695 67.0005 74.9223 67.8228 75.0879C69.2623 75.3616 70.7307 75.4512 72.1927 75.3545C72.8767 75.3132 73.5578 75.2345 74.2332 75.1188C75.113 74.9784 75.9452 74.7315 76.637 74.3119C76.6781 74.2791 76.7279 74.259 76.7802 74.254C76.8325 74.249 76.8852 74.2594 76.9317 74.2838C77.03 74.3414 77.0384 74.4059 76.9458 74.5027C76.4893 74.9592 75.9521 75.327 75.3614 75.5875C74.7218 75.8784 74.0494 76.0914 73.3589 76.2218C72.6585 76.3624 71.9458 76.432 71.2315 76.4295Z" fill="black"/>
<path d="M72.0131 61.7986C72.0131 61.7986 71.9892 64.9785 72.6348 66.7775C72.8425 67.3445 71.6356 65.4149 72.0131 61.7986Z" fill="black"/>
<path d="M70.1818 69.3273C70.1818 69.3273 71.3732 70.1552 72.66 69.3273C72.66 69.3273 71.3956 70.753 70.1818 69.3273Z" fill="black"/>
<path d="M72.66 69.3273C72.66 69.3273 73.0922 68.1373 73.7967 68.5849C74.5011 69.0326 73.2845 69.041 72.66 69.3273Z" fill="black"/>
<path d="M70.1818 69.3273C70.1818 69.3273 69.7496 68.1373 69.0451 68.5849C68.3407 69.0326 69.5573 69.041 70.1818 69.3273Z" fill="black"/>
</g>
<rect x="90.7009" y="58.8805" width="39.2671" height="22.9828" rx="11.4914" fill="white"/>
<circle cx="99.1319" cy="70.8918" r="3.58024" fill="#DCDCDC"/>
<ellipse cx="110.335" cy="70.8916" rx="3.58023" ry="3.58024" fill="#DCDCDC"/>
<ellipse cx="121.537" cy="70.8916" rx="3.58022" ry="3.58024" fill="#DCDCDC"/>
<path d="M89.4305 88.9083L93.877 81.8633H104.733L89.4305 88.9083Z" fill="white"/>
<defs>
<radialGradient id="paint0_radial_1_16" cx="0" cy="0" r="1" gradientUnits="userSpaceOnUse" gradientTransform="translate(67.8236 141) rotate(-90.7889) scale(99.5581 84.692)">
<stop stop-color="#7461A6"/>
<stop offset="1" stop-color="#5CB3E4"/>
</radialGradient>
</defs>
</svg>
