<svg xmlns="http://www.w3.org/2000/svg" xmlns:xlink="http://www.w3.org/1999/xlink" viewBox="0 0 425.36 89.06"><defs><style>.cls-1{fill:url(#linear-gradient);}</style><linearGradient id="linear-gradient" x1="130.45" y1="-75.31" x2="263.41" y2="154.99" gradientUnits="userSpaceOnUse"><stop offset="0" stop-color="#1eb9ec"/><stop offset="0.07" stop-color="#25b2e7"/><stop offset="0.7" stop-color="#6677ba"/><stop offset="1" stop-color="#7f60a9"/></linearGradient></defs><g id="Layer_2" data-name="Layer 2"><g id="Layer_1-2" data-name="Layer 1"><path class="cls-1" d="M176.32,55.18v6.29H151.43a11.23,11.23,0,0,1-5-1.15,11,11,0,0,1-5.12-5.14,10.84,10.84,0,0,1-1.17-5V26.17h6.29V50.86a5,5,0,0,0,4.32,4.32Zm21.22,6.3V26.18h6.3v35.3ZM248.8,26.19a17.64,17.64,0,0,1,17.64,17.64,17.39,17.39,0,0,1-4.18,11.37,14.89,14.89,0,0,1-1,1.11,17.47,17.47,0,0,1-12.45,5.18H225.31V26.19Zm-17.19,29H248.8a11.36,11.36,0,0,0,0-22.72H231.61Zm57.65-19.49v5.86h25v6.29h-25V52a3.25,3.25,0,0,0,3.23,3.25H319.6v6.29H292.49A9.53,9.53,0,0,1,283,52V35.71a9.53,9.53,0,0,1,9.52-9.54H319.6v6.29H292.49A3.25,3.25,0,0,0,289.26,35.71Zm69.94,4.6,15.32,21.12h-7.78L354.55,44.59l-8.92,8.13v8.71h-6.29V26.13h6.29V44.19l5.18-4.74,4.68-4.28,9.86-9h9.33Zm66.16,21.18h-7.07l-3.23-6.31-7.7-15.13-7.7,15.13-3.23,6.31h-7.07l3.22-6.31,14.78-29,14.79,29Zm-320.31,9a8,8,0,1,0,8,8A8,8,0,0,0,105.05,70.53ZM0,47.49V16.57H0V0H20.47V36.45ZM83,68.07v4.42s0,.05,0,.08V89.06H16.57A16.62,16.62,0,0,1,0,72.49v-10l20.47-11v5.66a11,11,0,0,0,11,11Zm-.16-52.55A18.45,18.45,0,0,1,83,17.76V33.12A17.82,17.82,0,0,1,65.25,50.88H42.46a1.19,1.19,0,0,1-1.19-1.19V38ZM41.27,23V1.19A1.19,1.19,0,0,1,42.46,0H65.25A17.64,17.64,0,0,1,76.46,4Z"/></g></g></svg>