<svg xmlns="http://www.w3.org/2000/svg" xmlns:xlink="http://www.w3.org/1999/xlink" viewBox="0 0 119.22 123.88"><defs><style>.cls-1{fill:url(#linear-gradient);}</style><linearGradient id="linear-gradient" x1="5.58" y1="0.34" x2="87.34" y2="141.96" gradientUnits="userSpaceOnUse"><stop offset="0" stop-color="#1eb9ec"/><stop offset="0.07" stop-color="#25b2e7"/><stop offset="0.7" stop-color="#6677ba"/><stop offset="1" stop-color="#7f60a9"/></linearGradient></defs><g id="Layer_2" data-name="Layer 2"><g id="Layer_1-2" data-name="Layer 1"><path class="cls-1" d="M15,121.25v2.62H4.68a4.73,4.73,0,0,1-2.06-.48,4.51,4.51,0,0,1-2.13-2.14A4.47,4.47,0,0,1,0,119.19v-10H2.62v10.27a2.08,2.08,0,0,0,1.8,1.8Zm8.84,2.62V109.18h2.62v14.69Zm21.32-14.68a7.34,7.34,0,0,1,7.34,7.34,7.26,7.26,0,0,1-1.74,4.73,6,6,0,0,1-.42.46,7.25,7.25,0,0,1-5.18,2.16H35.42V109.19ZM38,121.26h7.15a4.73,4.73,0,0,0,0-9.45H38Zm24-8.11v2.44h10.4v2.62H62v1.7a1.35,1.35,0,0,0,1.34,1.35H74.65v2.62H63.37a4,4,0,0,1-4-4v-6.76a4,4,0,0,1,4-4H74.65v2.62H63.37A1.35,1.35,0,0,0,62,113.15Zm29.1,1.91,6.37,8.79H94.26l-5.07-7-3.71,3.39v3.62H82.86V109.16h2.62v7.52l2.16-2,1.94-1.78,4.11-3.75h3.88Zm27.52,8.82h-2.94l-1.34-2.63L111.16,115l-3.2,6.29-1.34,2.63h-2.94l1.33-2.63,6.15-12.07,6.16,12.07ZM111.2,70.53a8,8,0,1,0,8,8A8,8,0,0,0,111.2,70.53Zm-105-23V16.57h0V0H26.62V36.45Zm83,20.58v21H22.72A16.62,16.62,0,0,1,6.15,72.49v-10l20.47-11v5.66a11,11,0,0,0,11,11ZM89,15.52a16.63,16.63,0,0,1,.16,2.24V33.12A17.81,17.81,0,0,1,71.4,50.88H48.61a1.19,1.19,0,0,1-1.19-1.19V38ZM47.42,23V1.19A1.19,1.19,0,0,1,48.61,0H71.4A17.64,17.64,0,0,1,82.61,4Z"/></g></g></svg>