<svg xmlns="http://www.w3.org/2000/svg" viewBox="0 0 609.9022 233.3653"><defs><style>.cls-1{fill:#fff;}.cls-2{fill:#bdea18;}.cls-3{fill:#fc3f4d;}.cls-4{fill:#1e1e1e;}</style></defs><g id="Laag_2" data-name="Laag 2"><g id="Layer_1" data-name="Layer 1"><path class="cls-1" d="M250.5252,65.4165h9.5215v7.7011h6.8614v7.8409h-6.8614V95.1c0,5.46,1.68,6.58,5.3907,6.58a16,16,0,0,0,1.75-.0693v8.2607a19.7318,19.7318,0,0,1-4.1309.35c-8.75,0-12.6006-4.9-12.6006-14.8417V80.9585h-3.8506V73.1176h3.92Z"/><path class="cls-1" d="M305.9686,88.5893v21.1416h-9.5918V87.4692c0-4.0606-2.8-6.5811-6.09-6.5811-4.0606,0-6.65,2.9405-6.65,6.86v21.9824h-9.6621V59.1157h9.6621V77.3881a11.2823,11.2823,0,0,1,9.66-5.1806C303.7987,72.2075,305.9686,80.8178,305.9686,88.5893Z"/><path class="cls-1" d="M314.0848,94.2592V73.1176h9.6612V95.3794c0,4.06,2.8007,6.581,6.09,6.581,3.99,0,6.5117-2.94,6.5117-6.86V73.1176h9.66v36.6133h-9.4512v-4.27a11.5481,11.5481,0,0,1-9.8008,5.1807C316.3251,110.6411,314.0848,102.0307,314.0848,94.2592Z"/><path class="cls-1" d="M359.0956,58.7661a5.5307,5.5307,0,1,1-5.6006,5.53A5.4868,5.4868,0,0,1,359.0956,58.7661Zm-4.7608,14.3515h9.6612v36.6133h-9.6612Z"/><path class="cls-1" d="M370.2245,103.851l5.67-5.041a10.4426,10.4426,0,0,0,8.4,3.99c2.73,0,4.48-1.1894,4.48-3.29,0-5.6006-17.291-3.4307-17.291-16.4521,0-6.79,5.8106-10.8506,13.3008-10.8506,6.9317,0,10.7813,3.6406,12.5313,6.5107l-6.3692,4.76a8.28,8.28,0,0,0-6.582-3.5c-2.24,0-3.7793,1.12-3.7793,2.94,0,5.8106,17.3613,3.0108,17.3613,16.1016,0,7.1406-6.16,11.6211-14.0722,11.6211C376.6639,110.6411,372.1835,107,370.2245,103.851Z"/><path class="cls-1" d="M429.3768,86.2788l-6.791,23.4521H411.8045l-10.92-36.6133h10.5L417.826,99.09l7-25.9727h9.1016l6.93,25.9727,6.5117-25.9727h10.5l-10.99,36.6133H436.0975Z"/><path class="cls-1" d="M467.9432,58.7661a5.5307,5.5307,0,1,1-5.6,5.53A5.4885,5.4885,0,0,1,467.9432,58.7661Zm-4.76,14.3515h9.66v36.6133h-9.66Z"/><path class="cls-1" d="M513.4471,88.5893v21.1416H503.785V87.4692c0-4.0606-2.8008-6.5811-6.09-6.5811-3.99,0-6.5117,2.9405-6.5117,6.86v21.9824h-9.66V73.1176h9.4512v4.27a11.5464,11.5464,0,0,1,9.8007-5.1806C511.2069,72.2075,513.4471,80.8178,513.4471,88.5893Z"/><path class="cls-1" d="M521.7733,59.1157h9.66V88.519l11.7617-15.4014h10.8515L541.1659,89.7094l13.8613,20.0215H543.6854L531.4335,90.83v18.9014h-9.66Z"/><path class="cls-1" d="M576.0252,72.2075c11.34,0,17.7813,7.5605,17.7813,19.5322a20.9607,20.9607,0,0,1-.07,2.1H567.9745c.209,4.9,4.1289,8.4014,9.5195,8.4014a10.6985,10.6985,0,0,0,8.8926-4.4805l6.3691,4.83c-1.4,2.5908-6.3008,8.0508-15.4,8.0508-11.7617,0-19.2519-8.1211-19.2519-19.1114C558.1034,80.4682,565.5936,72.2075,576.0252,72.2075Zm7.9805,15.331a7.4777,7.4777,0,0,0-7.8418-7.4209c-4.5488,0-7.49,3.2207-7.91,7.4209Z"/><path class="cls-1" d="M600.242,59.1157h9.66v50.6152h-9.66Z"/><path class="cls-1" d="M252.7254,168.2963a3.64,3.64,0,0,1,0,7.28,3.6407,3.6407,0,1,1,0-7.28Z"/><path class="cls-1" d="M280.48,140.0854c10.2061,0,17.6162,7.6055,17.6162,17.7461a17.274,17.274,0,0,1-17.6806,17.7451c-10.1407,0-17.6153-7.4746-17.6153-17.7451A17.2746,17.2746,0,0,1,280.48,140.0854Zm-.0644,30.8115c7.28,0,12.48-5.5254,12.48-13.0654,0-7.4756-5.2-13.0654-12.48-13.0654s-12.3506,5.6552-12.3506,13.0654C268.0653,165.437,273.201,170.8969,280.4159,170.8969Z"/><path class="cls-1" d="M320.7811,145.2211c-7.7363,0-10.0117,6.11-10.0117,13.3252v16.1856h-5.1348V140.9311h5.07v5.6543c1.17-3.38,4.94-6.5,10.0762-6.5Z"/><path class="cls-1" d="M331.1151,179.8022a21.1831,21.1831,0,0,0,10.2051,2.7949c6.4355,0,11.8955-2.665,11.8955-10.2051v-2.99a13.6125,13.6125,0,0,1-11.7,6.1748c-9.6856,0-16.3164-7.3447-16.3164-17.6806,0-10.4,6.6953-17.8106,16.251-17.8106a14.0368,14.0368,0,0,1,11.96,6.3057v-5.46h4.9414v29.1211c0,12.8047-7.2158,17.16-16.9668,17.16a24.71,24.71,0,0,1-12.09-3.38ZM341.84,144.7661c-6.5645,0-11.44,5.3945-11.44,13.13,0,7.8652,5.07,13.0009,11.57,13.0009,6.955,0,11.4394-5.7207,11.4394-13.0009C353.41,149.7055,348.2752,144.7661,341.84,144.7661Z"/><path class="cls-1" d="M101.05,0,0,58.3413V175.024l101.05,58.3413L202.1,175.024V58.3413Zm90.2591,168.7938L106.4458,217.79v-97.992l84.8635-48.9959ZM95.6546,217.79,10.7912,168.7938V70.8018l84.8634,48.9959ZM101.05,110.4524,16.1868,61.4564,101.05,12.46l84.8635,48.996Z"/><polygon class="cls-2" points="191.309 70.802 106.446 119.798 106.446 217.79 191.309 168.794 191.309 70.802"/><polygon class="cls-3" points="10.791 168.794 95.655 217.79 95.655 119.798 10.791 70.802 10.791 168.794"/><polygon class="cls-4" points="16.187 61.456 101.05 110.452 185.914 61.456 101.05 12.46 16.187 61.456"/></g></g></svg>