<svg xmlns="http://www.w3.org/2000/svg" viewBox="0 0 609.88 187.03">
    <style>.cls-1{fill:#1e1e1e;}.cls-2{fill:#bdea18;}.cls-3{fill:#fc3f4d;}.cls-4{fill:#fff;}</style>
    <g id="text" fill="#FFFFFF">
        <path d="M250.79,65.23h9.52v7.7h6.86v7.84h-6.86V94.92c0,5.46,1.68,6.58,5.39,6.58a15.84,15.84,0,0,0,1.75-.07v8.26a19.7,19.7,0,0,1-4.13.35c-8.75,0-12.6-4.9-12.6-14.84V80.77h-3.85V72.93h3.92Z"/>
        <path d="M306.16,88.41v21.14h-9.59V87.29c0-4.07-2.8-6.59-6.09-6.59-4.06,0-6.65,2.94-6.65,6.87v22h-9.67V58.93h9.67V77.2A11.28,11.28,0,0,1,293.49,72C304,72,306.16,80.63,306.16,88.41Z"/>
        <path d="M314.28,94.08V72.93h9.66V95.2c0,4.06,2.8,6.58,6.09,6.58,4,0,6.51-2.94,6.51-6.86v-22h9.66v36.62h-9.45v-4.27a11.55,11.55,0,0,1-9.8,5.18C316.52,110.46,314.28,101.85,314.28,94.08Z"/>
        <path d="M359.21,58.58a5.53,5.53,0,1,1-5.59,5.53A5.49,5.49,0,0,1,359.21,58.58Zm-4.75,14.35h9.66v36.62h-9.66Z"/>
        <path d="M370.34,103.67l5.68-5a10.44,10.44,0,0,0,8.4,4c2.73,0,4.48-1.19,4.48-3.29,0-5.6-17.3-3.43-17.3-16.46,0-6.79,5.81-10.85,13.31-10.85,6.93,0,10.78,3.64,12.53,6.51l-6.37,4.76a8.28,8.28,0,0,0-6.58-3.5c-2.24,0-3.78,1.12-3.78,2.94,0,5.81,17.36,3,17.36,16.11,0,7.14-6.16,11.62-14.07,11.62C376.79,110.46,372.3,106.82,370.34,103.67Z"/>
        <path d="M429.5,86.09l-6.79,23.46H411.93L401,72.93h10.51l6.44,26,7-26h9.1l6.93,26,6.51-26H458l-11,36.62H436.22Z"/>
        <path d="M468,58.58a5.53,5.53,0,1,1-5.6,5.53A5.49,5.49,0,0,1,468,58.58Zm-4.76,14.35h9.66v36.62h-9.66Z"/>
        <path d="M513.5,88.41v21.14h-9.66V87.29c0-4.07-2.8-6.59-6.1-6.59-4,0-6.51,2.94-6.51,6.87v22h-9.66V72.93H491V77.2a11.55,11.55,0,0,1,9.8-5.18C511.26,72,513.5,80.63,513.5,88.41Z"/>
        <path d="M521.82,58.93h9.66V88.34l11.76-15.41H554.1l-12.89,16.6,13.87,20H543.73l-12.25-18.9v18.9h-9.66Z"/>
        <path d="M576.07,72c11.35,0,17.79,7.56,17.79,19.54,0,.7,0,1.4-.07,2.1H568c.21,4.9,4.13,8.4,9.53,8.4a10.71,10.71,0,0,0,8.89-4.48l6.37,4.83c-1.4,2.59-6.3,8-15.41,8-11.76,0-19.25-8.12-19.25-19.11S565.64,72,576.07,72Zm8,15.34a7.47,7.47,0,0,0-7.84-7.43c-4.55,0-7.49,3.22-7.91,7.43Z"/>
        <path d="M600.22,58.93h9.66v50.62h-9.66Z"/>
        <path d="M272.62,147.7l-9,26.85h-5.65l-11.38-33.8h5.59L261,168.57s.07-.13,9.1-27.82h5.07c9,27.69,9,27.82,9,27.82l8.9-27.82h5.59l-11.44,33.8h-5.65Z"/>
        <path d="M315.32,153c4.29,0,7.54,1.63,8.91,3.06v-4.16c0-4.75-3.19-7.48-8.19-7.48a19.41,19.41,0,0,0-10,2.93L304,143.61a23.8,23.8,0,0,1,12.48-3.71c9.23,0,12.87,5.14,12.87,12.35v22.3h-4.42l-.58-2.86c-1.76,2-4.62,3.7-9.17,3.7-7.41,0-12.87-4.68-12.87-11.24S307.72,153,315.32,153ZM316,171.1c4.94,0,8.38-2.92,8.38-7s-3.38-7-8.45-7-8.45,3-8.45,7S310.84,171.1,316,171.1Z"/>
        <path d="M349.38,153c4.29,0,7.54,1.63,8.91,3.06v-4.16c0-4.75-3.19-7.48-8.19-7.48a19.38,19.38,0,0,0-10,2.93l-2.08-3.77a23.8,23.8,0,0,1,12.48-3.71c9.23,0,12.87,5.14,12.87,12.35v22.3H359l-.58-2.86c-1.76,2-4.62,3.7-9.17,3.7-7.41,0-12.87-4.68-12.87-11.24S341.78,153,349.38,153Zm.72,18.07c4.94,0,8.38-2.92,8.38-7s-3.38-7-8.45-7-8.45,3-8.45,7S344.89,171.1,350.1,171.1Z"/>
        <path d="M387.8,145c-7.74,0-10,6.11-10,13.32v16.19h-5.14v-33.8h5.07v5.65c1.17-3.38,4.94-6.5,10.08-6.5Z"/>
        <path d="M394.49,127.55h5.14v18.66a13.94,13.94,0,0,1,11.95-6.31c9.56,0,16.13,7.41,16.13,17.81s-6.9,17.68-16.51,17.68a14,14,0,0,1-11.77-6.17v5.33h-4.94Zm16.38,43.23c6.5,0,11.57-5.14,11.57-13s-4.81-13.2-11.44-13.2c-6.37,0-11.57,4.81-11.57,13.2C399.43,164.86,403.85,170.78,410.87,170.78Z"/>
        <path d="M450.59,139.9c10.2,0,17.61,7.61,17.61,17.75a17.27,17.27,0,0,1-17.68,17.74c-10.14,0-17.62-7.47-17.62-17.74A17.28,17.28,0,0,1,450.59,139.9Zm-.07,30.81c7.28,0,12.48-5.52,12.48-13.06s-5.2-13.07-12.48-13.07-12.35,5.66-12.35,13.07C438.17,165.25,443.3,170.71,450.52,170.71Z"/>
        <path d="M490.82,145c-7.74,0-10,6.11-10,13.32v16.19h-5.14v-33.8h5.07v5.65c1.17-3.38,4.94-6.5,10.08-6.5Z"/>
        <path d="M501.15,179.62a21.2,21.2,0,0,0,10.21,2.79c6.44,0,11.89-2.66,11.89-10.2v-3a13.62,13.62,0,0,1-11.7,6.17c-9.68,0-16.31-7.34-16.31-17.68s6.69-17.81,16.25-17.81a14,14,0,0,1,12,6.31v-5.46h4.94v29.12c0,12.8-7.22,17.16-17,17.16a24.72,24.72,0,0,1-12.09-3.38Zm10.73-35c-6.57,0-11.44,5.4-11.44,13.13s5.07,13,11.57,13c7,0,11.44-5.72,11.44-13C523.45,149.52,518.31,144.58,511.88,144.58Z"/>
    </g>
    <g>
        <path class="cls-1"
              d="M101.05,0,0,58.34v117H202.1v-117Zm90.26,164.51H106.45V119.8l84.86-49Zm-95.66,0H10.79V70.8l84.86,49Zm5.4-54.06-84.86-49,84.86-49,84.86,49Z"/>
        <polygon class="cls-2" points="191.31 70.8 106.45 119.8 106.45 164.51 191.31 164.51 191.31 70.8"/>
        <polygon class="cls-3" points="10.79 164.51 95.66 164.51 95.66 119.8 10.79 70.8 10.79 164.51"/>
        <polygon class="cls-4" points="16.19 61.46 101.05 110.45 185.91 61.46 101.05 12.46 16.19 61.46"/>
    </g>
</svg>