<svg xmlns="http://www.w3.org/2000/svg"  viewBox="0 0 64 64" width="50px" height="50px"><linearGradient id="JF4EbHgL0wEz4~oFxe1DNa" x1="32" x2="32" y1="7.957" y2="33.957" gradientUnits="userSpaceOnUse"><stop offset="0" stop-color="#6dc7ff"/><stop offset="1" stop-color="#e6abff"/></linearGradient><path fill="url(#JF4EbHgL0wEz4~oFxe1DNa)" d="M32,36c-7.168,0-13-5.832-13-13s5.832-13,13-13s13,5.832,13,13S39.168,36,32,36z M32,12 c-6.065,0-11,4.935-11,11s4.935,11,11,11s11-4.935,11-11S38.065,12,32,12z"/><g><linearGradient id="JF4EbHgL0wEz4~oFxe1DNb" x1="32" x2="32" y1="3.808" y2="59.25" gradientUnits="userSpaceOnUse"><stop offset="0" stop-color="#1a6dff"/><stop offset="1" stop-color="#c822ff"/></linearGradient><path fill="url(#JF4EbHgL0wEz4~oFxe1DNb)" d="M49,40c0,1.654-1.346,3-3,3h-6c-2.826,0-5.349,1.312-7,3.356v-6.406 C41.908,39.427,49,32.036,49,23c0-9.374-7.626-17-17-17s-17,7.626-17,17c0,9.036,7.092,16.427,16,16.949v6.406 C29.349,44.312,26.826,43,24,43h-6c-1.654,0-3-1.346-3-3h-2v4c0,4.963,4.038,9,9,9h6c1.654,0,3,1.346,3,3v2h2v-2 c0-1.654,1.346-3,3-3h6c4.962,0,9-4.037,9-9v-4H49z M17,23c0-8.271,6.729-15,15-15s15,6.729,15,15s-6.729,15-15,15S17,31.271,17,23 z M28,51h-6c-3.86,0-7-3.141-7-7v-0.026C15.838,44.609,16.87,45,18,45h6c3.86,0,7,3.141,7,7v0.026C30.162,51.391,29.13,51,28,51z M42,51h-6c-1.13,0-2.162,0.391-3,1.026V52c0-3.859,3.14-7,7-7h6c1.13,0,2.162-0.391,3-1.026V44C49,47.859,45.86,51,42,51z"/><linearGradient id="JF4EbHgL0wEz4~oFxe1DNc" x1="32" x2="32" y1="3.808" y2="59.25" gradientUnits="userSpaceOnUse"><stop offset="0" stop-color="#1a6dff"/><stop offset="1" stop-color="#c822ff"/></linearGradient><path fill="url(#JF4EbHgL0wEz4~oFxe1DNc)" d="M33,31.001v-2h2c1.654,0,3-1.346,3-3v-1c0-1.654-1.346-3-3-3h-6c-0.551,0-1-0.449-1-1v-2 c0-0.551,0.449-1,1-1h8v-2h-3.996L33,13.999l-2,0.004l0.004,1.998H29c-1.654,0-3,1.346-3,3v2c0,1.654,1.346,3,3,3h6 c0.551,0,1,0.449,1,1v1c0,0.551-0.449,1-1,1h-9v2h5v2H33z"/></g></svg>