<svg xmlns="http://www.w3.org/2000/svg"  viewBox="0 0 64 64" width="50px" height="50px"><linearGradient id="ZJddGvNQMWbMaIumDJZD6a" x1="32" x2="32" y1="4.711" y2="58.89" gradientUnits="userSpaceOnUse" spreadMethod="reflect"><stop offset="0" stop-color="#1a6dff"/><stop offset="1" stop-color="#c822ff"/></linearGradient><path fill="url(#ZJddGvNQMWbMaIumDJZD6a)" d="M32,5C17.112,5,5,17.112,5,32s12.112,27,27,27s27-12.112,27-27S46.888,5,32,5z"/><linearGradient id="ZJddGvNQMWbMaIumDJZD6b" x1="-504" x2="-503" y1="-505.695" y2="-505.695" gradientTransform="matrix(0 49.547 49.547 0 25096.682 24979.037)" gradientUnits="userSpaceOnUse" spreadMethod="reflect"><stop offset="0" stop-color="#8ad2ff"/><stop offset="1" stop-color="#ebbcff"/></linearGradient><path fill="url(#ZJddGvNQMWbMaIumDJZD6b)" d="M33,7.025v22.561l15.945-15.945C44.716,9.733,39.14,7.269,33,7.025"/><linearGradient id="ZJddGvNQMWbMaIumDJZD6c" x1="-504" x2="-503" y1="-505.695" y2="-505.695" gradientTransform="matrix(0 49.547 49.547 0 25078.736 24979.037)" gradientUnits="userSpaceOnUse" spreadMethod="reflect"><stop offset="0" stop-color="#f0f9ff"/><stop offset="1" stop-color="#fcf6ff"/></linearGradient><path fill="url(#ZJddGvNQMWbMaIumDJZD6c)" d="M31,7.025c-6.14,0.243-11.716,2.708-15.945,6.615L31,29.586V7.025"/><linearGradient id="ZJddGvNQMWbMaIumDJZD6d" x1="-504" x2="-503" y1="-505.695" y2="-505.695" gradientTransform="matrix(0 49.547 49.547 0 25074.016 24979.037)" gradientUnits="userSpaceOnUse" spreadMethod="reflect"><stop offset="0" stop-color="#e2f4ff"/><stop offset="1" stop-color="#faeeff"/></linearGradient><path fill="url(#ZJddGvNQMWbMaIumDJZD6d)" d="M13.641,15.055C9.733,19.284,7.269,24.86,7.025,31h22.56L13.641,15.055"/><linearGradient id="ZJddGvNQMWbMaIumDJZD6e" x1="-504" x2="-503" y1="-505.695" y2="-505.695" gradientTransform="matrix(0 49.547 49.547 0 25074.016 24979.037)" gradientUnits="userSpaceOnUse" spreadMethod="reflect"><stop offset="0" stop-color="#d3eeff"/><stop offset="1" stop-color="#f7e6ff"/></linearGradient><path fill="url(#ZJddGvNQMWbMaIumDJZD6e)" d="M29.586,33H7.025c0.243,6.14,2.708,11.716,6.615,15.945L29.586,33"/><g><linearGradient id="ZJddGvNQMWbMaIumDJZD6f" x1="-504" x2="-503" y1="-505.695" y2="-505.695" gradientTransform="matrix(0 49.547 49.547 0 25078.736 24979.037)" gradientUnits="userSpaceOnUse" spreadMethod="reflect"><stop offset="0" stop-color="#c5e9ff"/><stop offset="1" stop-color="#f5ddff"/></linearGradient><path fill="url(#ZJddGvNQMWbMaIumDJZD6f)" d="M31,34.414L15.055,50.359c4.229,3.907,9.806,6.372,15.945,6.615V34.414"/></g><g><linearGradient id="ZJddGvNQMWbMaIumDJZD6g" x1="-504" x2="-503" y1="-505.695" y2="-505.695" gradientTransform="matrix(0 49.547 49.547 0 25096.682 24979.037)" gradientUnits="userSpaceOnUse" spreadMethod="reflect"><stop offset="0" stop-color="#b6e3ff"/><stop offset="1" stop-color="#f2d5ff"/></linearGradient><path fill="url(#ZJddGvNQMWbMaIumDJZD6g)" d="M33,34.414v22.561c6.14-0.243,11.716-2.708,15.945-6.615L33,34.414"/></g><g><linearGradient id="ZJddGvNQMWbMaIumDJZD6h" x1="-504" x2="-503" y1="-505.695" y2="-505.695" gradientTransform="matrix(0 49.547 49.547 0 25101.404 24979.037)" gradientUnits="userSpaceOnUse" spreadMethod="reflect"><stop offset="0" stop-color="#a7ddff"/><stop offset="1" stop-color="#f0cdff"/></linearGradient><path fill="url(#ZJddGvNQMWbMaIumDJZD6h)" d="M56.975,33H34.414l15.945,15.945C54.267,44.716,56.731,39.14,56.975,33"/></g><g><linearGradient id="ZJddGvNQMWbMaIumDJZD6i" x1="-504" x2="-503" y1="-505.695" y2="-505.695" gradientTransform="matrix(0 49.547 49.547 0 25101.404 24979.037)" gradientUnits="userSpaceOnUse" spreadMethod="reflect"><stop offset="0" stop-color="#99d8ff"/><stop offset="1" stop-color="#edc4ff"/></linearGradient><path fill="url(#ZJddGvNQMWbMaIumDJZD6i)" d="M50.359,15.055L34.414,31h22.561C56.731,24.86,54.267,19.284,50.359,15.055"/></g></svg>