<svg xmlns="http://www.w3.org/2000/svg"  viewBox="0 0 64 64" width="50px" height="50px"><linearGradient id="m~XQahh1P9TJ1f~SX0BC6a" x1="21.084" x2="21.084" y1="5" y2="59.547" gradientUnits="userSpaceOnUse"><stop offset="0" stop-color="#1a6dff"/><stop offset="1" stop-color="#c822ff"/></linearGradient><path fill="url(#m~XQahh1P9TJ1f~SX0BC6a)" d="M21.084,7.001c8.271,0,15,6.729,15,15s-6.729,15-15,15s-15-6.729-15-15	S12.813,7.001,21.084,7.001 M21.084,5.001c-9.389,0-17,7.611-17,17s7.611,17,17,17s17-7.611,17-17S30.473,5.001,21.084,5.001	L21.084,5.001z"/><linearGradient id="m~XQahh1P9TJ1f~SX0BC6b" x1="55.657" x2="55.657" y1="19.964" y2="26.651" gradientUnits="userSpaceOnUse"><stop offset="0" stop-color="#6dc7ff"/><stop offset="1" stop-color="#e6abff"/></linearGradient><path fill="url(#m~XQahh1P9TJ1f~SX0BC6b)" d="M59,23.308c0,1.847-1.497,3.343-3.343,3.343c-1.846,0-3.343-1.497-3.343-3.343	c0-1.847,1.497-3.343,3.343-3.343C57.503,19.964,59,21.461,59,23.308z"/><linearGradient id="m~XQahh1P9TJ1f~SX0BC6c" x1="46.084" x2="46.084" y1="4.937" y2="59.065" gradientUnits="userSpaceOnUse"><stop offset="0" stop-color="#1a6dff"/><stop offset="1" stop-color="#c822ff"/></linearGradient><path fill="url(#m~XQahh1P9TJ1f~SX0BC6c)" d="M46.084,29.001c2.481,0,4.5,2.019,4.5,4.5c0,2.481-2.019,4.5-4.5,4.5	c-2.481,0-4.5-2.019-4.5-4.5C41.584,31.019,43.603,29.001,46.084,29.001 M46.084,27.001c-3.59,0-6.5,2.91-6.5,6.5	c0,3.59,2.91,6.5,6.5,6.5c3.59,0,6.5-2.91,6.5-6.5C52.584,29.911,49.674,27.001,46.084,27.001L46.084,27.001z"/><linearGradient id="m~XQahh1P9TJ1f~SX0BC6d" x1="46" x2="46" y1="4.888" y2="59.35" gradientUnits="userSpaceOnUse"><stop offset="0" stop-color="#1a6dff"/><stop offset="1" stop-color="#c822ff"/></linearGradient><path fill="url(#m~XQahh1P9TJ1f~SX0BC6d)" d="M46,45c3.308,0,6,2.692,6,6c0,3.308-2.692,6-6,6c-3.308,0-6-2.691-6-6	C40,47.692,42.692,45,46,45 M46,43c-4.419,0-8,3.582-8,8c0,4.418,3.581,8,8,8s8-3.581,8-8C54,46.582,50.419,43,46,43L46,43z"/><linearGradient id="m~XQahh1P9TJ1f~SX0BC6e" x1="21.084" x2="21.084" y1="9.001" y2="35.001" gradientUnits="userSpaceOnUse"><stop offset="0" stop-color="#6dc7ff"/><stop offset="1" stop-color="#e6abff"/></linearGradient><circle cx="21.084" cy="22.001" r="13" fill="url(#m~XQahh1P9TJ1f~SX0BC6e)"/><linearGradient id="m~XQahh1P9TJ1f~SX0BC6f" x1="48" x2="48" y1="47" y2="51" gradientUnits="userSpaceOnUse"><stop offset="0" stop-color="#6dc7ff"/><stop offset="1" stop-color="#e6abff"/></linearGradient><path fill="none" stroke="url(#m~XQahh1P9TJ1f~SX0BC6f)" stroke-miterlimit="10" stroke-width="2" d="M46,48c1.654,0,3,1.346,3,3"/><linearGradient id="m~XQahh1P9TJ1f~SX0BC6g" x1="46.084" x2="46.084" y1="4.937" y2="59.065" gradientUnits="userSpaceOnUse"><stop offset="0" stop-color="#1a6dff"/><stop offset="1" stop-color="#c822ff"/></linearGradient><path fill="url(#m~XQahh1P9TJ1f~SX0BC6g)" d="M46.084,29.001c2.481,0,4.5,2.019,4.5,4.5c0,2.481-2.019,4.5-4.5,4.5	c-2.481,0-4.5-2.019-4.5-4.5C41.584,31.019,43.603,29.001,46.084,29.001 M46.084,27.001c-3.59,0-6.5,2.91-6.5,6.5	c0,3.59,2.91,6.5,6.5,6.5c3.59,0,6.5-2.91,6.5-6.5C52.584,29.911,49.674,27.001,46.084,27.001L46.084,27.001z"/><linearGradient id="m~XQahh1P9TJ1f~SX0BC6h" x1="46.084" x2="46.084" y1="28.948" y2="38.032" gradientUnits="userSpaceOnUse"><stop offset="0" stop-color="#6dc7ff"/><stop offset="1" stop-color="#e6abff"/></linearGradient><path fill="url(#m~XQahh1P9TJ1f~SX0BC6h)" d="M46.084,29.001c2.481,0,4.5,2.019,4.5,4.5c0,2.481-2.019,4.5-4.5,4.5	c-2.481,0-4.5-2.019-4.5-4.5C41.584,31.019,43.603,29.001,46.084,29.001"/></svg>