<svg xmlns="http://www.w3.org/2000/svg"  viewBox="0 0 64 64" width="50px" height="50px"><linearGradient id="gyCtoG0xsloMk30LV1qj~a" x1="26" x2="26" y1="9.936" y2="52.98" gradientUnits="userSpaceOnUse"><stop offset="0" stop-color="#6dc7ff"/><stop offset="1" stop-color="#e6abff"/></linearGradient><rect width="12" height="2" x="20" y="53" fill="url(#gyCtoG0xsloMk30LV1qj~a)"/><linearGradient id="gyCtoG0xsloMk30LV1qj~b" x1="19.5" x2="19.5" y1="9.936" y2="52.98" gradientUnits="userSpaceOnUse"><stop offset="0" stop-color="#6dc7ff"/><stop offset="1" stop-color="#e6abff"/></linearGradient><rect width="25" height="2" x="7" y="29" fill="url(#gyCtoG0xsloMk30LV1qj~b)"/><linearGradient id="gyCtoG0xsloMk30LV1qj~c" x1="19.5" x2="19.5" y1="9.936" y2="52.98" gradientUnits="userSpaceOnUse"><stop offset="0" stop-color="#6dc7ff"/><stop offset="1" stop-color="#e6abff"/></linearGradient><rect width="25" height="2" x="7" y="25" fill="url(#gyCtoG0xsloMk30LV1qj~c)"/><linearGradient id="gyCtoG0xsloMk30LV1qj~d" x1="20.5" x2="20.5" y1="9.936" y2="52.98" gradientUnits="userSpaceOnUse"><stop offset="0" stop-color="#6dc7ff"/><stop offset="1" stop-color="#e6abff"/></linearGradient><rect width="23" height="2" x="9" y="21" fill="url(#gyCtoG0xsloMk30LV1qj~d)"/><linearGradient id="gyCtoG0xsloMk30LV1qj~e" x1="21.5" x2="21.5" y1="9.936" y2="52.98" gradientUnits="userSpaceOnUse"><stop offset="0" stop-color="#6dc7ff"/><stop offset="1" stop-color="#e6abff"/></linearGradient><rect width="21" height="2" x="11" y="17" fill="url(#gyCtoG0xsloMk30LV1qj~e)"/><linearGradient id="gyCtoG0xsloMk30LV1qj~f" x1="23.5" x2="23.5" y1="9.936" y2="52.98" gradientUnits="userSpaceOnUse"><stop offset="0" stop-color="#6dc7ff"/><stop offset="1" stop-color="#e6abff"/></linearGradient><rect width="17" height="2" x="15" y="13" fill="url(#gyCtoG0xsloMk30LV1qj~f)"/><linearGradient id="gyCtoG0xsloMk30LV1qj~g" x1="26" x2="26" y1="9.936" y2="52.98" gradientUnits="userSpaceOnUse"><stop offset="0" stop-color="#6dc7ff"/><stop offset="1" stop-color="#e6abff"/></linearGradient><rect width="12" height="2" x="20" y="9" fill="url(#gyCtoG0xsloMk30LV1qj~g)"/><linearGradient id="gyCtoG0xsloMk30LV1qj~h" x1="20" x2="20" y1="9.936" y2="52.98" gradientUnits="userSpaceOnUse"><stop offset="0" stop-color="#6dc7ff"/><stop offset="1" stop-color="#e6abff"/></linearGradient><rect width="24" height="2" x="8" y="37" fill="url(#gyCtoG0xsloMk30LV1qj~h)"/><linearGradient id="gyCtoG0xsloMk30LV1qj~i" x1="19.5" x2="19.5" y1="9.936" y2="52.98" gradientUnits="userSpaceOnUse"><stop offset="0" stop-color="#6dc7ff"/><stop offset="1" stop-color="#e6abff"/></linearGradient><rect width="25" height="2" x="7" y="33" fill="url(#gyCtoG0xsloMk30LV1qj~i)"/><linearGradient id="gyCtoG0xsloMk30LV1qj~j" x1="21.5" x2="21.5" y1="9.936" y2="52.98" gradientUnits="userSpaceOnUse"><stop offset="0" stop-color="#6dc7ff"/><stop offset="1" stop-color="#e6abff"/></linearGradient><rect width="21" height="2" x="11" y="45" fill="url(#gyCtoG0xsloMk30LV1qj~j)"/><linearGradient id="gyCtoG0xsloMk30LV1qj~k" x1="20.5" x2="20.5" y1="9.936" y2="52.98" gradientUnits="userSpaceOnUse"><stop offset="0" stop-color="#6dc7ff"/><stop offset="1" stop-color="#e6abff"/></linearGradient><rect width="23" height="2" x="9" y="41" fill="url(#gyCtoG0xsloMk30LV1qj~k)"/><linearGradient id="gyCtoG0xsloMk30LV1qj~l" x1="23.5" x2="23.5" y1="9.936" y2="52.98" gradientUnits="userSpaceOnUse"><stop offset="0" stop-color="#6dc7ff"/><stop offset="1" stop-color="#e6abff"/></linearGradient><rect width="17" height="2" x="15" y="49" fill="url(#gyCtoG0xsloMk30LV1qj~l)"/><g><linearGradient id="gyCtoG0xsloMk30LV1qj~m" x1="32" x2="32" y1="5.723" y2="58.199" gradientUnits="userSpaceOnUse"><stop offset="0" stop-color="#1a6dff"/><stop offset="1" stop-color="#c822ff"/></linearGradient><path fill="url(#gyCtoG0xsloMk30LV1qj~m)" d="M32,58C17.664,58,6,46.337,6,32S17.664,6,32,6s26,11.663,26,26S46.336,58,32,58z M32,8 C18.767,8,8,18.767,8,32s10.767,24,24,24s24-10.767,24-24S45.233,8,32,8z"/></g></svg>