<svg xmlns="http://www.w3.org/2000/svg"  viewBox="0 0 64 64" width="50px" height="50px"><linearGradient id="6AuDvZldH2OwqQZl7S6Zia" x1="32" x2="32" y1="5.213" y2="52.646" gradientUnits="userSpaceOnUse"><stop offset="0" stop-color="#1a6dff"/><stop offset="1" stop-color="#c822ff"/></linearGradient><path fill="url(#6AuDvZldH2OwqQZl7S6Zia)" d="M52.725,37.625C53.535,35.226,54,32.669,54,30C54,16.767,43.233,6,30,6S6,16.767,6,30 s10.767,24,24,24c2.669,0,5.228-0.461,7.628-1.27C39.564,55.885,43.035,58,47,58c6.065,0,11-4.935,11-11 C58,43.033,55.882,39.561,52.725,37.625z M30,52C17.869,52,8,42.131,8,30S17.869,8,30,8s22,9.869,22,22 c0,2.352-0.39,4.61-1.076,6.736c-0.624-0.24-1.273-0.426-1.946-0.548C49.621,34.235,50,32.165,50,30c0-11.028-8.972-20-20-20 s-20,8.972-20,20s8.972,20,20,20c2.165,0,4.235-0.379,6.188-1.022c0.123,0.672,0.309,1.321,0.548,1.945 C34.61,51.61,32.352,52,30,52z M36.003,46.944C34.122,47.614,32.108,48,30,48c-9.925,0-18-8.075-18-18s8.075-18,18-18 s18,8.075,18,18c0,2.109-0.391,4.122-1.063,6.003C40.92,36.037,36.034,40.926,36.003,46.944z M47,56c-4.963,0-9-4.038-9-9 s4.037-9,9-9s9,4.038,9,9S51.963,56,47,56z"/><linearGradient id="6AuDvZldH2OwqQZl7S6Zib" x1="47.5" x2="47.5" y1="5.213" y2="52.646" gradientUnits="userSpaceOnUse"><stop offset="0" stop-color="#1a6dff"/><stop offset="1" stop-color="#c822ff"/></linearGradient><path fill="url(#6AuDvZldH2OwqQZl7S6Zib)" d="M45.999,48.505l-2.292-2.384l-1.414,1.471l2.292,2.384c0.39,0.406,0.902,0.608,1.415,0.608 s1.025-0.202,1.415-0.608l5.292-5.505L51.293,43L45.999,48.505z"/><g><linearGradient id="6AuDvZldH2OwqQZl7S6Zic" x1="30" x2="30" y1="16.511" y2="40.128" gradientUnits="userSpaceOnUse"><stop offset="0" stop-color="#6dc7ff"/><stop offset="1" stop-color="#e6abff"/></linearGradient><path fill="url(#6AuDvZldH2OwqQZl7S6Zic)" d="M34,29.001h-8c-0.551,0-1-0.449-1-1v-4c0-0.551,0.449-1,1-1h10v-2h-4.996L31,18.999l-2,0.004 l0.004,1.998H26c-1.654,0-3,1.346-3,3v4c0,1.654,1.346,3,3,3h8c0.551,0,1,0.449,1,1v3c0,0.551-0.449,1-1,1H23v2h6v2h2v-2h3 c1.654,0,3-1.346,3-3v-3C37,30.347,35.654,29.001,34,29.001z"/></g></svg>