<svg xmlns="http://www.w3.org/2000/svg"  viewBox="0 0 64 64" width="50px" height="50px"><linearGradient id="xa2lp5WX5DKZtnVejwwcXa" x1="32" x2="32" y1="5.667" y2="58.673" gradientUnits="userSpaceOnUse" spreadMethod="reflect"><stop offset="0" stop-color="#1a6dff"/><stop offset="1" stop-color="#c822ff"/></linearGradient><path fill="url(#xa2lp5WX5DKZtnVejwwcXa)" d="M46,58H18c-4.411,0-8-3.589-8-8V14c0-4.411,3.589-8,8-8h28c4.411,0,8,3.589,8,8v36 C54,54.411,50.411,58,46,58z M18,8c-3.309,0-6,2.691-6,6v36c0,3.309,2.691,6,6,6h28c3.309,0,6-2.691,6-6V14c0-3.309-2.691-6-6-6H18z"/><linearGradient id="xa2lp5WX5DKZtnVejwwcXb" x1="32" x2="32" y1="5.667" y2="58.673" gradientUnits="userSpaceOnUse" spreadMethod="reflect"><stop offset="0" stop-color="#1a6dff"/><stop offset="1" stop-color="#c822ff"/></linearGradient><path fill="url(#xa2lp5WX5DKZtnVejwwcXb)" d="M45,54H19c-2.757,0-5-2.243-5-5V15c0-2.757,2.243-5,5-5h26c2.757,0,5,2.243,5,5v34 C50,51.757,47.757,54,45,54z M19,12c-1.654,0-3,1.346-3,3v34c0,1.654,1.346,3,3,3h26c1.654,0,3-1.346,3-3V15c0-1.654-1.346-3-3-3H19 z"/><linearGradient id="xa2lp5WX5DKZtnVejwwcXc" x1="32.008" x2="32.008" y1="14.25" y2="49.627" gradientUnits="userSpaceOnUse" spreadMethod="reflect"><stop offset="0" stop-color="#6dc7ff"/><stop offset="1" stop-color="#e6abff"/></linearGradient><path fill="url(#xa2lp5WX5DKZtnVejwwcXc)" d="M41.469,37.76l-7.533-5.806l7.529-5.763c0.722-0.555,1.15-1.395,1.174-2.306 c0.023-0.908-0.358-1.769-1.05-2.359l-7.38-6.306l-0.081-0.062c-0.613-0.425-1.402-0.474-2.058-0.129 C31.41,15.376,31,16.057,31,16.806v12.886l-8.402-6.476L21.377,24.8l9.275,7.149l-9.271,7.096l1.215,1.588L31,34.201v12.994 c0,0.745,0.407,1.421,1.063,1.765c0.29,0.153,0.607,0.229,0.923,0.229c0.4,0,0.8-0.121,1.144-0.359l7.454-6.38 c0.694-0.591,1.078-1.457,1.055-2.376C42.615,39.155,42.188,38.313,41.469,37.76z M40.29,23.047c0.229,0.197,0.357,0.483,0.35,0.787 c-0.008,0.305-0.151,0.586-0.392,0.771l-7.249,5.548l-0.008-13.342L40.29,23.047z M40.285,40.928L33,47.17V33.758l7.249,5.587 c0.24,0.185,0.382,0.468,0.391,0.778C40.647,40.436,40.519,40.729,40.285,40.928z"/></svg>