<svg xmlns="http://www.w3.org/2000/svg"  viewBox="0 0 64 64" width="50px" height="50px"><linearGradient id="BG0MYzNzkhxGntsM~i33Ea" x1="32" x2="32" y1="60" y2="7" gradientTransform="matrix(1 0 0 -1 0 66)" gradientUnits="userSpaceOnUse" spreadMethod="reflect"><stop offset="0" stop-color="#1a6dff"/><stop offset="1" stop-color="#c822ff"/></linearGradient><path fill="url(#BG0MYzNzkhxGntsM~i33Ea)" d="M43,23V8c0-1.1-0.9-2-2-2H23c-1.1,0-2,0.9-2,2v15c-2.2,0-4,1.8-4,4v18c0,3.9,3.1,7,7,7h4v5c0,1.1,0.9,2,2,2h4 c1.1,0,2-0.9,2-2v-5h4c3.9,0,7-3.1,7-7V27C47,24.8,45.2,23,43,23z M23,8h18v15H23V8z M34,57h-4v-5h4V57z M45,45c0,2.8-2.2,5-5,5H24 c-2.8,0-5-2.2-5-5V27c0-1.1,0.9-2,2-2h22c1.1,0,2,0.9,2,2V45z"/><linearGradient id="BG0MYzNzkhxGntsM~i33Eb" x1="27.5" x2="27.5" y1="51" y2="48" gradientTransform="matrix(1 0 0 -1 0 66)" gradientUnits="userSpaceOnUse" spreadMethod="reflect"><stop offset="0" stop-color="#6dc7ff"/><stop offset="1" stop-color="#e6abff"/></linearGradient><path fill="url(#BG0MYzNzkhxGntsM~i33Eb)" d="M25 15H30V18H25z"/><linearGradient id="BG0MYzNzkhxGntsM~i33Ec" x1="36.5" x2="36.5" y1="51" y2="48" gradientTransform="matrix(1 0 0 -1 0 66)" gradientUnits="userSpaceOnUse" spreadMethod="reflect"><stop offset="0" stop-color="#6dc7ff"/><stop offset="1" stop-color="#e6abff"/></linearGradient><path fill="url(#BG0MYzNzkhxGntsM~i33Ec)" d="M34 15H39V18H34z"/><linearGradient id="BG0MYzNzkhxGntsM~i33Ed" x1="32" x2="32" y1="38" y2="30" gradientTransform="matrix(1 0 0 -1 0 66)" gradientUnits="userSpaceOnUse" spreadMethod="reflect"><stop offset="0" stop-color="#6dc7ff"/><stop offset="1" stop-color="#e6abff"/></linearGradient><path fill="url(#BG0MYzNzkhxGntsM~i33Ed)" d="M32 28A4 4 0 1 0 32 36A4 4 0 1 0 32 28Z"/></svg>