<svg xmlns="http://www.w3.org/2000/svg"  viewBox="0 0 64 64" width="50px" height="50px"><linearGradient id="SVGID_1_" x1="32" x2="32" y1="6.489" y2="57.656" gradientUnits="userSpaceOnUse"><stop offset="0" stop-color="#1a6dff"/><stop offset="1" stop-color="#c822ff"/></linearGradient><path fill="url(#SVGID_1_)" d="M52,26c0-1.5-0.9-2.9-2.1-3.5c0.2-0.3,0.5-0.6,0.6-1c0.4-1,0.4-2.1,0-3.1c-0.6-1.4-1.9-2.3-3.4-2.5 c0.4-1.4,0.1-3-1-4.1c-1.1-1.1-2.6-1.4-4-1c0-0.4-0.1-0.8-0.3-1.2c-0.4-1-1.2-1.8-2.2-2.2c-1-0.4-2.1-0.4-3.1,0 c-0.4,0.2-0.8,0.4-1.1,0.7C34.9,6.9,33.5,6,32,6c-1.5,0-2.8,0.9-3.5,2.1c-1.1-0.9-2.7-1.2-4.1-0.6c-1,0.4-1.8,1.2-2.2,2.2 c-0.2,0.4-0.3,0.8-0.3,1.2c-1.4-0.4-3-0.1-4.1,1c-1.1,1.1-1.4,2.6-1,4c-1.4,0.1-2.7,1-3.3,2.4c-0.4,1-0.4,2.1,0,3.1 c0.2,0.4,0.4,0.8,0.7,1.1c-1.3,0.7-2.2,2-2.2,3.6c0,1.5,0.8,2.8,2.1,3.5c-0.9,1.1-1.2,2.6-0.6,4.1c0.6,1.4,1.9,2.4,3.4,2.5 c-0.1,0.4-0.2,0.8-0.2,1.3c0,1.1,0.4,2.1,1.2,2.8c0,0,0.1,0.1,0.1,0.1v14.6c0,1,0.5,2,1.4,2.5c0.5,0.3,1.1,0.5,1.6,0.5 c0.4,0,0.9-0.1,1.3-0.3l8.5-3.9c0.8-0.4,1.7-0.4,2.5,0l8.5,3.9c0.9,0.4,2,0.4,2.9-0.2c0.9-0.6,1.4-1.5,1.4-2.5V40.3 c0,0,0.1-0.1,0.1-0.1c0.8-0.8,1.2-1.8,1.2-2.8c0-0.4-0.1-0.8-0.2-1.2c0.4,0,0.8-0.1,1.1-0.3c1-0.4,1.8-1.2,2.2-2.2 c0.6-1.4,0.3-3-0.6-4.1C51.1,28.9,52,27.6,52,26z M44,54.9c0,0.3-0.2,0.7-0.5,0.8c-0.3,0.2-0.6,0.2-1,0.1l-8.5-3.9 c-1.3-0.6-2.9-0.6-4.2,0l-8.5,3.9c-0.3,0.1-0.7,0.1-1-0.1c-0.3-0.2-0.5-0.5-0.5-0.8V41.2c0.6,0.1,1.2,0.1,1.8-0.1 c0.1,1.4,1,2.7,2.4,3.3c1,0.4,2.1,0.4,3.1,0c0.4-0.2,0.8-0.4,1.1-0.7c0.7,1.3,2,2.2,3.6,2.2c1.5,0,2.9-0.9,3.5-2.1 c0.3,0.2,0.6,0.4,1,0.6c1,0.4,2.1,0.4,3.1,0c1.4-0.6,2.3-1.9,2.5-3.4c0.6,0.2,1.3,0.2,2,0.1V54.9z M48,28h-1l-0.4,1.9l0.9,0.4 c1,0.4,1.5,1.6,1.1,2.6c-0.2,0.5-0.6,0.9-1.1,1.1c-0.5,0.2-1,0.2-1.5,0l-0.7-0.3l-1.1,1.6l0.6,0.6c0.4,0.4,0.6,0.9,0.6,1.4 s-0.2,1-0.6,1.4c-0.8,0.8-2.1,0.8-2.8,0L41.1,38l-1.6,1.1l0.4,1c0.4,1-0.1,2.2-1.1,2.6c-0.5,0.2-1,0.2-1.5,0 c-0.5-0.2-0.9-0.6-1.1-1.1l-0.3-0.7L34,41.2V42c0,1.1-0.9,2-2,2s-2-0.9-2-2v-1.1l-1.9-0.4l-0.4,1c-0.2,0.5-0.6,0.9-1.1,1.1 c-0.5,0.2-1,0.2-1.5,0C24,42.2,23.5,41,24,40l0.3-0.7l-1.6-1.1l-0.5,0.5c-0.8,0.8-2.1,0.8-2.8,0c-0.4-0.4-0.6-0.9-0.6-1.4 s0.2-1,0.6-1.4l0.8-0.8L19,33.5l-1,0.4c-1,0.4-2.2-0.1-2.6-1.1c-0.2-0.5-0.2-1,0-1.5c0.2-0.5,0.6-0.9,1.1-1.1l0.7-0.3L16.7,28H16 c-1.1,0-2-0.9-2-2s0.9-2,2-2h1.1l0.4-1.9l-1-0.4c-0.5-0.2-0.9-0.6-1.1-1.1c-0.2-0.5-0.2-1,0-1.5c0.4-1,1.6-1.5,2.6-1.1l0.7,0.3 l1.1-1.6l-0.5-0.5c-0.8-0.8-0.8-2,0-2.8c0.8-0.8,2-0.8,2.8,0l0.7,0.7l1.6-1.1l-0.4-1c-0.2-0.5-0.2-1,0-1.5c0.2-0.5,0.6-0.9,1.1-1.1 c1-0.4,2.2,0.1,2.6,1.1l0.3,0.8l1.9-0.4V10c0-1.1,0.9-2,2-2s2,0.9,2,2v1l1.9,0.4l0.4-0.9c0.2-0.5,0.6-0.9,1.1-1.1 c0.5-0.2,1-0.2,1.5,0c0.5,0.2,0.9,0.6,1.1,1.1c0.2,0.5,0.2,1,0,1.5l-0.3,0.8l1.6,1.1l0.6-0.6c0.8-0.8,2-0.8,2.8,0 c0.8,0.8,0.8,2,0,2.8L44,16.8l1.1,1.6l0.9-0.4c1-0.4,2.2,0.1,2.6,1.1c0.2,0.5,0.2,1,0,1.5c-0.2,0.5-0.6,0.9-1.1,1.1l-0.8,0.3 l0.4,1.9H48c1.1,0,2,0.9,2,2S49.1,28,48,28z"/><linearGradient id="SVGID_2_" x1="32" x2="32" y1="6.489" y2="57.656" gradientUnits="userSpaceOnUse"><stop offset="0" stop-color="#1a6dff"/><stop offset="1" stop-color="#c822ff"/></linearGradient><path fill="url(#SVGID_2_)" d="M32,14c-6.6,0-12,5.4-12,12s5.4,12,12,12s12-5.4,12-12S38.6,14,32,14z M32,36c-5.5,0-10-4.5-10-10 s4.5-10,10-10s10,4.5,10,10S37.5,36,32,36z"/><g><linearGradient id="SVGID_3_" x1="32" x2="32" y1="19" y2="32.199" gradientUnits="userSpaceOnUse"><stop offset="0" stop-color="#6dc7ff"/><stop offset="1" stop-color="#e6abff"/></linearGradient><circle cx="32" cy="26" r="7" fill="url(#SVGID_3_)"/></g></svg>