<svg xmlns="http://www.w3.org/2000/svg"  viewBox="0 0 64 64" width="50px" height="50px"><linearGradient id="LHDErny~JzNcbF1Dongzka" x1="32" x2="32" y1="9.125" y2="54.913" gradientUnits="userSpaceOnUse" spreadMethod="reflect"><stop offset="0" stop-color="#1a6dff"/><stop offset="1" stop-color="#c822ff"/></linearGradient><path fill="url(#LHDErny~JzNcbF1Dongzka)" d="M55,18h-7v2h7c0.552,0,1,0.448,1,1v0.667c0,0.645-0.213,1.284-0.6,1.8L46,36 c-0.939,1.252-2.435,2-4,2H26.721c-1.289,0-2.395-0.835-2.811-2H35v-2H23.646l-0.143-2H31v-2h-7.64l-1.23-17.217 C22.018,11.223,20.705,10,19.141,10H9c-1.654,0-3,1.346-3,3s1.346,3,3,3h6c1.654,0,3-1.346,3-3v-1h1.141 c0.521,0,0.957,0.407,0.995,0.926l1.603,22.435c0.185,2.602,2.373,4.64,4.982,4.64H42c2.191,0,4.285-1.047,5.6-2.801L57,24.667 c0.645-0.859,1-1.925,1-3V21C58,19.346,56.654,18,55,18z M16,13c0,0.552-0.448,1-1,1H9c-0.552,0-1-0.448-1-1s0.448-1,1-1h7V13z"/><linearGradient id="LHDErny~JzNcbF1Dongzkb" x1="35" x2="35" y1="9.125" y2="54.913" gradientUnits="userSpaceOnUse" spreadMethod="reflect"><stop offset="0" stop-color="#1a6dff"/><stop offset="1" stop-color="#c822ff"/></linearGradient><path fill="url(#LHDErny~JzNcbF1Dongzkb)" d="M44,44c-2.415,0-4.434,1.721-4.899,4h-8.202c-0.465-2.279-2.484-4-4.899-4 c-2.757,0-5,2.243-5,5s2.243,5,5,5c2.415,0,4.434-1.721,4.899-4h8.202c0.465,2.279,2.484,4,4.899,4c2.757,0,5-2.243,5-5 S46.757,44,44,44z M26,52c-1.654,0-3-1.346-3-3s1.346-3,3-3s3,1.346,3,3S27.654,52,26,52z M44,52c-1.654,0-3-1.346-3-3s1.346-3,3-3 s3,1.346,3,3S45.654,52,44,52z"/><linearGradient id="LHDErny~JzNcbF1Dongzkc" x1="36.703" x2="36.703" y1="12.75" y2="27.284" gradientUnits="userSpaceOnUse" spreadMethod="reflect"><stop offset="0" stop-color="#6dc7ff"/><stop offset="1" stop-color="#e6abff"/></linearGradient><path fill="url(#LHDErny~JzNcbF1Dongzkc)" d="M39.875,16H36v-2.043c0-0.753-0.64-1.21-1.296-0.807l-4.805,3.088 c-0.617,0.379-0.678,1.25-0.056,1.621c1.397,0.832,3.455,2.133,4.907,2.998c0.657,0.391,1.25-0.069,1.25-0.816V18h4 c1.105,0,2,0.895,2,2v7l2,0v-6.875C44,17.847,42.153,16,39.875,16z"/></svg>