<svg xmlns="http://www.w3.org/2000/svg"  viewBox="0 0 64 64" width="50px" height="50px"><linearGradient id="QE8AXjBFF4quOX4v6Wf_1a" x1="20.581" x2="20.581" y1="32.247" y2="54.362" gradientUnits="userSpaceOnUse" spreadMethod="reflect"><stop offset="0" stop-color="#6dc7ff"/><stop offset="1" stop-color="#e6abff"/></linearGradient><path fill="url(#QE8AXjBFF4quOX4v6Wf_1a)" d="M30.915,34.486l-1.41-1.418L16.59,45.909c-1.607-0.965-3.729-0.768-5.115,0.612 c-0.793,0.788-1.229,1.836-1.229,2.951c0,1.113,0.436,2.158,1.226,2.944c0.813,0.81,1.883,1.214,2.952,1.214 c1.072,0,2.145-0.406,2.961-1.219c0.793-0.788,1.229-1.836,1.23-2.951c0-0.768-0.221-1.498-0.609-2.139L30.915,34.486z M15.975,50.994c-0.853,0.851-2.24,0.854-3.093,0.005c-0.41-0.407-0.636-0.949-0.636-1.526c0-0.578,0.228-1.123,0.64-1.533 c0.428-0.426,0.99-0.639,1.552-0.639c0.559,0,1.117,0.211,1.542,0.634c0.41,0.407,0.636,0.949,0.636,1.526 C16.615,50.039,16.388,50.584,15.975,50.994z"/><linearGradient id="QE8AXjBFF4quOX4v6Wf_1b" x1="32" x2="32" y1="5.497" y2="59.249" gradientUnits="userSpaceOnUse" spreadMethod="reflect"><stop offset="0" stop-color="#1a6dff"/><stop offset="1" stop-color="#c822ff"/></linearGradient><path fill="url(#QE8AXjBFF4quOX4v6Wf_1b)" d="M14.415,57.849c-2.156,0.001-4.31-0.814-5.949-2.444C6.876,53.824,6,51.721,6,49.482 c0-2.245,0.88-4.355,2.477-5.943c1.819-1.811,4.365-2.688,6.916-2.403l16.441-16.348c-1.551-1.84-2.365-4.023-2.365-6.369 c0-3.03,1.354-6.045,3.813-8.49c4.763-4.735,11.355-5.054,15.673-0.761l0.713,0.709l-6.852,6.813 c-0.212,0.211-0.329,0.491-0.33,0.789l-0.003,2.979c0,0.295,0.115,0.572,0.324,0.782c0.212,0.212,0.496,0.329,0.799,0.329h0.001 l2.997-0.003c0.297-0.001,0.589-0.121,0.801-0.331l6.844-6.805l0.705,0.701C56.946,17.114,58,19.573,58,22.242 c0,3.029-1.354,6.044-3.813,8.488c-4.498,4.475-10.631,5.005-14.937,1.432L22.824,48.496c0.384,2.509-0.471,4.94-2.439,6.898 C18.738,57.031,16.575,57.849,14.415,57.849z M14.446,43.083c-1.696,0-3.343,0.664-4.56,1.874S8,47.773,8,49.482 c0,1.702,0.666,3.302,1.876,4.505c2.506,2.49,6.587,2.483,9.099-0.011c1.608-1.6,2.245-3.588,1.793-5.597l-0.121-0.539L39.22,29.373 l0.705,0.701c3.557,3.536,8.842,3.226,12.853-0.762C54.855,27.246,56,24.735,56,22.242c0-1.809-0.615-3.504-1.789-4.954 l-5.397,5.366c-0.591,0.587-1.375,1.127-2.207,1.128L43.608,24h-0.003c-0.837,0-1.623-0.541-2.213-1.13 c-0.588-0.588-0.911-1.476-0.91-2.306l0.003-3.034c0.001-0.833,0.328-1.642,0.92-2.231l5.387-5.37 c-3.521-2.805-8.364-2.288-12.101,1.425c-2.078,2.067-3.223,4.575-3.223,7.069c0,2.124,0.851,4.091,2.458,5.69l0.713,0.708 L16.081,43.271l-0.51-0.089C15.196,43.115,14.819,43.083,14.446,43.083z"/><linearGradient id="QE8AXjBFF4quOX4v6Wf_1c" x1="34.342" x2="34.342" y1="25.747" y2="34.529" gradientUnits="userSpaceOnUse" spreadMethod="reflect"><stop offset="0" stop-color="#6dc7ff"/><stop offset="1" stop-color="#e6abff"/></linearGradient><path fill="url(#QE8AXjBFF4quOX4v6Wf_1c)" d="M32.417 32.992L31.007 31.574 36.267 26.345 37.677 27.763z"/></svg>