<svg xmlns="http://www.w3.org/2000/svg"  viewBox="0 0 64 64" width="50px" height="50px"><linearGradient id="0zL_Q6hdKcVrfQzxqJhsoa" x1="49" x2="49" y1="21.961" y2="29.662" gradientUnits="userSpaceOnUse" spreadMethod="reflect"><stop offset="0" stop-color="#6dc7ff"/><stop offset="1" stop-color="#e6abff"/></linearGradient><path fill="url(#0zL_Q6hdKcVrfQzxqJhsoa)" d="M49 22A4 4 0 1 0 49 30A4 4 0 1 0 49 22Z"/><linearGradient id="0zL_Q6hdKcVrfQzxqJhsob" x1="40" x2="40" y1="12" y2="19.8" gradientUnits="userSpaceOnUse" spreadMethod="reflect"><stop offset="0" stop-color="#6dc7ff"/><stop offset="1" stop-color="#e6abff"/></linearGradient><path fill="url(#0zL_Q6hdKcVrfQzxqJhsob)" d="M40 12A4 4 0 1 0 40 20A4 4 0 1 0 40 12Z"/><linearGradient id="0zL_Q6hdKcVrfQzxqJhsoc" x1="26" x2="26" y1="11.044" y2="18.942" gradientUnits="userSpaceOnUse" spreadMethod="reflect"><stop offset="0" stop-color="#6dc7ff"/><stop offset="1" stop-color="#e6abff"/></linearGradient><path fill="url(#0zL_Q6hdKcVrfQzxqJhsoc)" d="M26 11A4 4 0 1 0 26 19A4 4 0 1 0 26 11Z"/><linearGradient id="0zL_Q6hdKcVrfQzxqJhsod" x1="16" x2="16" y1="21.109" y2="28.956" gradientUnits="userSpaceOnUse" spreadMethod="reflect"><stop offset="0" stop-color="#6dc7ff"/><stop offset="1" stop-color="#e6abff"/></linearGradient><path fill="url(#0zL_Q6hdKcVrfQzxqJhsod)" d="M16 21A4 4 0 1 0 16 29A4 4 0 1 0 16 21Z"/><linearGradient id="0zL_Q6hdKcVrfQzxqJhsoe" x1="16" x2="16" y1="33.95" y2="41.851" gradientUnits="userSpaceOnUse" spreadMethod="reflect"><stop offset="0" stop-color="#6dc7ff"/><stop offset="1" stop-color="#e6abff"/></linearGradient><path fill="url(#0zL_Q6hdKcVrfQzxqJhsoe)" d="M16 34A4 4 0 1 0 16 42A4 4 0 1 0 16 34Z"/><linearGradient id="0zL_Q6hdKcVrfQzxqJhsof" x1="32" x2="32" y1="4.625" y2="59.37" gradientUnits="userSpaceOnUse" spreadMethod="reflect"><stop offset="0" stop-color="#1a6dff"/><stop offset="1" stop-color="#c822ff"/></linearGradient><path fill="url(#0zL_Q6hdKcVrfQzxqJhsof)" d="M30,41c-3.309,0-6,2.691-6,6s2.691,6,6,6s6-2.691,6-6S33.309,41,30,41z M30,51 c-2.206,0-4-1.794-4-4s1.794-4,4-4s4,1.794,4,4S32.206,51,30,51z M50.487,12.321c-5.486-5.155-12.664-7.74-20.208-7.268 C16.738,5.895,5.895,16.738,5.054,30.279c-0.469,7.545,2.112,14.722,7.268,20.208C17.406,55.897,24.579,59,32,59 c5.514,0,10-4.486,10-10v-2c0-4.411,3.589-8,8-8h2c3.859,0,7-3.141,7-7C59,24.579,55.897,17.406,50.487,12.321z M52,37h-2 c-5.514,0-10,4.486-10,10v2c0,4.411-3.589,8-8,8c-6.973,0-13.443-2.8-18.221-7.883C9.006,44.038,6.616,37.392,7.05,30.402 C7.828,17.867,17.867,7.828,30.402,7.05C30.943,7.017,31.481,7,32.018,7c6.393,0,12.413,2.375,17.1,6.779 C54.2,18.557,57,25.027,57,32C57,34.757,54.757,37,52,37z"/></svg>