<svg xmlns="http://www.w3.org/2000/svg"  viewBox="0 0 64 64" width="50px" height="50px"><linearGradient id="OLGEnRK6gG2OS0SuVVDCga" x1="32" x2="32" y1="11.5" y2="51.226" gradientUnits="userSpaceOnUse" spreadMethod="reflect"><stop offset="0" stop-color="#1a6dff"/><stop offset="1" stop-color="#c822ff"/></linearGradient><path fill="url(#OLGEnRK6gG2OS0SuVVDCga)" d="M32.302,13c-9.806,0-18.818,4.486-24.729,12.308l-0.603,0.798l6.385,4.825l0.604-0.797 C18.35,24.329,25.035,21,32.302,21c6.932,0,13.335,3.03,17.722,8.349l-3.196,2.415C43.219,27.452,37.979,25,32.302,25 c-6.013,0-11.535,2.751-15.149,7.549l-0.601,0.797l6.363,4.814l0.604-0.797C25.62,34.591,28.821,33,32.302,33 c3.132,0,6.038,1.288,8.12,3.567l-3.491,2.47C35.665,37.779,33.922,37,32,37c-3.859,0-7,3.141-7,7s3.141,7,7,7s7-3.141,7-7 c0-1.219-0.315-2.365-0.865-3.365l5.168-3.656l-0.624-0.824C40.195,32.879,36.413,31,32.302,31c-3.776,0-7.275,1.585-9.744,4.382 l-3.185-2.409C22.6,29.164,27.257,27,32.302,27c5.38,0,10.318,2.461,13.551,6.752l0.603,0.8l6.388-4.827l-0.604-0.798 C47.467,22.618,40.2,19,32.302,19c-7.564,0-14.551,3.319-19.319,9.142l-3.197-2.416C15.313,18.896,23.463,15,32.302,15 c9.173,0,17.604,4.196,23.132,11.513l1.596-1.205C51.12,17.486,42.107,13,32.302,13z M32,49c-2.757,0-5-2.243-5-5s2.243-5,5-5 s5,2.243,5,5S34.757,49,32,49z"/><linearGradient id="OLGEnRK6gG2OS0SuVVDCgb" x1="32" x2="32" y1="40.5" y2="47.607" gradientUnits="userSpaceOnUse" spreadMethod="reflect"><stop offset="0" stop-color="#6dc7ff"/><stop offset="1" stop-color="#e6abff"/></linearGradient><path fill="url(#OLGEnRK6gG2OS0SuVVDCgb)" d="M32 41A3 3 0 1 0 32 47A3 3 0 1 0 32 41Z"/></svg>