<svg xmlns="http://www.w3.org/2000/svg"  viewBox="0 0 64 64" width="50px" height="50px"><linearGradient id="AeFNjkezKYoZhoAx11OBAa" x1="32" x2="32" y1="22.333" y2="38.014" gradientUnits="userSpaceOnUse" spreadMethod="reflect"><stop offset="0" stop-color="#6dc7ff"/><stop offset="1" stop-color="#e6abff"/></linearGradient><path fill="url(#AeFNjkezKYoZhoAx11OBAa)" d="M35 34L33 34 33 26 35 26 35 24 29 24 29 26 31 26 31 34 29 34 29 36 35 36z"/><linearGradient id="AeFNjkezKYoZhoAx11OBAb" x1="32" x2="32" y1="8" y2="58.675" gradientUnits="userSpaceOnUse" spreadMethod="reflect"><stop offset="0" stop-color="#1a6dff"/><stop offset="1" stop-color="#c822ff"/></linearGradient><path fill="url(#AeFNjkezKYoZhoAx11OBAb)" d="M57.372,44.855l-7.178-6.598C51.343,35.736,52,32.946,52,30c0-11.028-8.972-20-20-20 s-20,8.972-20,20c0,3.117,0.737,6.058,2.015,8.69l-7.392,6.86c-0.592,0.545-0.781,1.392-0.481,2.158C6.447,48.493,7.185,49,8.02,49 h6.977C15.164,49,16,49.03,16,49.636v6.424c0,0.767,0.451,1.44,1.179,1.76c0.274,0.121,0.565,0.179,0.852,0.179 c0.51,0,1.011-0.186,1.396-0.541l8.553-7.866c1.299,0.266,2.644,0.406,4.021,0.406c1.371,0,2.71-0.14,4.004-0.404l8.465,7.848 C44.858,57.809,45.371,58,45.897,58c0.298,0,0.6-0.061,0.887-0.186C47.534,57.489,48,56.806,48,56.031v-6.625 C48,48.805,48.437,48,48.886,48h7.079c0.882,0,1.635-0.464,1.919-1.183C58.147,46.15,57.954,45.4,57.372,44.855z M16.051,31 C16.551,39,23,45.449,31,45.949v2C22,47.443,14.556,40,14.051,31H16.051z M32,16c7.72,0,14,6.28,14,14s-6.28,14-14,14 s-14-6.28-14-14S24.281,16,32,16z M33,45.949C41,45.449,47.45,39,47.949,31h2C49.444,40,42,47.443,33,47.949V45.949z M49.949,29h-2 C47.45,21,41,14.55,33,14.051v-2C42,12.556,49.444,20,49.949,29z M31,12.051v2C23,14.55,16.551,21,16.051,29h-2 C14.556,20,22,12.556,31,12.051z M18.072,55.987C18.051,56.006,18,55.999,18,56.021v-6.385c0-1.528-1.262-2.637-3.003-2.637 l-7.016,0.019l7.028-6.522c2.447,3.946,6.215,6.981,10.696,8.472L18.072,55.987z M48.886,46C47.159,46,46,47.761,46,49.406 l0.025,6.551c-0.035,0.035-0.154,0.058-0.193,0.023l-7.556-7.005c4.641-1.539,8.521-4.734,10.96-8.882L55.659,46H48.886z"/><linearGradient id="AeFNjkezKYoZhoAx11OBAc" x1="32" x2="32" y1="5.083" y2="38.931" gradientUnits="userSpaceOnUse" spreadMethod="reflect"><stop offset="0" stop-color="#6dc7ff"/><stop offset="1" stop-color="#e6abff"/></linearGradient><path fill="url(#AeFNjkezKYoZhoAx11OBAc)" d="M9.493,38.349C8.502,35.681,8.001,32.872,8.001,30c0-13.234,10.766-24,24-24s24,10.766,24,24 c0,2.872-0.502,5.681-1.492,8.348l-1.875-0.696C53.54,35.207,54,32.633,54,30c0-12.131-9.869-22-22-22s-22,9.869-22,22 c0,2.634,0.46,5.209,1.367,7.654L9.493,38.349z"/></svg>