<svg xmlns="http://www.w3.org/2000/svg"  viewBox="0 0 64 64" width="50px" height="50px"><linearGradient id="bqJqJr7XMSVdxvchMyzX4a" x1="32" x2="32" y1="5" y2="58.981" gradientUnits="userSpaceOnUse" spreadMethod="reflect"><stop offset="0" stop-color="#1a6dff"/><stop offset="1" stop-color="#c822ff"/></linearGradient><path fill="url(#bqJqJr7XMSVdxvchMyzX4a)" d="M32,58c-2.042,0-3.802-1.23-4.577-2.988c-1.391,1.328-3.487,1.791-5.373,1.009 c-1.233-0.511-2.194-1.472-2.706-2.705c-0.241-0.583-0.368-1.194-0.382-1.807c-1.791,0.69-3.904,0.318-5.347-1.124 c-1.443-1.443-1.818-3.556-1.125-5.347c-0.612-0.014-1.223-0.141-1.806-0.382c-1.233-0.512-2.194-1.473-2.705-2.706 c-0.512-1.234-0.512-2.593-0.001-3.827c0.242-0.583,0.583-1.104,1.007-1.547C7.229,35.8,6,34.041,6,32s1.229-3.8,2.985-4.576 c-0.424-0.442-0.765-0.964-1.007-1.547c-0.511-1.234-0.511-2.593,0.001-3.827c0.511-1.233,1.472-2.194,2.705-2.706 c0.583-0.241,1.193-0.368,1.806-0.382c-0.693-1.791-0.318-3.903,1.125-5.347c1.442-1.441,3.555-1.817,5.347-1.125 c0.014-0.612,0.141-1.223,0.382-1.806c0.512-1.233,1.473-2.194,2.706-2.705c1.234-0.512,2.593-0.511,3.827-0.001 c0.583,0.242,1.104,0.583,1.547,1.007C28.2,7.229,29.959,6,32,6s3.8,1.229,4.576,2.985c0.442-0.424,0.964-0.765,1.547-1.007 c1.234-0.51,2.593-0.511,3.827,0.001c1.233,0.511,2.194,1.472,2.706,2.705c0.241,0.583,0.368,1.193,0.382,1.806 c1.794-0.692,3.905-0.316,5.347,1.125c1.443,1.443,1.818,3.556,1.125,5.347c0.612,0.014,1.223,0.141,1.806,0.382 c1.233,0.512,2.194,1.473,2.705,2.706c0.512,1.234,0.512,2.593,0.001,3.827c-0.242,0.583-0.583,1.104-1.007,1.547 C56.771,28.2,58,29.959,58,32s-1.229,3.8-2.985,4.576c0.424,0.442,0.765,0.964,1.007,1.547c0.511,1.234,0.511,2.593-0.001,3.827 c-0.511,1.233-1.472,2.194-2.705,2.706c-0.583,0.241-1.193,0.368-1.806,0.382c0.693,1.791,0.318,3.903-1.125,5.347 c-1.441,1.441-3.553,1.819-5.347,1.124c-0.014,0.612-0.141,1.224-0.382,1.807c-0.512,1.233-1.473,2.194-2.706,2.705 c-1.887,0.782-3.982,0.319-5.373-1.009C35.802,56.77,34.042,58,32,58z M27.076,51.727L29,52.109V53c0,1.654,1.346,3,3,3s3-1.346,3-3 v-0.891l1.924-0.383l0.341,0.823c0.634,1.528,2.393,2.259,3.92,1.623c0.74-0.307,1.317-0.883,1.623-1.623 c0.307-0.74,0.307-1.556,0-2.296l-0.341-0.823l1.631-1.09l0.63,0.63c1.171,1.169,3.074,1.167,4.243,0c1.17-1.17,1.17-3.073,0-4.243 l-0.63-0.63l1.09-1.631l0.823,0.341c0.74,0.307,1.556,0.307,2.296,0c0.74-0.306,1.316-0.883,1.623-1.623 c0.633-1.528-0.095-3.287-1.623-3.92l-0.823-0.341L52.109,35H53c1.654,0,3-1.346,3-3s-1.346-3-3-3h-0.891l-0.383-1.924l0.823-0.341 c1.528-0.633,2.256-2.392,1.623-3.92c-0.307-0.74-0.883-1.317-1.623-1.623c-0.74-0.307-1.556-0.307-2.296,0l-0.823,0.341 l-1.09-1.631l0.63-0.63c1.17-1.17,1.17-3.073,0-4.243c-1.169-1.169-3.072-1.171-4.243,0l-0.63,0.63l-1.631-1.09l0.341-0.823 c0.307-0.74,0.307-1.556,0-2.296c-0.306-0.74-0.883-1.316-1.623-1.623c-1.528-0.634-3.286,0.094-3.92,1.623l-0.341,0.823L35,11.891 V11c0-1.654-1.346-3-3-3s-3,1.346-3,3v0.891l-1.924,0.383l-0.341-0.823c-0.633-1.529-2.393-2.256-3.92-1.623 c-0.74,0.307-1.317,0.883-1.623,1.623c-0.307,0.74-0.307,1.556,0,2.296l0.341,0.823l-1.631,1.09l-0.63-0.63 c-1.17-1.171-3.073-1.169-4.243,0c-1.17,1.17-1.17,3.073,0,4.243l0.63,0.63l-1.09,1.631l-0.823-0.341 c-0.74-0.307-1.556-0.307-2.296,0c-0.74,0.306-1.316,0.883-1.623,1.623c-0.633,1.528,0.095,3.287,1.623,3.92l0.823,0.341L11.891,29 H11c-1.654,0-3,1.346-3,3s1.346,3,3,3h0.891l0.383,1.924l-0.823,0.341c-1.528,0.633-2.256,2.392-1.623,3.92 c0.307,0.74,0.883,1.317,1.623,1.623c0.74,0.307,1.556,0.307,2.296,0l0.823-0.341l1.09,1.631l-0.63,0.63 c-1.17,1.17-1.17,3.073,0,4.243c1.17,1.169,3.073,1.167,4.243,0l0.63-0.63l1.631,1.09l-0.341,0.823c-0.307,0.74-0.307,1.556,0,2.296 c0.306,0.74,0.883,1.316,1.623,1.623c1.524,0.633,3.286-0.095,3.92-1.623L27.076,51.727z"/><linearGradient id="bqJqJr7XMSVdxvchMyzX4b" x1="32" x2="32" y1="21.833" y2="44.09" gradientUnits="userSpaceOnUse" spreadMethod="reflect"><stop offset="0" stop-color="#6dc7ff"/><stop offset="1" stop-color="#e6abff"/></linearGradient><path fill="url(#bqJqJr7XMSVdxvchMyzX4b)" d="M28.437,40.702c-1.025,0-2.051-0.39-2.831-1.171l-4.867-4.867 c-0.781-0.781-0.781-2.047,0-2.828l0,0c0.781-0.781,2.047-0.781,2.828,0l3.453,3.453c0.781,0.781,2.047,0.781,2.828,0L40.432,24.71 c0.781-0.781,2.047-0.781,2.828,0l0,0c0.781,0.781,0.781,2.047,0,2.828L31.268,39.531C30.488,40.312,29.462,40.702,28.437,40.702z"/></svg>