<svg xmlns="http://www.w3.org/2000/svg"  viewBox="0 0 64 64" width="50px" height="50px"><linearGradient id="BZSQJ0FyaFivjUZFo5xB0a" x1="19" x2="19" y1="42.625" y2="47.877" gradientUnits="userSpaceOnUse" spreadMethod="reflect"><stop offset="0" stop-color="#6dc7ff"/><stop offset="1" stop-color="#e6abff"/></linearGradient><path fill="url(#BZSQJ0FyaFivjUZFo5xB0a)" d="M19 43A2 2 0 1 0 19 47A2 2 0 1 0 19 43Z"/><linearGradient id="BZSQJ0FyaFivjUZFo5xB0b" x1="43.89" x2="43.89" y1="23.25" y2="33.128" gradientUnits="userSpaceOnUse" spreadMethod="reflect"><stop offset="0" stop-color="#6dc7ff"/><stop offset="1" stop-color="#e6abff"/></linearGradient><path fill="url(#BZSQJ0FyaFivjUZFo5xB0b)" d="M46.747,31.326l-2.504-6.677C44.097,24.259,43.724,24,43.307,24H41.5 c-0.276,0-0.5,0.224-0.5,0.5v7c0,0.276,0.224,0.5,0.5,0.5h4.78C46.629,32,46.87,31.652,46.747,31.326z"/><linearGradient id="BZSQJ0FyaFivjUZFo5xB0c" x1="47" x2="47" y1="42.625" y2="47.877" gradientUnits="userSpaceOnUse" spreadMethod="reflect"><stop offset="0" stop-color="#6dc7ff"/><stop offset="1" stop-color="#e6abff"/></linearGradient><path fill="url(#BZSQJ0FyaFivjUZFo5xB0c)" d="M47 43A2 2 0 1 0 47 47A2 2 0 1 0 47 43Z"/><linearGradient id="BZSQJ0FyaFivjUZFo5xB0d" x1="32" x2="32" y1="11.125" y2="51.538" gradientUnits="userSpaceOnUse" spreadMethod="reflect"><stop offset="0" stop-color="#1a6dff"/><stop offset="1" stop-color="#c822ff"/></linearGradient><path fill="url(#BZSQJ0FyaFivjUZFo5xB0d)" d="M59,40v-5c0-1.654-1.346-3-3-3h-4.556c-0.433,0-0.815-0.275-0.952-0.687l-3.089-9.266 C46.995,20.823,45.853,20,44.562,20H39v-4c0-1.654-1.346-3-3-3H10c-1.654,0-3,1.346-3,3v5H5c-1.103,0-2,0.897-2,2v10 c0,1.103,0.897,2,2,2h2v5c-1.103,0-2,0.897-2,2v2c0,1.103,0.897,2,2,2h3h3.09c0.478,2.833,2.942,5,5.91,5s5.431-2.167,5.91-5H35h4 h2.09c0.478,2.833,2.942,5,5.91,5s5.431-2.167,5.91-5H56h3c1.103,0,2-0.897,2-2v-2C61,40.897,60.103,40,59,40z M5,23h25l0.001,10H5 V23z M19,49c-2.206,0-4-1.794-4-4s1.794-4,4-4s4,1.794,4,4S21.206,49,19,49z M35,44H24.91c-0.478-2.833-2.942-5-5.91-5 s-5.431,2.167-5.91,5H10c-0.551,0-1-0.448-1-1v-3v-5h21c1.103,0,2-0.897,2-2V23c0-1.103-0.897-2-2-2H9v-5c0-0.552,0.449-1,1-1h26 c0.551,0,1,0.448,1,1v28H35z M47,49c-2.206,0-4-1.794-4-4s1.794-4,4-4s4,1.794,4,4S49.206,49,47,49z M52.91,44 c-0.478-2.833-2.942-5-5.91-5s-5.431,2.167-5.91,5H39V22h5.562c0.429,0,0.809,0.273,0.944,0.681l3.089,9.265 C49.004,33.175,50.149,34,51.444,34H56c0.551,0,1,0.448,1,1v5v3c0,0.552-0.449,1-1,1H52.91z"/><linearGradient id="BZSQJ0FyaFivjUZFo5xB0e" x1="43" x2="43" y1="11.125" y2="51.538" gradientUnits="userSpaceOnUse" spreadMethod="reflect"><stop offset="0" stop-color="#1a6dff"/><stop offset="1" stop-color="#c822ff"/></linearGradient><path fill="url(#BZSQJ0FyaFivjUZFo5xB0e)" d="M41 34H45V36H41z"/><linearGradient id="BZSQJ0FyaFivjUZFo5xB0f" x1="9.763" x2="9.763" y1="11.125" y2="51.538" gradientUnits="userSpaceOnUse" spreadMethod="reflect"><stop offset="0" stop-color="#1a6dff"/><stop offset="1" stop-color="#c822ff"/></linearGradient><path fill="url(#BZSQJ0FyaFivjUZFo5xB0f)" d="M8 31L9 31 9 29 11 29 11 28 9 28 9 26 11.486 26 11.525 25 8 25z"/><linearGradient id="BZSQJ0FyaFivjUZFo5xB0g" x1="14.544" x2="14.544" y1="11.125" y2="51.538" gradientUnits="userSpaceOnUse" spreadMethod="reflect"><stop offset="0" stop-color="#1a6dff"/><stop offset="1" stop-color="#c822ff"/></linearGradient><path fill="url(#BZSQJ0FyaFivjUZFo5xB0g)" d="M15.713,28.29c0.69-0.24,1.035-0.743,1.035-1.503c0-0.519-0.188-1.041-0.637-1.333 c-0.492-0.321-1.104-0.451-1.678-0.454c-0.811-0.005-1.622,0-2.433,0v6h1v-2.52l1.12,0.015c0.25,0,0.63,0.009,0.675,0.011 c0.06,0.099,0.216,0.431,0.469,0.968L15.932,31h1.156l-0.852-1.796C16.028,28.774,15.854,28.448,15.713,28.29z M14.635,27.723 c-0.042,0-0.47,0-0.819-0.002S14,27.719,13,27.719V26c0.65,0,1.324-0.05,1.97,0.012c0.263,0.025,0.539,0.124,0.687,0.344 c0.214,0.32,0.158,0.902-0.147,1.15C15.333,27.65,15.041,27.723,14.635,27.723z"/><linearGradient id="BZSQJ0FyaFivjUZFo5xB0h" x1="19.681" x2="19.681" y1="11.125" y2="51.538" gradientUnits="userSpaceOnUse" spreadMethod="reflect"><stop offset="0" stop-color="#1a6dff"/><stop offset="1" stop-color="#c822ff"/></linearGradient><path fill="url(#BZSQJ0FyaFivjUZFo5xB0h)" d="M19 29L21 29 21 28 19 28 19 26 21.275 26 21.318 25 18 25 18 31 21.326 31 21.361 30 19 30z"/><linearGradient id="BZSQJ0FyaFivjUZFo5xB0i" x1="23.681" x2="23.681" y1="11.125" y2="51.538" gradientUnits="userSpaceOnUse" spreadMethod="reflect"><stop offset="0" stop-color="#1a6dff"/><stop offset="1" stop-color="#c822ff"/></linearGradient><path fill="url(#BZSQJ0FyaFivjUZFo5xB0i)" d="M23 29L25 29 25 28 23 28 23 26 25.275 26 25.318 25 22 25 22 31 25.326 31 25.361 30 23 30z"/></svg>