<svg xmlns="http://www.w3.org/2000/svg"  viewBox="0 0 64 64" width="50px" height="50px"><linearGradient id="1DVwe_ndFSOhQ71jKqX38a" x1="28.904" x2="28.904" y1="9.936" y2="50.306" gradientUnits="userSpaceOnUse"><stop offset="0" stop-color="#6dc7ff"/><stop offset="1" stop-color="#e6abff"/></linearGradient><path fill="url(#1DVwe_ndFSOhQ71jKqX38a)" d="M12.845,43.278l2.099,2.568c4.195,5.136,10.399,8.081,17.02,8.081	c6.057,0,11.693-2.422,15.819-6.724l-4.761-4.811c-0.688,0.73-1.449,1.393-2.269,1.974C38.295,46.263,34,47,30.502,47.057	c-4.556-0.465-8.722-3.031-11.196-6.913l-1.294-2.03l1.703-1.703l1.346-1.346c-2.241,0.005-4.25,0.008-6.024,0.008	c-1.956,0-3.628-0.003-5.01-0.01v11.034l0.473-0.473L12.845,43.278z"/><linearGradient id="1DVwe_ndFSOhQ71jKqX38b" x1="44.487" x2="44.487" y1="9.936" y2="50.306" gradientUnits="userSpaceOnUse"><stop offset="0" stop-color="#6dc7ff"/><stop offset="1" stop-color="#e6abff"/></linearGradient><path fill="url(#1DVwe_ndFSOhQ71jKqX38b)" d="M53.502,18.377l-2.346,2.346l-2.099-2.568C45.496,13.794,40.484,11.02,35,10.28v6.906	c3.958,0.82,7.496,3.222,9.695,6.672l1.294,2.03l-1.703,1.703l-1.346,1.346c2.241-0.005,4.25-0.008,6.024-0.008	c1.956,0,3.628,0.003,5.01,0.01V17.904L53.502,18.377z"/><linearGradient id="1DVwe_ndFSOhQ71jKqX38c" x1="19.534" x2="19.534" y1="9.936" y2="50.306" gradientUnits="userSpaceOnUse"><stop offset="0" stop-color="#6dc7ff"/><stop offset="1" stop-color="#e6abff"/></linearGradient><path fill="url(#1DVwe_ndFSOhQ71jKqX38c)" d="M28.865,10H17.831l0.473,0.473l2.346,2.346l-2.568,2.099	c-4.367,3.568-7.143,8.59-7.878,14.083h6.905c0.815-3.968,3.218-7.517,6.676-9.721l2.03-1.294l1.703,1.703l1.346,1.346	C28.853,16.323,28.853,12.636,28.865,10z"/><linearGradient id="1DVwe_ndFSOhQ71jKqX38d" x1="32" x2="32" y1="7.255" y2="55.655" gradientUnits="userSpaceOnUse"><stop offset="0" stop-color="#1a6dff"/><stop offset="1" stop-color="#c822ff"/></linearGradient><path fill="url(#1DVwe_ndFSOhQ71jKqX38d)" d="M57.975,30.896V10.662c0-0.404-0.243-0.77-0.617-0.924c-0.374-0.155-0.804-0.069-1.09,0.217	l-4.828,4.828C46.593,9.332,39.309,6.11,32,6c0,0-0.748-0.016-1.074,0H10.604c-0.405,0-0.77,0.244-0.924,0.618	C9.525,6.992,9.612,7.423,9.899,7.709l4.848,4.826C9.174,17.47,6,24.479,6,31.937c0,0.03,0.026,21.402,0.026,21.402	c0,0.404,0.243,0.77,0.617,0.924c0.375,0.155,0.804,0.069,1.09-0.217l4.828-4.828c4.935,5.55,11.943,8.71,19.401,8.71	c7.431,0,14.519-3.193,19.446-8.761c1.044-1.18,0.991-2.982-0.119-4.104l-6.182-6.246c-0.593-0.599-1.436-0.904-2.254-0.88	c-0.862,0.041-1.674,0.452-2.227,1.128c-0.647,0.79-1.398,1.486-2.274,2.102c-1.462,1.141-2.683,1.84-7.197,1.934	c-3.179-0.251-6.124-1.896-8.024-4.45l5.901-5.901c0.286-0.286,0.372-0.718,0.216-1.092c-0.155-0.372-0.52-0.615-0.923-0.615	c-0.001,0-0.003,0-0.004,0c-2.711,0.01-5.188,0.018-7.43,0.023c0.268-3.154,1.915-6.074,4.466-7.962l5.93,5.906	c0.286,0.285,0.717,0.368,1.092,0.214c0.373-0.156,0.616-0.522,0.614-0.927c-0.009-2.323-0.018-4.861-0.023-7.378	c3.13,0.284,6.023,1.914,7.898,4.433l-5.901,5.901c-0.286,0.286-0.372,0.718-0.216,1.092c0.155,0.372,0.52,0.615,0.923,0.615	c0.001,0,0.003,0,0.004,0c10.935-0.042,18.08-0.041,21.244,0.003c0.025,0.002,0.051,0.003,0.077,0.003c0.001,0,0.002,0,0.003,0	c0.552-0.002,0.999-0.45,0.997-1.003C57.999,31.59,57.99,31.22,57.975,30.896z M21.129,37.824c-0.332,0.331-0.389,0.849-0.137,1.244	c2.201,3.452,5.941,5.704,10.104,6.028c5.222-0.103,6.75-0.999,8.445-2.323c0.984-0.689,1.87-1.511,2.634-2.442	c0.194-0.238,0.477-0.383,0.772-0.396c0.29-0.015,0.541,0.089,0.738,0.288l6.182,6.246c0.372,0.376,0.392,0.979,0.043,1.372	c-4.549,5.14-11.091,8.087-17.948,8.087c-7.224,0-13.991-3.213-18.568-8.815c-0.179-0.219-0.442-0.352-0.725-0.366	c-0.017-0.001-0.033-0.001-0.05-0.001c-0.265,0-0.52,0.104-0.707,0.293l-3.887,3.887L8.025,33.062c0-0.004,0-0.008-0.001-0.013	c3.25,0.03,9.247,0.032,17.879,0.001L21.129,37.824z M30.985,25.884l-4.803-4.783c-0.332-0.329-0.848-0.385-1.242-0.136	c-3.43,2.178-5.681,5.862-6.04,9.878c-0.021,0.069-0.032,0.151-0.048,0.226c-4.944,0.008-8.563,0.001-10.827-0.02	c0.253-6.887,3.433-13.291,8.829-17.679c0.22-0.179,0.354-0.442,0.368-0.726c0.014-0.282-0.093-0.559-0.294-0.759L13.026,8	L30.97,7.999c0.006,0,0.012-0.001,0.018-0.001C30.95,11.948,30.963,19.395,30.985,25.884z M48.972,30.929	c-2.969,0-6.599,0.007-10.874,0.022l4.774-4.774c0.332-0.331,0.389-0.849,0.137-1.244c-2.178-3.416-5.862-5.656-9.877-6.015	c-0.05-0.016-0.112-0.022-0.165-0.035c-0.007-4.245-0.004-8.227,0.019-10.783c6.865,0.268,13.244,3.433,17.62,8.789	c0.179,0.219,0.442,0.352,0.725,0.366c0.283,0.014,0.558-0.091,0.757-0.292l3.887-3.887l0.001,17.863c0,0.004,0,0.008,0.001,0.013	C54.336,30.937,51.996,30.929,48.972,30.929z"/></svg>